{"glyphs":{"0":{"ha":1481,"x_min":83,"x_max":1397,"o":"m 743 -21 q 376 15 522 -21 q 156 131 229 51 q 83 339 83 210 q 156 548 83 468 q 376 665 229 628 q 743 701 522 701 q 1108 665 963 701 q 1325 548 1253 628 q 1397 339 1397 468 q 1325 131 1397 210 q 1108 15 1253 51 q 743 -21 963 -21 m 743 188 q 915 205 846 188 q 1021 256 985 222 q 1057 339 1057 289 q 1022 423 1057 389 q 917 475 986 457 q 744 493 847 493 q 569 476 640 493 q 460 424 497 458 q 424 339 424 389 q 460 256 424 289 q 567 205 496 222 q 743 188 639 188 z "},"1":{"ha":735,"x_min":35,"x_max":638,"o":"m 35 417 l 35 681 l 638 681 l 638 0 l 304 0 l 304 417 l 35 417 z "},"2":{"ha":1393,"x_min":49,"x_max":1338,"o":"m 699 208 l 397 169 l 396 183 l 1336 215 l 1336 0 l 100 0 l 100 174 q 488 244 321 213 q 765 302 654 275 q 931 356 875 329 q 986 415 986 383 q 963 448 986 438 q 877 463 939 458 q 700 467 815 467 q 478 444 553 467 q 396 372 403 421 l 49 372 q 124 549 49 475 q 347 662 199 622 q 713 701 494 701 q 955 691 842 701 q 1154 654 1068 681 q 1289 581 1240 628 q 1338 463 1338 535 q 1290 357 1338 399 q 1157 289 1243 315 q 954 244 1071 263 q 699 208 838 226 z "},"3":{"ha":1465,"x_min":49,"x_max":1417,"o":"m 808 238 l 806 244 q 1051 239 939 244 q 1244 214 1163 233 q 1372 153 1326 194 q 1417 38 1417 111 q 1333 -115 1417 -54 q 1093 -207 1249 -176 q 724 -237 938 -237 q 356 -198 507 -237 q 127 -82 206 -158 q 49 107 49 -6 l 397 107 q 444 59 400 76 q 561 34 488 42 q 724 26 635 26 q 969 40 889 26 q 1049 107 1049 53 q 951 172 1049 160 q 667 185 854 185 l 460 185 l 460 282 l 667 282 q 883 290 804 282 q 995 316 963 297 q 1028 365 1028 335 q 956 427 1028 410 q 731 444 885 444 q 494 420 583 444 q 399 350 404 396 l 53 350 q 106 511 53 443 q 252 623 158 579 q 469 688 346 667 q 731 708 592 708 q 1088 681 942 708 q 1312 600 1235 654 q 1389 463 1389 546 q 1346 351 1389 394 q 1225 284 1303 308 q 1041 250 1147 260 q 808 238 935 240 z "},"4":{"ha":1519,"x_min":69,"x_max":1478,"o":"m 1250 688 l 1250 -201 l 917 -201 l 917 543 l 1043 474 l 428 79 l 404 160 l 939 160 l 939 -49 l 69 -49 l 69 160 l 917 688 l 1250 688 m 1228 -49 l 1228 160 l 1478 160 l 1478 -49 l 1228 -49 z "},"5":{"ha":1410,"x_min":76,"x_max":1340,"o":"m 903 328 q 1067 316 989 328 q 1207 275 1146 304 q 1304 196 1268 246 q 1340 71 1340 146 q 1272 -101 1340 -33 q 1069 -203 1204 -169 q 731 -236 933 -236 q 481 -216 599 -236 q 272 -156 363 -196 q 128 -61 181 -117 q 76 65 76 -6 l 382 65 q 433 31 386 46 q 553 8 481 15 q 707 0 626 0 q 813 1 760 0 q 910 10 867 3 q 981 32 954 17 q 1007 75 1007 47 q 980 120 1007 104 q 908 143 953 136 q 811 151 864 150 q 707 153 758 153 q 578 148 644 153 q 458 137 511 143 q 378 124 404 131 l 103 172 l 172 694 l 1226 694 l 1226 431 l 472 431 l 439 186 l 394 192 q 508 256 431 225 q 689 308 586 288 q 903 328 792 328 z "},"6":{"ha":1574,"x_min":42,"x_max":1525,"o":"m 961 611 q 1273 571 1147 611 q 1462 460 1399 531 q 1525 297 1525 389 q 1454 132 1525 206 q 1233 15 1383 58 q 847 -28 1083 -28 q 404 6 583 -28 q 133 107 225 39 q 42 281 42 175 q 58 358 42 314 q 128 451 74 403 q 167 485 135 458 q 249 552 200 513 q 353 638 297 592 q 463 728 408 683 q 562 808 517 772 q 634 867 607 844 q 661 889 661 889 l 1131 889 l 250 281 l 163 211 q 362 383 271 308 q 542 509 453 458 q 733 585 632 560 q 961 611 833 611 m 817 210 q 1085 232 992 210 q 1178 304 1178 254 q 1085 376 1178 350 q 817 403 992 403 q 504 376 619 403 q 389 304 389 350 q 504 232 389 254 q 817 210 619 210 z "},"7":{"ha":1601,"x_min":83,"x_max":1490,"o":"m 83 417 l 83 681 l 1490 681 l 1490 417 l 789 -208 l 335 -208 l 1158 515 l 1196 417 l 83 417 z "},"8":{"ha":1501,"x_min":49,"x_max":1453,"o":"m 750 471 q 363 490 508 471 q 153 553 218 508 q 89 672 89 597 q 153 803 89 749 q 363 887 218 857 q 750 917 508 917 q 1138 887 993 917 q 1348 803 1283 857 q 1413 672 1413 749 q 1348 553 1413 597 q 1138 490 1283 508 q 750 471 993 471 m 750 526 q 950 536 881 526 q 1046 563 1019 546 q 1072 600 1072 579 q 1046 635 1072 621 q 950 657 1019 650 q 750 664 881 664 q 555 657 621 664 q 466 635 489 650 q 443 600 443 621 q 466 563 443 579 q 555 536 489 546 q 750 526 621 526 m 750 -28 q 339 8 493 -28 q 117 107 185 44 q 49 247 49 169 q 120 393 49 343 q 346 461 192 443 q 750 479 500 479 q 1155 461 1000 479 q 1381 393 1310 443 q 1453 247 1453 343 q 1384 107 1453 169 q 1161 8 1315 44 q 750 -28 1007 -28 m 750 235 q 973 242 894 235 q 1082 266 1051 250 q 1113 306 1113 282 q 1082 344 1113 329 q 973 367 1051 360 q 750 375 894 375 q 532 367 607 375 q 430 344 457 360 q 403 306 403 329 q 430 266 403 282 q 532 242 457 250 q 750 235 607 235 z "},"9":{"ha":1608,"x_min":49,"x_max":1560,"o":"m 613 83 q 301 124 426 83 q 112 235 175 164 q 49 397 49 306 q 122 568 49 497 q 358 677 196 639 q 783 715 519 715 q 1219 683 1047 715 q 1476 585 1392 651 q 1560 414 1560 519 q 1536 324 1560 371 q 1453 222 1513 276 q 1417 190 1447 217 q 1340 125 1386 164 q 1239 42 1293 86 q 1132 -47 1185 -3 q 1035 -128 1079 -92 q 965 -186 992 -164 q 939 -208 939 -208 l 471 -208 l 1350 414 l 1439 469 q 1238 306 1331 378 q 1051 184 1144 233 q 851 109 957 135 q 613 83 746 83 m 783 486 q 491 466 586 486 q 396 390 396 446 q 491 315 396 339 q 783 292 586 292 q 1097 315 981 292 q 1213 390 1213 339 q 1160 449 1213 428 q 1011 478 1107 469 q 783 486 915 486 z "},"A":{"ha":1611,"x_min":14,"x_max":1597,"o":"m 325 135 l 325 343 l 1275 343 l 1275 135 l 325 135 m 14 0 l 610 889 l 996 889 l 1597 0 l 1215 0 l 700 796 l 907 796 l 396 0 l 14 0 z "},"Á":{"ha":1611,"x_min":14,"x_max":1597,"o":"m 325 135 l 325 343 l 1275 343 l 1275 135 l 325 135 m 14 0 l 610 889 l 996 889 l 1597 0 l 1215 0 l 700 796 l 907 796 l 396 0 l 14 0 m 613 961 l 893 1169 l 1338 1169 l 947 961 l 613 961 z "},"Ă":{"ha":1611,"x_min":14,"x_max":1597,"o":"m 325 135 l 325 343 l 1275 343 l 1275 135 l 325 135 m 14 0 l 610 889 l 996 889 l 1597 0 l 1215 0 l 700 796 l 907 796 l 396 0 l 14 0 m 1324 1139 q 1233 1038 1296 1083 q 1065 966 1171 993 q 803 939 960 939 q 540 966 646 939 q 372 1038 435 993 q 282 1139 310 1083 l 490 1139 q 594 1099 521 1119 q 803 1078 668 1078 q 1010 1099 938 1078 q 1115 1139 1083 1119 l 1324 1139 z "},"Â":{"ha":1611,"x_min":14,"x_max":1597,"o":"m 325 135 l 325 343 l 1275 343 l 1275 135 l 325 135 m 14 0 l 610 889 l 996 889 l 1597 0 l 1215 0 l 700 796 l 907 796 l 396 0 l 14 0 m 997 1169 l 1306 961 l 969 961 l 672 1132 l 933 1131 l 635 961 l 300 961 l 608 1169 l 997 1169 z "},"Ä":{"ha":1611,"x_min":14,"x_max":1597,"o":"m 325 135 l 325 343 l 1275 343 l 1275 135 l 325 135 m 14 0 l 610 889 l 996 889 l 1597 0 l 1215 0 l 700 796 l 907 796 l 396 0 l 14 0 m 411 921 l 411 711 l 58 711 l 58 921 l 411 921 m 1560 921 l 1560 711 l 1207 711 l 1207 921 l 1560 921 z "},"À":{"ha":1611,"x_min":14,"x_max":1597,"o":"m 325 135 l 325 343 l 1275 343 l 1275 135 l 325 135 m 14 0 l 610 889 l 996 889 l 1597 0 l 1215 0 l 700 796 l 907 796 l 396 0 l 14 0 m 664 961 l 274 1169 l 718 1169 l 999 961 l 664 961 z "},"Ā":{"ha":1611,"x_min":14,"x_max":1597,"o":"m 325 135 l 325 343 l 1275 343 l 1275 135 l 325 135 m 14 0 l 610 889 l 996 889 l 1597 0 l 1215 0 l 700 796 l 907 796 l 396 0 l 14 0 m 488 963 l 488 1100 l 1118 1100 l 1118 963 l 488 963 z "},"Ą":{"ha":1611,"x_min":14,"x_max":1597,"o":"m 1513 -333 q 1157 -283 1286 -333 q 1028 -146 1028 -233 q 1083 -45 1028 -81 q 1235 7 1139 -10 q 1456 31 1332 24 l 1456 0 q 1323 -27 1368 -10 q 1278 -90 1278 -44 q 1310 -151 1278 -128 q 1397 -186 1343 -175 q 1513 -197 1450 -197 l 1513 -333 m 325 135 l 325 343 l 1275 343 l 1275 135 l 325 135 m 14 0 l 610 889 l 996 889 l 1597 0 l 1215 0 l 700 796 l 907 796 l 396 0 l 14 0 z "},"Å":{"ha":1611,"x_min":14,"x_max":1597,"o":"m 325 135 l 325 343 l 1275 343 l 1275 135 l 325 135 m 14 0 l 610 889 l 996 889 l 1597 0 l 1215 0 l 700 796 l 907 796 l 396 0 l 14 0 m 803 926 q 626 969 683 926 q 568 1082 568 1011 q 626 1194 568 1151 q 803 1236 683 1236 q 979 1194 921 1236 q 1038 1082 1038 1151 q 979 969 1038 1011 q 803 926 921 926 m 803 1017 q 881 1031 858 1017 q 904 1082 904 1044 q 881 1132 904 1118 q 803 1146 858 1146 q 723 1132 746 1146 q 700 1082 700 1118 q 723 1031 700 1044 q 803 1017 746 1017 z "},"Ã":{"ha":1611,"x_min":14,"x_max":1597,"o":"m 325 135 l 325 343 l 1275 343 l 1275 135 l 325 135 m 14 0 l 610 889 l 996 889 l 1597 0 l 1215 0 l 700 796 l 907 796 l 396 0 l 14 0 m 989 951 q 890 963 935 951 q 804 990 844 975 q 724 1016 764 1004 q 639 1028 683 1028 q 582 1019 606 1028 q 540 996 558 1011 q 500 958 521 981 l 292 958 q 362 1058 318 1011 q 469 1136 406 1106 q 618 1167 533 1167 q 717 1155 674 1167 q 800 1128 761 1143 q 877 1102 839 1114 q 960 1090 915 1090 q 1025 1100 999 1090 q 1071 1126 1051 1110 q 1107 1160 1090 1142 l 1315 1160 q 1246 1060 1290 1108 q 1138 982 1201 1013 q 989 951 1075 951 z "},"Æ":{"ha":2335,"x_min":14,"x_max":2251,"o":"m 1196 375 l 1196 264 l 2251 264 l 2251 0 l 849 0 l 849 831 l 932 806 l 392 0 l 14 0 l 631 889 l 2249 889 l 2249 625 l 1196 625 l 1196 514 l 2057 514 l 2057 375 l 1196 375 m 325 190 l 325 399 l 1150 399 l 1150 190 l 325 190 z "},"B":{"ha":1583,"x_min":97,"x_max":1542,"o":"m 97 0 l 97 889 l 972 889 q 1369 836 1242 889 q 1497 653 1497 783 q 1442 525 1497 569 q 1285 463 1388 481 q 1040 442 1183 446 l 1051 453 q 1244 447 1156 453 q 1400 422 1333 442 q 1504 363 1467 403 q 1542 251 1542 322 q 1481 110 1542 165 q 1307 27 1419 54 q 1042 0 1194 0 l 97 0 m 444 261 l 1042 261 q 1148 275 1115 261 q 1181 319 1181 289 q 1166 353 1181 340 q 1121 372 1151 365 q 1042 378 1090 378 l 444 378 l 444 261 m 444 511 l 983 511 q 1090 525 1057 511 q 1122 569 1122 539 q 1090 615 1122 601 q 983 628 1057 628 l 444 628 l 444 511 z "},"C":{"ha":1828,"x_min":83,"x_max":1744,"o":"m 1743 371 q 1647 150 1736 239 q 1385 17 1558 61 q 949 -28 1213 -28 q 588 -6 747 -28 q 315 67 428 15 q 143 210 203 119 q 83 438 83 300 q 143 667 83 575 q 315 815 203 760 q 588 893 428 869 q 949 917 747 917 q 1386 869 1213 917 q 1649 728 1560 821 q 1744 501 1738 635 l 1383 501 q 1322 580 1367 546 q 1189 633 1278 614 q 949 653 1100 653 q 660 631 771 653 q 497 563 549 610 q 446 438 446 515 q 497 322 446 367 q 660 257 549 278 q 949 236 771 236 q 1188 254 1100 236 q 1321 303 1276 272 q 1382 371 1365 335 l 1743 371 z "},"Ć":{"ha":1828,"x_min":83,"x_max":1744,"o":"m 1743 371 q 1647 150 1736 239 q 1385 17 1558 61 q 949 -28 1213 -28 q 588 -6 747 -28 q 315 67 428 15 q 143 210 203 119 q 83 438 83 300 q 143 667 83 575 q 315 815 203 760 q 588 893 428 869 q 949 917 747 917 q 1386 869 1213 917 q 1649 728 1560 821 q 1744 501 1738 635 l 1383 501 q 1322 580 1367 546 q 1189 633 1278 614 q 949 653 1100 653 q 660 631 771 653 q 497 563 549 610 q 446 438 446 515 q 497 322 446 367 q 660 257 549 278 q 949 236 771 236 q 1188 254 1100 236 q 1321 303 1276 272 q 1382 371 1365 335 l 1743 371 m 731 975 l 1011 1183 l 1456 1183 l 1065 975 l 731 975 z "},"Č":{"ha":1828,"x_min":83,"x_max":1744,"o":"m 1743 371 q 1647 150 1736 239 q 1385 17 1558 61 q 949 -28 1213 -28 q 588 -6 747 -28 q 315 67 428 15 q 143 210 203 119 q 83 438 83 300 q 143 667 83 575 q 315 815 203 760 q 588 893 428 869 q 949 917 747 917 q 1386 869 1213 917 q 1649 728 1560 821 q 1744 501 1738 635 l 1383 501 q 1322 580 1367 546 q 1189 633 1278 614 q 949 653 1100 653 q 660 631 771 653 q 497 563 549 610 q 446 438 446 515 q 497 322 446 367 q 660 257 549 278 q 949 236 771 236 q 1188 254 1100 236 q 1321 303 1276 272 q 1382 371 1365 335 l 1743 371 m 1051 1014 l 790 1013 l 1088 1183 l 1424 1183 l 1115 975 l 726 975 l 418 1183 l 753 1183 l 1051 1014 z "},"Ç":{"ha":1828,"x_min":83,"x_max":1744,"o":"m 785 -151 q 799 -166 789 -156 q 833 -185 810 -176 q 896 -194 856 -194 q 956 -184 936 -194 q 976 -156 976 -174 q 968 -133 976 -144 q 929 -110 960 -121 q 831 -90 899 -99 l 1060 -58 q 1167 -83 1119 -68 q 1242 -123 1214 -97 q 1271 -192 1271 -149 q 1176 -315 1271 -268 q 904 -361 1081 -361 q 712 -331 790 -361 q 592 -253 633 -301 q 543 -151 550 -204 l 785 -151 m 831 26 l 1067 26 l 1067 -93 l 831 -90 l 831 26 m 1743 371 q 1647 150 1736 239 q 1385 17 1558 61 q 949 -28 1213 -28 q 588 -6 747 -28 q 315 67 428 15 q 143 210 203 119 q 83 438 83 300 q 143 667 83 575 q 315 815 203 760 q 588 893 428 869 q 949 917 747 917 q 1386 869 1213 917 q 1649 728 1560 821 q 1744 501 1738 635 l 1383 501 q 1322 580 1367 546 q 1189 633 1278 614 q 949 653 1100 653 q 660 631 771 653 q 497 563 549 610 q 446 438 446 515 q 497 322 446 367 q 660 257 549 278 q 949 236 771 236 q 1188 254 1100 236 q 1321 303 1276 272 q 1382 371 1365 335 l 1743 371 z "},"Ċ":{"ha":1828,"x_min":83,"x_max":1744,"o":"m 1743 371 q 1647 150 1736 239 q 1385 17 1558 61 q 949 -28 1213 -28 q 588 -6 747 -28 q 315 67 428 15 q 143 210 203 119 q 83 438 83 300 q 143 667 83 575 q 315 815 203 760 q 588 893 428 869 q 949 917 747 917 q 1386 869 1213 917 q 1649 728 1560 821 q 1744 501 1738 635 l 1383 501 q 1322 580 1367 546 q 1189 633 1278 614 q 949 653 1100 653 q 660 631 771 653 q 497 563 549 610 q 446 438 446 515 q 497 322 446 367 q 660 257 549 278 q 949 236 771 236 q 1188 254 1100 236 q 1321 303 1276 272 q 1382 371 1365 335 l 1743 371 m 1097 1185 l 1097 976 l 744 976 l 744 1185 l 1097 1185 z "},"D":{"ha":1808,"x_min":97,"x_max":1725,"o":"m 1097 889 q 1407 853 1285 889 q 1599 754 1529 817 q 1697 612 1668 692 q 1725 444 1725 532 q 1693 277 1725 357 q 1588 135 1661 197 q 1395 36 1515 72 q 1097 0 1275 0 l 97 0 l 97 889 l 1097 889 m 444 278 l 1083 278 q 1215 288 1161 278 q 1302 319 1269 299 q 1349 372 1335 340 q 1364 444 1364 403 q 1349 517 1364 486 q 1302 569 1335 549 q 1215 601 1269 590 q 1083 611 1161 611 l 444 611 l 444 278 z "},"Ð":{"ha":1808,"x_min":-22,"x_max":1725,"o":"m 1097 889 q 1407 853 1285 889 q 1599 754 1529 817 q 1697 612 1668 692 q 1725 444 1725 532 q 1693 277 1725 357 q 1588 135 1661 197 q 1395 36 1515 72 q 1097 0 1275 0 l 97 0 l 97 889 l 1097 889 m 444 278 l 1083 278 q 1215 288 1161 278 q 1302 319 1269 299 q 1349 372 1335 340 q 1364 444 1364 403 q 1349 517 1364 486 q 1302 569 1335 549 q 1215 601 1269 590 q 1083 611 1161 611 l 444 611 l 444 278 m -22 503 l 658 503 l 658 413 l -22 413 l -22 503 z "},"Ď":{"ha":1808,"x_min":97,"x_max":1725,"o":"m 1097 889 q 1407 853 1285 889 q 1599 754 1529 817 q 1697 612 1668 692 q 1725 444 1725 532 q 1693 277 1725 357 q 1588 135 1661 197 q 1395 36 1515 72 q 1097 0 1275 0 l 97 0 l 97 889 l 1097 889 m 444 278 l 1083 278 q 1215 288 1161 278 q 1302 319 1269 299 q 1349 372 1335 340 q 1364 444 1364 403 q 1349 517 1364 486 q 1302 569 1335 549 q 1215 601 1269 590 q 1083 611 1161 611 l 444 611 l 444 278 m 961 1000 l 700 999 l 997 1169 l 1333 1169 l 1025 961 l 636 961 l 328 1169 l 663 1169 l 961 1000 z "},"Đ":{"ha":1808,"x_min":-22,"x_max":1725,"o":"m 1097 889 q 1407 853 1285 889 q 1599 754 1529 817 q 1697 612 1668 692 q 1725 444 1725 532 q 1693 277 1725 357 q 1588 135 1661 197 q 1395 36 1515 72 q 1097 0 1275 0 l 97 0 l 97 889 l 1097 889 m 444 278 l 1083 278 q 1215 288 1161 278 q 1302 319 1269 299 q 1349 372 1335 340 q 1364 444 1364 403 q 1349 517 1364 486 q 1302 569 1335 549 q 1215 601 1269 590 q 1083 611 1161 611 l 444 611 l 444 278 m -22 503 l 658 503 l 658 413 l -22 413 l -22 503 z "},"E":{"ha":1583,"x_min":97,"x_max":1500,"o":"m 444 375 l 444 264 l 1500 264 l 1500 0 l 97 0 l 97 889 l 1497 889 l 1497 625 l 444 625 l 444 514 l 1306 514 l 1306 375 l 444 375 z "},"É":{"ha":1583,"x_min":97,"x_max":1500,"o":"m 444 375 l 444 264 l 1500 264 l 1500 0 l 97 0 l 97 889 l 1497 889 l 1497 625 l 444 625 l 444 514 l 1306 514 l 1306 375 l 444 375 m 636 961 l 917 1169 l 1361 1169 l 971 961 l 636 961 z "},"Ě":{"ha":1583,"x_min":97,"x_max":1500,"o":"m 444 375 l 444 264 l 1500 264 l 1500 0 l 97 0 l 97 889 l 1497 889 l 1497 625 l 444 625 l 444 514 l 1306 514 l 1306 375 l 444 375 m 957 1000 l 696 999 l 993 1169 l 1329 1169 l 1021 961 l 632 961 l 324 1169 l 658 1169 l 957 1000 z "},"Ê":{"ha":1583,"x_min":97,"x_max":1500,"o":"m 444 375 l 444 264 l 1500 264 l 1500 0 l 97 0 l 97 889 l 1497 889 l 1497 625 l 444 625 l 444 514 l 1306 514 l 1306 375 l 444 375 m 1021 1169 l 1329 961 l 993 961 l 696 1132 l 957 1131 l 658 961 l 324 961 l 632 1169 l 1021 1169 z "},"Ë":{"ha":1583,"x_min":97,"x_max":1500,"o":"m 444 375 l 444 264 l 1500 264 l 1500 0 l 97 0 l 97 889 l 1497 889 l 1497 625 l 444 625 l 444 514 l 1306 514 l 1306 375 l 444 375 m 792 1171 l 792 961 l 439 961 l 439 1171 l 792 1171 m 1214 1171 l 1214 961 l 861 961 l 861 1171 l 1214 1171 z "},"Ė":{"ha":1583,"x_min":97,"x_max":1500,"o":"m 444 375 l 444 264 l 1500 264 l 1500 0 l 97 0 l 97 889 l 1497 889 l 1497 625 l 444 625 l 444 514 l 1306 514 l 1306 375 l 444 375 m 1003 1171 l 1003 963 l 650 963 l 650 1171 l 1003 1171 z "},"È":{"ha":1583,"x_min":97,"x_max":1500,"o":"m 444 375 l 444 264 l 1500 264 l 1500 0 l 97 0 l 97 889 l 1497 889 l 1497 625 l 444 625 l 444 514 l 1306 514 l 1306 375 l 444 375 m 688 961 l 297 1169 l 742 1169 l 1022 961 l 688 961 z "},"Ē":{"ha":1583,"x_min":97,"x_max":1500,"o":"m 444 375 l 444 264 l 1500 264 l 1500 0 l 97 0 l 97 889 l 1497 889 l 1497 625 l 444 625 l 444 514 l 1306 514 l 1306 375 l 444 375 m 511 963 l 511 1100 l 1142 1100 l 1142 963 l 511 963 z "},"Ę":{"ha":1583,"x_min":97,"x_max":1500,"o":"m 1446 -333 q 1090 -283 1219 -333 q 961 -146 961 -233 q 1017 -45 961 -81 q 1169 7 1072 -10 q 1389 31 1265 24 l 1389 0 q 1256 -27 1301 -10 q 1211 -90 1211 -44 q 1244 -151 1211 -128 q 1330 -186 1276 -175 q 1446 -197 1383 -197 l 1446 -333 m 444 375 l 444 264 l 1500 264 l 1500 0 l 97 0 l 97 889 l 1497 889 l 1497 625 l 444 625 l 444 514 l 1306 514 l 1306 375 l 444 375 z "},"F":{"ha":1567,"x_min":97,"x_max":1497,"o":"m 1497 889 l 1497 625 l 444 625 l 444 507 l 1306 507 l 1306 271 l 444 271 l 444 0 l 97 0 l 97 889 l 1497 889 z "},"G":{"ha":1861,"x_min":83,"x_max":1764,"o":"m 907 -28 q 576 -6 726 -28 q 315 67 425 15 q 144 210 204 119 q 83 438 83 300 q 144 667 83 575 q 320 815 206 760 q 594 893 435 869 q 949 917 753 917 q 1380 869 1206 917 q 1646 735 1554 822 q 1744 529 1738 649 l 1383 529 q 1322 588 1367 560 q 1189 635 1278 617 q 949 653 1100 653 q 660 631 771 653 q 497 563 549 610 q 446 438 446 515 q 499 325 446 369 q 668 258 551 281 q 976 236 785 236 q 1210 248 1111 236 q 1391 285 1310 260 q 1553 347 1472 310 l 1586 307 q 1331 58 1500 144 q 907 -28 1161 -28 m 1492 0 q 1503 94 1492 42 q 1531 205 1514 147 q 1565 314 1549 263 l 1024 314 l 1024 460 l 1764 460 l 1764 0 l 1492 0 z "},"Ğ":{"ha":1861,"x_min":83,"x_max":1764,"o":"m 907 -28 q 576 -6 726 -28 q 315 67 425 15 q 144 210 204 119 q 83 438 83 300 q 144 667 83 575 q 320 815 206 760 q 594 893 435 869 q 949 917 753 917 q 1380 869 1206 917 q 1646 735 1554 822 q 1744 529 1738 649 l 1383 529 q 1322 588 1367 560 q 1189 635 1278 617 q 949 653 1100 653 q 660 631 771 653 q 497 563 549 610 q 446 438 446 515 q 499 325 446 369 q 668 258 551 281 q 976 236 785 236 q 1210 248 1111 236 q 1391 285 1310 260 q 1553 347 1472 310 l 1586 307 q 1331 58 1500 144 q 907 -28 1161 -28 m 1492 0 q 1503 94 1492 42 q 1531 205 1514 147 q 1565 314 1549 263 l 1024 314 l 1024 460 l 1764 460 l 1764 0 l 1492 0 m 1425 1153 q 1335 1052 1397 1097 q 1167 980 1272 1007 q 904 953 1061 953 q 642 980 747 953 q 474 1052 536 1007 q 383 1153 411 1097 l 592 1153 q 696 1113 622 1133 q 904 1092 769 1092 q 1112 1113 1039 1092 q 1217 1153 1185 1133 l 1425 1153 z "},"Ģ":{"ha":1861,"x_min":83,"x_max":1764,"o":"m 907 -28 q 576 -6 726 -28 q 315 67 425 15 q 144 210 204 119 q 83 438 83 300 q 144 667 83 575 q 320 815 206 760 q 594 893 435 869 q 949 917 753 917 q 1380 869 1206 917 q 1646 735 1554 822 q 1744 529 1738 649 l 1383 529 q 1322 588 1367 560 q 1189 635 1278 617 q 949 653 1100 653 q 660 631 771 653 q 497 563 549 610 q 446 438 446 515 q 499 325 446 369 q 668 258 551 281 q 976 236 785 236 q 1210 248 1111 236 q 1391 285 1310 260 q 1553 347 1472 310 l 1586 307 q 1331 58 1500 144 q 907 -28 1161 -28 m 1492 0 q 1503 94 1492 42 q 1531 205 1514 147 q 1565 314 1549 263 l 1024 314 l 1024 460 l 1764 460 l 1764 0 l 1492 0 m 771 -393 l 751 -307 q 821 -281 792 -297 q 854 -246 850 -265 l 732 -231 l 732 -68 l 1083 -68 l 1083 -175 q 1005 -316 1083 -256 q 771 -393 926 -376 l 771 -393 z "},"Ġ":{"ha":1861,"x_min":83,"x_max":1764,"o":"m 907 -28 q 576 -6 726 -28 q 315 67 425 15 q 144 210 204 119 q 83 438 83 300 q 144 667 83 575 q 320 815 206 760 q 594 893 435 869 q 949 917 753 917 q 1380 869 1206 917 q 1646 735 1554 822 q 1744 529 1738 649 l 1383 529 q 1322 588 1367 560 q 1189 635 1278 617 q 949 653 1100 653 q 660 631 771 653 q 497 563 549 610 q 446 438 446 515 q 499 325 446 369 q 668 258 551 281 q 976 236 785 236 q 1210 248 1111 236 q 1391 285 1310 260 q 1553 347 1472 310 l 1586 307 q 1331 58 1500 144 q 907 -28 1161 -28 m 1492 0 q 1503 94 1492 42 q 1531 205 1514 147 q 1565 314 1549 263 l 1024 314 l 1024 460 l 1764 460 l 1764 0 l 1492 0 m 1081 1185 l 1081 976 l 728 976 l 728 1185 l 1081 1185 z "},"H":{"ha":1778,"x_min":97,"x_max":1681,"o":"m 394 582 l 1372 582 l 1372 318 l 394 318 l 394 582 m 1333 889 l 1681 889 l 1681 0 l 1333 0 l 1333 889 m 97 889 l 444 889 l 444 0 l 97 0 l 97 889 z "},"Ħ":{"ha":1778,"x_min":42,"x_max":1736,"o":"m 42 667 l 42 771 l 1736 771 l 1736 667 l 42 667 m 396 582 l 1374 582 l 1374 318 l 396 318 l 396 582 m 1335 889 l 1682 889 l 1682 0 l 1335 0 l 1335 889 m 99 889 l 446 889 l 446 0 l 99 0 l 99 889 z "},"I":{"ha":583,"x_min":118,"x_max":465,"o":"m 118 889 l 465 889 l 465 0 l 118 0 l 118 889 z "},"Ĳ":{"ha":1469,"x_min":118,"x_max":1372,"o":"m 119 889 l 453 889 l 453 478 l 119 478 l 119 889 m 1025 457 l 1025 889 l 1372 889 l 1372 415 q 1337 260 1372 336 q 1226 122 1301 185 q 1031 23 1150 60 q 747 -14 913 -14 q 520 8 632 -14 q 318 78 408 29 q 174 208 228 126 q 118 408 119 289 l 451 408 q 541 286 471 322 q 747 250 611 250 q 922 276 863 250 q 1003 350 982 303 q 1025 457 1025 397 z "},"Í":{"ha":583,"x_min":101,"x_max":826,"o":"m 118 889 l 465 889 l 465 0 l 118 0 l 118 889 m 101 961 l 382 1169 l 826 1169 l 436 961 l 101 961 z "},"Î":{"ha":583,"x_min":-211,"x_max":794,"o":"m 118 889 l 465 889 l 465 0 l 118 0 l 118 889 m 486 1169 l 794 961 l 458 961 l 161 1132 l 422 1131 l 124 961 l -211 961 l 97 1169 l 486 1169 z "},"Ï":{"ha":583,"x_min":-96,"x_max":679,"o":"m 118 889 l 465 889 l 465 0 l 118 0 l 118 889 m 257 1171 l 257 961 l -96 961 l -96 1171 l 257 1171 m 679 1171 l 679 961 l 326 961 l 326 1171 l 679 1171 z "},"İ":{"ha":583,"x_min":115,"x_max":468,"o":"m 118 889 l 465 889 l 465 0 l 118 0 l 118 889 m 468 1171 l 468 963 l 115 963 l 115 1171 l 468 1171 z "},"Ì":{"ha":583,"x_min":-237,"x_max":488,"o":"m 118 889 l 465 889 l 465 0 l 118 0 l 118 889 m 153 961 l -237 1169 l 207 1169 l 488 961 l 153 961 z "},"Ī":{"ha":583,"x_min":-24,"x_max":607,"o":"m 118 889 l 465 889 l 465 0 l 118 0 l 118 889 m -24 963 l -24 1100 l 607 1100 l 607 963 l -24 963 z "},"Į":{"ha":583,"x_min":-93,"x_max":465,"o":"m 392 -333 q 36 -283 165 -333 q -93 -146 -93 -233 q -37 -45 -93 -81 q 115 7 18 -10 q 335 31 211 24 l 335 0 q 202 -27 247 -10 q 157 -90 157 -44 q 190 -151 157 -128 q 276 -186 222 -175 q 392 -197 329 -197 l 392 -333 m 118 889 l 465 889 l 465 0 l 118 0 l 118 889 z "},"J":{"ha":1394,"x_min":43,"x_max":1297,"o":"m 950 457 l 950 889 l 1297 889 l 1297 415 q 1262 260 1297 336 q 1151 122 1226 185 q 956 23 1075 60 q 672 -14 838 -14 q 445 8 557 -14 q 243 78 333 29 q 99 208 153 126 q 43 408 44 289 l 376 408 q 466 286 396 322 q 672 250 536 250 q 847 276 788 250 q 928 350 907 303 q 950 457 950 397 z "},"K":{"ha":1688,"x_min":97,"x_max":1639,"o":"m 838 438 l 838 515 l 1639 0 l 1122 0 l 442 472 l 1069 889 l 1564 889 l 838 438 m 97 889 l 444 889 l 444 0 l 97 0 l 97 889 z "},"Ķ":{"ha":1688,"x_min":97,"x_max":1639,"o":"m 838 438 l 838 515 l 1639 0 l 1122 0 l 442 472 l 1069 889 l 1564 889 l 838 438 m 97 889 l 444 889 l 444 0 l 97 0 l 97 889 m 581 -393 l 561 -307 q 631 -281 601 -297 q 664 -246 660 -265 l 542 -231 l 542 -68 l 893 -68 l 893 -175 q 815 -316 893 -256 q 581 -393 736 -376 l 581 -393 z "},"L":{"ha":1310,"x_min":97,"x_max":1254,"o":"m 444 889 l 444 264 l 1254 264 l 1254 0 l 97 0 l 97 889 l 444 889 z "},"Ĺ":{"ha":1310,"x_min":96,"x_max":1254,"o":"m 444 889 l 444 264 l 1254 264 l 1254 0 l 97 0 l 97 889 l 444 889 m 96 961 l 376 1169 l 821 1169 l 431 961 l 96 961 z "},"Ľ":{"ha":1310,"x_min":97,"x_max":1254,"o":"m 444 889 l 444 264 l 1254 264 l 1254 0 l 97 0 l 97 889 l 444 889 m 1093 647 l 926 647 l 836 810 l 836 958 l 1183 958 l 1183 810 l 1093 647 z "},"Ļ":{"ha":1310,"x_min":97,"x_max":1254,"o":"m 444 889 l 444 264 l 1254 264 l 1254 0 l 97 0 l 97 889 l 444 889 m 593 -393 l 574 -307 q 643 -281 614 -297 q 676 -246 672 -265 l 554 -231 l 554 -68 l 906 -68 l 906 -175 q 827 -316 906 -256 q 593 -393 749 -376 l 593 -393 z "},"Ŀ":{"ha":1310,"x_min":97,"x_max":1254,"o":"m 444 889 l 444 264 l 1254 264 l 1254 0 l 97 0 l 97 889 l 444 889 m 1001 678 l 1001 468 l 649 468 l 649 678 l 1001 678 z "},"Ł":{"ha":1310,"x_min":-32,"x_max":1254,"o":"m 444 889 l 444 264 l 1254 264 l 1254 0 l 97 0 l 97 889 l 444 889 m 535 703 l 586 629 l 17 240 l -32 314 l 535 703 z "},"M":{"ha":2194,"x_min":97,"x_max":2097,"o":"m 1200 106 l 992 106 l 1750 889 l 2097 889 l 2097 0 l 1750 0 l 1750 606 l 1854 563 l 1306 0 l 889 0 l 339 561 l 444 604 l 444 0 l 97 0 l 97 889 l 444 889 l 1200 106 z "},"N":{"ha":1806,"x_min":97,"x_max":1708,"o":"m 1490 272 l 1361 199 l 1361 889 l 1708 889 l 1708 0 l 1361 0 l 315 606 l 444 681 l 444 0 l 97 0 l 97 889 l 444 889 l 1490 272 z "},"Ń":{"ha":1806,"x_min":97,"x_max":1708,"o":"m 1490 272 l 1361 199 l 1361 889 l 1708 889 l 1708 0 l 1361 0 l 315 606 l 444 681 l 444 0 l 97 0 l 97 889 l 444 889 l 1490 272 m 711 961 l 992 1169 l 1436 1169 l 1046 961 l 711 961 z "},"Ň":{"ha":1806,"x_min":97,"x_max":1708,"o":"m 1490 272 l 1361 199 l 1361 889 l 1708 889 l 1708 0 l 1361 0 l 315 606 l 444 681 l 444 0 l 97 0 l 97 889 l 444 889 l 1490 272 m 1032 1000 l 771 999 l 1068 1169 l 1404 1169 l 1096 961 l 707 961 l 399 1169 l 733 1169 l 1032 1000 z "},"Ņ":{"ha":1806,"x_min":97,"x_max":1708,"o":"m 1490 272 l 1361 199 l 1361 889 l 1708 889 l 1708 0 l 1361 0 l 315 606 l 444 681 l 444 0 l 97 0 l 97 889 l 444 889 l 1490 272 m 768 -393 l 749 -307 q 818 -281 789 -297 q 851 -246 847 -265 l 729 -231 l 729 -68 l 1081 -68 l 1081 -175 q 1002 -316 1081 -256 q 768 -393 924 -376 l 768 -393 z "},"Ñ":{"ha":1806,"x_min":97,"x_max":1708,"o":"m 1490 272 l 1361 199 l 1361 889 l 1708 889 l 1708 0 l 1361 0 l 315 606 l 444 681 l 444 0 l 97 0 l 97 889 l 444 889 l 1490 272 m 1088 951 q 988 963 1033 951 q 903 990 943 975 q 822 1016 863 1004 q 738 1028 782 1028 q 681 1019 704 1028 q 638 996 657 1011 q 599 958 619 981 l 390 958 q 460 1058 417 1011 q 568 1136 504 1106 q 717 1167 632 1167 q 816 1155 772 1167 q 899 1128 860 1143 q 976 1102 938 1114 q 1058 1090 1014 1090 q 1124 1100 1097 1090 q 1169 1126 1150 1110 q 1206 1160 1189 1142 l 1414 1160 q 1344 1060 1389 1108 q 1237 982 1300 1013 q 1088 951 1174 951 z "},"Ŋ":{"ha":1806,"x_min":97,"x_max":1708,"o":"m 1490 272 l 1361 199 l 1361 889 l 1708 889 l 1708 -83 q 1672 -202 1708 -158 q 1574 -266 1635 -246 q 1440 -291 1513 -286 q 1297 -294 1368 -296 q 1167 -292 1225 -292 l 1167 -56 q 1266 -50 1222 -56 q 1335 -33 1310 -44 q 1361 0 1361 -21 l 315 606 l 444 681 l 444 0 l 97 0 l 97 889 l 444 889 l 1490 272 z "},"O":{"ha":1847,"x_min":83,"x_max":1764,"o":"m 924 -28 q 436 26 621 -28 q 167 184 251 79 q 83 444 83 289 q 167 705 83 600 q 436 863 251 810 q 924 917 621 917 q 1411 863 1226 917 q 1680 705 1596 810 q 1764 444 1764 600 q 1680 184 1764 289 q 1411 26 1596 79 q 924 -28 1226 -28 m 924 236 q 1171 253 1067 236 q 1332 316 1275 271 q 1389 444 1389 361 q 1332 573 1389 528 q 1171 635 1275 618 q 924 653 1067 653 q 673 635 781 653 q 505 573 565 618 q 444 444 444 528 q 505 316 444 361 q 673 253 565 271 q 924 236 781 236 z "},"Ó":{"ha":1847,"x_min":83,"x_max":1764,"o":"m 924 -28 q 436 26 621 -28 q 167 184 251 79 q 83 444 83 289 q 167 705 83 600 q 436 863 251 810 q 924 917 621 917 q 1411 863 1226 917 q 1680 705 1596 810 q 1764 444 1764 600 q 1680 184 1764 289 q 1411 26 1596 79 q 924 -28 1226 -28 m 924 236 q 1171 253 1067 236 q 1332 316 1275 271 q 1389 444 1389 361 q 1332 573 1389 528 q 1171 635 1275 618 q 924 653 1067 653 q 673 635 781 653 q 505 573 565 618 q 444 444 444 528 q 505 316 444 361 q 673 253 565 271 q 924 236 781 236 m 733 975 l 1014 1183 l 1458 1183 l 1068 975 l 733 975 z "},"Ô":{"ha":1847,"x_min":83,"x_max":1764,"o":"m 924 -28 q 436 26 621 -28 q 167 184 251 79 q 83 444 83 289 q 167 705 83 600 q 436 863 251 810 q 924 917 621 917 q 1411 863 1226 917 q 1680 705 1596 810 q 1764 444 1764 600 q 1680 184 1764 289 q 1411 26 1596 79 q 924 -28 1226 -28 m 924 236 q 1171 253 1067 236 q 1332 316 1275 271 q 1389 444 1389 361 q 1332 573 1389 528 q 1171 635 1275 618 q 924 653 1067 653 q 673 635 781 653 q 505 573 565 618 q 444 444 444 528 q 505 316 444 361 q 673 253 565 271 q 924 236 781 236 m 1118 1183 l 1426 975 l 1090 975 l 793 1146 l 1054 1144 l 756 975 l 421 975 l 729 1183 l 1118 1183 z "},"Ö":{"ha":1847,"x_min":83,"x_max":1764,"o":"m 924 -28 q 436 26 621 -28 q 167 184 251 79 q 83 444 83 289 q 167 705 83 600 q 436 863 251 810 q 924 917 621 917 q 1411 863 1226 917 q 1680 705 1596 810 q 1764 444 1764 600 q 1680 184 1764 289 q 1411 26 1596 79 q 924 -28 1226 -28 m 924 236 q 1171 253 1067 236 q 1332 316 1275 271 q 1389 444 1389 361 q 1332 573 1389 528 q 1171 635 1275 618 q 924 653 1067 653 q 673 635 781 653 q 505 573 565 618 q 444 444 444 528 q 505 316 444 361 q 673 253 565 271 q 924 236 781 236 m 915 1185 l 915 975 l 563 975 l 563 1185 l 915 1185 m 1339 1185 l 1339 975 l 986 975 l 986 1185 l 1339 1185 z "},"Ȯ":{"ha":1847,"x_min":83,"x_max":1764,"o":"m 924 -28 q 436 26 621 -28 q 167 184 251 79 q 83 444 83 289 q 167 705 83 600 q 436 863 251 810 q 924 917 621 917 q 1411 863 1226 917 q 1680 705 1596 810 q 1764 444 1764 600 q 1680 184 1764 289 q 1411 26 1596 79 q 924 -28 1226 -28 m 924 236 q 1171 253 1067 236 q 1332 316 1275 271 q 1389 444 1389 361 q 1332 573 1389 528 q 1171 635 1275 618 q 924 653 1067 653 q 673 635 781 653 q 505 573 565 618 q 444 444 444 528 q 505 316 444 361 q 673 253 565 271 q 924 236 781 236 m 1100 1185 l 1100 976 l 747 976 l 747 1185 l 1100 1185 z "},"Ò":{"ha":1847,"x_min":83,"x_max":1764,"o":"m 924 -28 q 436 26 621 -28 q 167 184 251 79 q 83 444 83 289 q 167 705 83 600 q 436 863 251 810 q 924 917 621 917 q 1411 863 1226 917 q 1680 705 1596 810 q 1764 444 1764 600 q 1680 184 1764 289 q 1411 26 1596 79 q 924 -28 1226 -28 m 924 236 q 1171 253 1067 236 q 1332 316 1275 271 q 1389 444 1389 361 q 1332 573 1389 528 q 1171 635 1275 618 q 924 653 1067 653 q 673 635 781 653 q 505 573 565 618 q 444 444 444 528 q 505 316 444 361 q 673 253 565 271 q 924 236 781 236 m 785 975 l 394 1183 l 839 1183 l 1119 975 l 785 975 z "},"Ő":{"ha":1847,"x_min":83,"x_max":1764,"o":"m 924 -28 q 436 26 621 -28 q 167 184 251 79 q 83 444 83 289 q 167 705 83 600 q 436 863 251 810 q 924 917 621 917 q 1411 863 1226 917 q 1680 705 1596 810 q 1764 444 1764 600 q 1680 184 1764 289 q 1411 26 1596 79 q 924 -28 1226 -28 m 924 236 q 1171 253 1067 236 q 1332 316 1275 271 q 1389 444 1389 361 q 1332 573 1389 528 q 1171 635 1275 618 q 924 653 1067 653 q 673 635 781 653 q 505 573 565 618 q 444 444 444 528 q 505 316 444 361 q 673 253 565 271 q 924 236 781 236 m 963 975 l 1176 1183 l 1460 1183 l 1200 975 l 963 975 m 582 975 l 769 1183 l 1051 1183 l 819 975 l 582 975 z "},"Ō":{"ha":1847,"x_min":83,"x_max":1764,"o":"m 924 -28 q 436 26 621 -28 q 167 184 251 79 q 83 444 83 289 q 167 705 83 600 q 436 863 251 810 q 924 917 621 917 q 1411 863 1226 917 q 1680 705 1596 810 q 1764 444 1764 600 q 1680 184 1764 289 q 1411 26 1596 79 q 924 -28 1226 -28 m 924 236 q 1171 253 1067 236 q 1332 316 1275 271 q 1389 444 1389 361 q 1332 573 1389 528 q 1171 635 1275 618 q 924 653 1067 653 q 673 635 781 653 q 505 573 565 618 q 444 444 444 528 q 505 316 444 361 q 673 253 565 271 q 924 236 781 236 m 608 976 l 608 1114 l 1239 1114 l 1239 976 l 608 976 z "},"Ø":{"ha":1847,"x_min":83,"x_max":1764,"o":"m 924 -28 q 436 26 621 -28 q 167 184 251 79 q 83 444 83 289 q 167 705 83 600 q 436 863 251 810 q 924 917 621 917 q 1411 863 1226 917 q 1680 705 1596 810 q 1764 444 1764 600 q 1680 184 1764 289 q 1411 26 1596 79 q 924 -28 1226 -28 m 924 236 q 1171 253 1067 236 q 1332 316 1275 271 q 1389 444 1389 361 q 1332 573 1389 528 q 1171 635 1275 618 q 924 653 1067 653 q 673 635 781 653 q 505 573 565 618 q 444 444 444 528 q 505 316 444 361 q 673 253 565 271 q 924 236 781 236 m 1188 1010 l 1263 968 l 658 -122 l 586 -78 l 1188 1010 z "},"Õ":{"ha":1847,"x_min":83,"x_max":1764,"o":"m 924 -28 q 436 26 621 -28 q 167 184 251 79 q 83 444 83 289 q 167 705 83 600 q 436 863 251 810 q 924 917 621 917 q 1411 863 1226 917 q 1680 705 1596 810 q 1764 444 1764 600 q 1680 184 1764 289 q 1411 26 1596 79 q 924 -28 1226 -28 m 924 236 q 1171 253 1067 236 q 1332 316 1275 271 q 1389 444 1389 361 q 1332 573 1389 528 q 1171 635 1275 618 q 924 653 1067 653 q 673 635 781 653 q 505 573 565 618 q 444 444 444 528 q 505 316 444 361 q 673 253 565 271 q 924 236 781 236 m 1110 965 q 1010 977 1056 965 q 925 1003 965 989 q 844 1030 885 1018 q 760 1042 804 1042 q 703 1033 726 1042 q 660 1010 679 1025 q 621 972 642 994 l 413 972 q 483 1072 439 1025 q 590 1150 526 1119 q 739 1181 654 1181 q 838 1169 794 1181 q 921 1142 882 1157 q 998 1116 960 1128 q 1081 1104 1036 1104 q 1146 1114 1119 1104 q 1192 1140 1172 1124 q 1228 1174 1211 1156 l 1436 1174 q 1367 1074 1411 1122 q 1259 996 1322 1026 q 1110 965 1196 965 z "},"Œ":{"ha":2725,"x_min":83,"x_max":2642,"o":"m 2642 264 l 2642 0 l 1175 0 l 1661 264 l 2642 264 m 2447 514 l 2447 375 l 1725 375 l 1725 514 l 2447 514 m 2639 889 l 2639 625 l 1669 625 l 1189 889 l 2639 889 m 924 -28 q 436 26 621 -28 q 167 184 251 79 q 83 444 83 289 q 167 705 83 600 q 436 863 251 810 q 924 917 621 917 q 1411 863 1226 917 q 1680 705 1596 810 q 1764 444 1764 600 q 1680 184 1764 289 q 1411 26 1596 79 q 924 -28 1226 -28 m 924 236 q 1171 253 1067 236 q 1332 316 1275 271 q 1389 444 1389 361 q 1332 573 1389 528 q 1171 635 1275 618 q 924 653 1067 653 q 673 635 781 653 q 505 573 565 618 q 444 444 444 528 q 505 316 444 361 q 673 253 565 271 q 924 236 781 236 z "},"P":{"ha":1635,"x_min":94,"x_max":1558,"o":"m 419 229 l 419 472 l 1113 472 q 1183 485 1154 472 q 1211 542 1211 499 q 1183 599 1211 586 q 1113 611 1154 611 l 442 611 l 442 0 l 94 0 l 94 889 l 1058 889 q 1253 874 1163 889 q 1413 822 1344 860 q 1519 717 1481 785 q 1558 542 1558 649 q 1519 372 1558 435 q 1413 279 1481 310 q 1253 239 1344 249 q 1058 229 1163 229 l 419 229 z "},"Þ":{"ha":1524,"x_min":94,"x_max":1447,"o":"m 947 764 q 1142 753 1051 764 q 1301 711 1233 743 q 1408 615 1369 679 q 1447 444 1447 551 q 1408 274 1447 338 q 1301 178 1369 210 q 1142 135 1233 146 q 947 125 1051 125 l 392 125 l 392 375 l 1001 375 q 1072 388 1043 375 q 1100 444 1100 401 q 1072 501 1100 489 q 1001 514 1043 514 l 392 514 l 392 764 l 947 764 m 94 889 l 442 889 l 442 0 l 94 0 l 94 889 z "},"Q":{"ha":1847,"x_min":83,"x_max":1764,"o":"m 757 60 l 1090 60 l 1090 -278 l 757 -278 l 757 60 m 924 -28 q 436 26 621 -28 q 167 184 251 79 q 83 444 83 289 q 167 705 83 600 q 436 863 251 810 q 924 917 621 917 q 1411 863 1226 917 q 1680 705 1596 810 q 1764 444 1764 600 q 1680 184 1764 289 q 1411 26 1596 79 q 924 -28 1226 -28 m 924 236 q 1171 253 1067 236 q 1332 316 1275 271 q 1389 444 1389 361 q 1332 573 1389 528 q 1171 635 1275 618 q 924 653 1067 653 q 673 635 781 653 q 505 573 565 618 q 444 444 444 528 q 505 316 444 361 q 673 253 565 271 q 924 236 781 236 z "},"R":{"ha":1711,"x_min":97,"x_max":1617,"o":"m 97 0 l 97 889 l 1171 889 q 1398 860 1297 889 q 1558 765 1499 832 q 1617 583 1617 699 q 1589 457 1617 507 q 1513 379 1561 407 q 1401 339 1464 351 q 1271 324 1339 326 l 1169 343 q 1424 329 1335 342 q 1549 284 1514 317 q 1585 190 1585 251 l 1585 0 l 1238 0 l 1238 149 q 1222 212 1238 190 q 1152 242 1206 233 q 988 250 1099 250 l 444 250 l 444 0 l 97 0 m 444 482 l 1171 482 q 1241 496 1213 482 q 1269 549 1269 510 q 1241 598 1269 585 q 1171 611 1213 611 l 444 611 l 444 482 z "},"Ŕ":{"ha":1711,"x_min":97,"x_max":1617,"o":"m 97 0 l 97 889 l 1171 889 q 1398 860 1297 889 q 1558 765 1499 832 q 1617 583 1617 699 q 1589 457 1617 507 q 1513 379 1561 407 q 1401 339 1464 351 q 1271 324 1339 326 l 1169 343 q 1424 329 1335 342 q 1549 284 1514 317 q 1585 190 1585 251 l 1585 0 l 1238 0 l 1238 149 q 1222 212 1238 190 q 1152 242 1206 233 q 988 250 1099 250 l 444 250 l 444 0 l 97 0 m 444 482 l 1171 482 q 1241 496 1213 482 q 1269 549 1269 510 q 1241 598 1269 585 q 1171 611 1213 611 l 444 611 l 444 482 m 628 961 l 908 1169 l 1353 1169 l 963 961 l 628 961 z "},"Ř":{"ha":1711,"x_min":97,"x_max":1617,"o":"m 97 0 l 97 889 l 1171 889 q 1398 860 1297 889 q 1558 765 1499 832 q 1617 583 1617 699 q 1589 457 1617 507 q 1513 379 1561 407 q 1401 339 1464 351 q 1271 324 1339 326 l 1169 343 q 1424 329 1335 342 q 1549 284 1514 317 q 1585 190 1585 251 l 1585 0 l 1238 0 l 1238 149 q 1222 212 1238 190 q 1152 242 1206 233 q 988 250 1099 250 l 444 250 l 444 0 l 97 0 m 444 482 l 1171 482 q 1241 496 1213 482 q 1269 549 1269 510 q 1241 598 1269 585 q 1171 611 1213 611 l 444 611 l 444 482 m 949 1000 l 688 999 l 985 1169 l 1321 1169 l 1013 961 l 624 961 l 315 1169 l 650 1169 l 949 1000 z "},"Ŗ":{"ha":1711,"x_min":97,"x_max":1617,"o":"m 97 0 l 97 889 l 1171 889 q 1398 860 1297 889 q 1558 765 1499 832 q 1617 583 1617 699 q 1589 457 1617 507 q 1513 379 1561 407 q 1401 339 1464 351 q 1271 324 1339 326 l 1169 343 q 1424 329 1335 342 q 1549 284 1514 317 q 1585 190 1585 251 l 1585 0 l 1238 0 l 1238 149 q 1222 212 1238 190 q 1152 242 1206 233 q 988 250 1099 250 l 444 250 l 444 0 l 97 0 m 444 482 l 1171 482 q 1241 496 1213 482 q 1269 549 1269 510 q 1241 598 1269 585 q 1171 611 1213 611 l 444 611 l 444 482 m 685 -414 l 665 -328 q 735 -302 706 -318 q 768 -267 764 -286 l 646 -251 l 646 -89 l 997 -89 l 997 -196 q 919 -337 997 -276 q 685 -414 840 -397 l 685 -414 z "},"S":{"ha":1467,"x_min":49,"x_max":1411,"o":"m 49 326 l 428 326 q 485 277 438 297 q 612 247 532 257 q 797 236 692 236 q 962 242 901 236 q 1047 265 1022 249 q 1072 308 1072 281 q 1032 349 1072 335 q 889 369 992 364 q 600 375 786 375 q 360 388 461 375 q 195 430 260 401 q 100 502 131 458 q 69 607 69 546 q 141 781 69 713 q 358 884 213 850 q 721 918 503 918 q 1209 826 1040 918 q 1378 560 1378 733 l 1018 560 q 932 630 1011 606 q 707 654 853 654 q 492 638 563 654 q 422 581 422 621 q 442 547 422 560 q 509 527 461 535 q 644 517 557 519 q 867 514 732 514 q 1119 499 1015 514 q 1288 456 1224 485 q 1382 381 1353 426 q 1411 275 1411 336 q 1344 103 1411 169 q 1133 4 1278 36 q 756 -28 989 -28 q 513 -12 624 -28 q 317 33 403 3 q 171 106 231 63 q 80 205 111 150 q 49 326 49 260 z "},"Ś":{"ha":1467,"x_min":49,"x_max":1411,"o":"m 49 326 l 428 326 q 485 277 438 297 q 612 247 532 257 q 797 236 692 236 q 962 242 901 236 q 1047 265 1022 249 q 1072 308 1072 281 q 1032 349 1072 335 q 889 369 992 364 q 600 375 786 375 q 360 388 461 375 q 195 430 260 401 q 100 502 131 458 q 69 607 69 546 q 141 781 69 713 q 358 884 213 850 q 721 918 503 918 q 1209 826 1040 918 q 1378 560 1378 733 l 1018 560 q 932 630 1011 606 q 707 654 853 654 q 492 638 563 654 q 422 581 422 621 q 442 547 422 560 q 509 527 461 535 q 644 517 557 519 q 867 514 732 514 q 1119 499 1015 514 q 1288 456 1224 485 q 1382 381 1353 426 q 1411 275 1411 336 q 1344 103 1411 169 q 1133 4 1278 36 q 756 -28 989 -28 q 513 -12 624 -28 q 317 33 403 3 q 171 106 231 63 q 80 205 111 150 q 49 326 49 260 m 525 975 l 806 1183 l 1250 1183 l 860 975 l 525 975 z "},"Š":{"ha":1467,"x_min":49,"x_max":1411,"o":"m 49 326 l 428 326 q 485 277 438 297 q 612 247 532 257 q 797 236 692 236 q 962 242 901 236 q 1047 265 1022 249 q 1072 308 1072 281 q 1032 349 1072 335 q 889 369 992 364 q 600 375 786 375 q 360 388 461 375 q 195 430 260 401 q 100 502 131 458 q 69 607 69 546 q 141 781 69 713 q 358 884 213 850 q 721 918 503 918 q 1209 826 1040 918 q 1378 560 1378 733 l 1018 560 q 932 630 1011 606 q 707 654 853 654 q 492 638 563 654 q 422 581 422 621 q 442 547 422 560 q 509 527 461 535 q 644 517 557 519 q 867 514 732 514 q 1119 499 1015 514 q 1288 456 1224 485 q 1382 381 1353 426 q 1411 275 1411 336 q 1344 103 1411 169 q 1133 4 1278 36 q 756 -28 989 -28 q 513 -12 624 -28 q 317 33 403 3 q 171 106 231 63 q 80 205 111 150 q 49 326 49 260 m 846 1014 l 585 1013 l 882 1183 l 1218 1183 l 910 975 l 521 975 l 213 1183 l 547 1183 l 846 1014 z "},"Ş":{"ha":1467,"x_min":49,"x_max":1411,"o":"m 593 -172 q 608 -187 597 -176 q 641 -206 618 -197 q 704 -215 664 -215 q 765 -205 744 -215 q 785 -176 785 -194 q 776 -153 785 -165 q 738 -131 768 -142 q 639 -111 707 -119 l 868 -79 q 975 -103 928 -89 q 1051 -144 1022 -118 q 1079 -212 1079 -169 q 984 -335 1079 -289 q 713 -382 889 -382 q 520 -352 599 -382 q 400 -274 442 -322 q 351 -172 358 -225 l 593 -172 m 639 6 l 875 6 l 875 -139 l 639 -111 l 639 6 m 49 326 l 428 326 q 485 277 438 297 q 612 247 532 257 q 797 236 692 236 q 962 242 901 236 q 1047 265 1022 249 q 1072 308 1072 281 q 1032 349 1072 335 q 889 369 992 364 q 600 375 786 375 q 360 388 461 375 q 195 430 260 401 q 100 502 131 458 q 69 607 69 546 q 141 781 69 713 q 358 884 213 850 q 721 918 503 918 q 1209 826 1040 918 q 1378 560 1378 733 l 1018 560 q 932 630 1011 606 q 707 654 853 654 q 492 638 563 654 q 422 581 422 621 q 442 547 422 560 q 509 527 461 535 q 644 517 557 519 q 867 514 732 514 q 1119 499 1015 514 q 1288 456 1224 485 q 1382 381 1353 426 q 1411 275 1411 336 q 1344 103 1411 169 q 1133 4 1278 36 q 756 -28 989 -28 q 513 -12 624 -28 q 317 33 403 3 q 171 106 231 63 q 80 205 111 150 q 49 326 49 260 z "},"Ș":{"ha":1467,"x_min":49,"x_max":1411,"o":"m 49 326 l 428 326 q 485 277 438 297 q 612 247 532 257 q 797 236 692 236 q 962 242 901 236 q 1047 265 1022 249 q 1072 308 1072 281 q 1032 349 1072 335 q 889 369 992 364 q 600 375 786 375 q 360 388 461 375 q 195 430 260 401 q 100 502 131 458 q 69 607 69 546 q 141 781 69 713 q 358 884 213 850 q 721 918 503 918 q 1209 826 1040 918 q 1378 560 1378 733 l 1018 560 q 932 630 1011 606 q 707 654 853 654 q 492 638 563 654 q 422 581 422 621 q 442 547 422 560 q 509 527 461 535 q 644 517 557 519 q 867 514 732 514 q 1119 499 1015 514 q 1288 456 1224 485 q 1382 381 1353 426 q 1411 275 1411 336 q 1344 103 1411 169 q 1133 4 1278 36 q 756 -28 989 -28 q 513 -12 624 -28 q 317 33 403 3 q 171 106 231 63 q 80 205 111 150 q 49 326 49 260 m 624 -414 l 604 -328 q 674 -302 644 -318 q 707 -267 703 -286 l 585 -251 l 585 -89 l 936 -89 l 936 -196 q 858 -337 936 -276 q 624 -414 779 -397 l 624 -414 z "},"T":{"ha":1528,"x_min":42,"x_max":1486,"o":"m 42 889 l 1486 889 l 1486 625 l 42 625 l 42 889 m 590 643 l 938 643 l 938 0 l 590 0 l 590 643 z "},"Ŧ":{"ha":1528,"x_min":42,"x_max":1486,"o":"m 125 393 l 125 497 l 1403 497 l 1403 393 l 125 393 m 42 889 l 1486 889 l 1486 625 l 42 625 l 42 889 m 590 643 l 938 643 l 938 0 l 590 0 l 590 643 z "},"Ť":{"ha":1528,"x_min":42,"x_max":1486,"o":"m 42 889 l 1486 889 l 1486 625 l 42 625 l 42 889 m 590 643 l 938 643 l 938 0 l 590 0 l 590 643 m 894 1000 l 633 999 l 931 1169 l 1267 1169 l 958 961 l 569 961 l 261 1169 l 596 1169 l 894 1000 z "},"Ţ":{"ha":1528,"x_min":42,"x_max":1486,"o":"m 600 -151 q 615 -166 604 -156 q 648 -185 625 -176 q 711 -194 671 -194 q 772 -184 751 -194 q 792 -156 792 -174 q 783 -133 792 -144 q 744 -110 775 -121 q 646 -90 714 -99 l 875 -58 q 982 -83 935 -68 q 1058 -123 1029 -97 q 1086 -192 1086 -149 q 991 -315 1086 -268 q 719 -361 896 -361 q 527 -331 606 -361 q 407 -253 449 -301 q 358 -151 365 -204 l 600 -151 m 646 26 l 882 26 l 882 -118 l 646 -90 l 646 26 m 42 889 l 1486 889 l 1486 625 l 42 625 l 42 889 m 590 643 l 938 643 l 938 0 l 590 0 l 590 643 z "},"Ț":{"ha":1528,"x_min":42,"x_max":1486,"o":"m 42 889 l 1486 889 l 1486 625 l 42 625 l 42 889 m 590 643 l 938 643 l 938 0 l 590 0 l 590 643 m 631 -393 l 611 -307 q 681 -281 651 -297 q 714 -246 710 -265 l 592 -231 l 592 -68 l 943 -68 l 943 -175 q 865 -316 943 -256 q 631 -393 786 -376 l 631 -393 z "},"U":{"ha":1790,"x_min":97,"x_max":1693,"o":"m 1346 507 l 1346 889 l 1693 889 l 1693 444 q 1649 244 1693 326 q 1528 108 1606 161 q 1349 25 1450 54 q 1131 -16 1247 -4 q 896 -28 1015 -28 q 651 -16 769 -28 q 433 25 533 -4 q 257 108 332 54 q 140 244 182 161 q 97 444 97 326 l 97 889 l 444 889 l 444 507 q 499 338 444 396 q 653 258 553 279 q 896 236 754 236 q 1135 258 1033 236 q 1291 338 1236 279 q 1346 507 1346 396 z "},"Ú":{"ha":1790,"x_min":97,"x_max":1693,"o":"m 1346 507 l 1346 889 l 1693 889 l 1693 444 q 1649 244 1693 326 q 1528 108 1606 161 q 1349 25 1450 54 q 1131 -16 1247 -4 q 896 -28 1015 -28 q 651 -16 769 -28 q 433 25 533 -4 q 257 108 332 54 q 140 244 182 161 q 97 444 97 326 l 97 889 l 444 889 l 444 507 q 499 338 444 396 q 653 258 553 279 q 896 236 754 236 q 1135 258 1033 236 q 1291 338 1236 279 q 1346 507 1346 396 m 706 961 l 986 1169 l 1431 1169 l 1040 961 l 706 961 z "},"Û":{"ha":1790,"x_min":97,"x_max":1693,"o":"m 1346 507 l 1346 889 l 1693 889 l 1693 444 q 1649 244 1693 326 q 1528 108 1606 161 q 1349 25 1450 54 q 1131 -16 1247 -4 q 896 -28 1015 -28 q 651 -16 769 -28 q 433 25 533 -4 q 257 108 332 54 q 140 244 182 161 q 97 444 97 326 l 97 889 l 444 889 l 444 507 q 499 338 444 396 q 653 258 553 279 q 896 236 754 236 q 1135 258 1033 236 q 1291 338 1236 279 q 1346 507 1346 396 m 1090 1169 l 1399 961 l 1063 961 l 765 1132 l 1026 1131 l 728 961 l 393 961 l 701 1169 l 1090 1169 z "},"Ü":{"ha":1790,"x_min":97,"x_max":1693,"o":"m 1346 507 l 1346 889 l 1693 889 l 1693 444 q 1649 244 1693 326 q 1528 108 1606 161 q 1349 25 1450 54 q 1131 -16 1247 -4 q 896 -28 1015 -28 q 651 -16 769 -28 q 433 25 533 -4 q 257 108 332 54 q 140 244 182 161 q 97 444 97 326 l 97 889 l 444 889 l 444 507 q 499 338 444 396 q 653 258 553 279 q 896 236 754 236 q 1135 258 1033 236 q 1291 338 1236 279 q 1346 507 1346 396 m 860 890 l 860 681 l 507 681 l 507 890 l 860 890 m 1282 890 l 1282 681 l 929 681 l 929 890 l 1282 890 z "},"Ù":{"ha":1790,"x_min":97,"x_max":1693,"o":"m 1346 507 l 1346 889 l 1693 889 l 1693 444 q 1649 244 1693 326 q 1528 108 1606 161 q 1349 25 1450 54 q 1131 -16 1247 -4 q 896 -28 1015 -28 q 651 -16 769 -28 q 433 25 533 -4 q 257 108 332 54 q 140 244 182 161 q 97 444 97 326 l 97 889 l 444 889 l 444 507 q 499 338 444 396 q 653 258 553 279 q 896 236 754 236 q 1135 258 1033 236 q 1291 338 1236 279 q 1346 507 1346 396 m 757 961 l 367 1169 l 811 1169 l 1092 961 l 757 961 z "},"Ű":{"ha":1790,"x_min":97,"x_max":1693,"o":"m 1346 507 l 1346 889 l 1693 889 l 1693 444 q 1649 244 1693 326 q 1528 108 1606 161 q 1349 25 1450 54 q 1131 -16 1247 -4 q 896 -28 1015 -28 q 651 -16 769 -28 q 433 25 533 -4 q 257 108 332 54 q 140 244 182 161 q 97 444 97 326 l 97 889 l 444 889 l 444 507 q 499 338 444 396 q 653 258 553 279 q 896 236 754 236 q 1135 258 1033 236 q 1291 338 1236 279 q 1346 507 1346 396 m 935 961 l 1149 1169 l 1432 1169 l 1172 961 l 935 961 m 554 961 l 742 1169 l 1024 1169 l 792 961 l 554 961 z "},"Ū":{"ha":1790,"x_min":97,"x_max":1693,"o":"m 1346 507 l 1346 889 l 1693 889 l 1693 444 q 1649 244 1693 326 q 1528 108 1606 161 q 1349 25 1450 54 q 1131 -16 1247 -4 q 896 -28 1015 -28 q 651 -16 769 -28 q 433 25 533 -4 q 257 108 332 54 q 140 244 182 161 q 97 444 97 326 l 97 889 l 444 889 l 444 507 q 499 338 444 396 q 653 258 553 279 q 896 236 754 236 q 1135 258 1033 236 q 1291 338 1236 279 q 1346 507 1346 396 m 581 963 l 581 1100 l 1211 1100 l 1211 963 l 581 963 z "},"Ų":{"ha":1790,"x_min":97,"x_max":1693,"o":"m 1365 -354 q 1010 -304 1139 -354 q 881 -167 881 -254 q 936 -65 881 -101 q 1088 -7 992 -28 q 1308 31 1185 14 l 1308 14 q 1176 -39 1221 -12 q 1131 -111 1131 -65 q 1163 -172 1131 -149 q 1249 -207 1196 -196 q 1365 -218 1303 -218 l 1365 -354 m 1346 507 l 1346 889 l 1693 889 l 1693 444 q 1649 244 1693 326 q 1528 108 1606 161 q 1349 25 1450 54 q 1131 -16 1247 -4 q 896 -28 1015 -28 q 651 -16 769 -28 q 433 25 533 -4 q 257 108 332 54 q 140 244 182 161 q 97 444 97 326 l 97 889 l 444 889 l 444 507 q 499 338 444 396 q 653 258 553 279 q 896 236 754 236 q 1135 258 1033 236 q 1291 338 1236 279 q 1346 507 1346 396 z "},"Ů":{"ha":1790,"x_min":97,"x_max":1693,"o":"m 1346 507 l 1346 889 l 1693 889 l 1693 444 q 1649 244 1693 326 q 1528 108 1606 161 q 1349 25 1450 54 q 1131 -16 1247 -4 q 896 -28 1015 -28 q 651 -16 769 -28 q 433 25 533 -4 q 257 108 332 54 q 140 244 182 161 q 97 444 97 326 l 97 889 l 444 889 l 444 507 q 499 338 444 396 q 653 258 553 279 q 896 236 754 236 q 1135 258 1033 236 q 1291 338 1236 279 q 1346 507 1346 396 m 896 926 q 719 969 776 926 q 661 1082 661 1011 q 719 1194 661 1151 q 896 1236 776 1236 q 1072 1194 1014 1236 q 1131 1082 1131 1151 q 1072 969 1131 1011 q 896 926 1014 926 m 896 1017 q 974 1031 951 1017 q 997 1082 997 1044 q 974 1132 997 1118 q 896 1146 951 1146 q 816 1132 839 1146 q 793 1082 793 1118 q 816 1031 793 1044 q 896 1017 839 1017 z "},"V":{"ha":1611,"x_min":28,"x_max":1583,"o":"m 567 0 l 28 889 l 419 889 l 879 35 l 738 35 l 1197 889 l 1583 889 l 1050 0 l 567 0 z "},"W":{"ha":2614,"x_min":28,"x_max":2586,"o":"m 525 0 l 28 889 l 419 889 l 839 63 l 707 60 l 1100 889 l 1519 889 l 1913 60 l 1781 63 l 2200 889 l 2586 889 l 2094 0 l 1625 0 l 1242 749 l 1378 749 l 994 0 l 525 0 z "},"Ẃ":{"ha":2614,"x_min":28,"x_max":2586,"o":"m 525 0 l 28 889 l 419 889 l 839 63 l 707 60 l 1100 889 l 1519 889 l 1913 60 l 1781 63 l 2200 889 l 2586 889 l 2094 0 l 1625 0 l 1242 749 l 1378 749 l 994 0 l 525 0 m 1129 1031 l 1410 1239 l 1854 1239 l 1464 1031 l 1129 1031 z "},"Ŵ":{"ha":2614,"x_min":28,"x_max":2586,"o":"m 525 0 l 28 889 l 419 889 l 839 63 l 707 60 l 1100 889 l 1519 889 l 1913 60 l 1781 63 l 2200 889 l 2586 889 l 2094 0 l 1625 0 l 1242 749 l 1378 749 l 994 0 l 525 0 m 1514 1239 l 1822 1031 l 1486 1031 l 1189 1201 l 1450 1200 l 1151 1031 l 817 1031 l 1125 1239 l 1514 1239 z "},"Ẅ":{"ha":2614,"x_min":28,"x_max":2586,"o":"m 525 0 l 28 889 l 419 889 l 839 63 l 707 60 l 1100 889 l 1519 889 l 1913 60 l 1781 63 l 2200 889 l 2586 889 l 2094 0 l 1625 0 l 1242 749 l 1378 749 l 994 0 l 525 0 m 953 1024 l 953 814 l 600 814 l 600 1024 l 953 1024 m 2086 1025 l 2086 815 l 1733 815 l 1733 1025 l 2086 1025 z "},"Ẁ":{"ha":2614,"x_min":28,"x_max":2586,"o":"m 525 0 l 28 889 l 419 889 l 839 63 l 707 60 l 1100 889 l 1519 889 l 1913 60 l 1781 63 l 2200 889 l 2586 889 l 2094 0 l 1625 0 l 1242 749 l 1378 749 l 994 0 l 525 0 m 1181 1031 l 790 1239 l 1235 1239 l 1515 1031 l 1181 1031 z "},"X":{"ha":1583,"x_min":42,"x_max":1542,"o":"m 1083 889 l 1528 889 l 903 361 l 889 350 l 486 0 l 42 0 l 694 547 l 704 556 l 1083 889 m 500 889 l 890 546 l 899 538 l 1542 0 l 1097 0 l 678 363 l 672 368 l 56 889 l 500 889 z "},"Y":{"ha":1486,"x_min":7,"x_max":1479,"o":"m 1479 889 l 917 226 l 917 0 l 569 0 l 569 226 l 7 889 l 417 889 l 874 313 l 617 313 l 1069 889 l 1479 889 z "},"Ý":{"ha":1486,"x_min":7,"x_max":1479,"o":"m 1479 889 l 917 226 l 917 0 l 569 0 l 569 226 l 7 889 l 417 889 l 874 313 l 617 313 l 1069 889 l 1479 889 m 553 961 l 833 1169 l 1278 1169 l 888 961 l 553 961 z "},"Ŷ":{"ha":1486,"x_min":7,"x_max":1479,"o":"m 1479 889 l 917 226 l 917 0 l 569 0 l 569 226 l 7 889 l 417 889 l 874 313 l 617 313 l 1069 889 l 1479 889 m 938 1169 l 1246 961 l 910 961 l 613 1132 l 874 1131 l 575 961 l 240 961 l 549 1169 l 938 1169 z "},"Ÿ":{"ha":1486,"x_min":7,"x_max":1479,"o":"m 1479 889 l 917 226 l 917 0 l 569 0 l 569 226 l 7 889 l 417 889 l 874 313 l 617 313 l 1069 889 l 1479 889 m 708 1171 l 708 961 l 356 961 l 356 1171 l 708 1171 m 1131 1171 l 1131 961 l 778 961 l 778 1171 l 1131 1171 z "},"Ỳ":{"ha":1486,"x_min":7,"x_max":1479,"o":"m 1479 889 l 917 226 l 917 0 l 569 0 l 569 226 l 7 889 l 417 889 l 874 313 l 617 313 l 1069 889 l 1479 889 m 604 961 l 214 1169 l 658 1169 l 939 961 l 604 961 z "},"Z":{"ha":1667,"x_min":97,"x_max":1569,"o":"m 97 889 l 1569 889 l 1569 625 l 558 207 l 547 264 l 1569 264 l 1569 0 l 97 0 l 97 264 l 1113 682 l 1124 625 l 97 625 l 97 889 z "},"Ź":{"ha":1667,"x_min":97,"x_max":1569,"o":"m 97 889 l 1569 889 l 1569 625 l 558 207 l 547 264 l 1569 264 l 1569 0 l 97 0 l 97 264 l 1113 682 l 1124 625 l 97 625 l 97 889 m 643 1031 l 924 1239 l 1368 1239 l 978 1031 l 643 1031 z "},"Ž":{"ha":1667,"x_min":97,"x_max":1569,"o":"m 97 889 l 1569 889 l 1569 625 l 558 207 l 547 264 l 1569 264 l 1569 0 l 97 0 l 97 264 l 1113 682 l 1124 625 l 97 625 l 97 889 m 964 1069 l 703 1068 l 1000 1239 l 1336 1239 l 1028 1031 l 639 1031 l 331 1239 l 665 1239 l 964 1069 z "},"Ż":{"ha":1667,"x_min":97,"x_max":1569,"o":"m 97 889 l 1569 889 l 1569 625 l 558 207 l 547 264 l 1569 264 l 1569 0 l 97 0 l 97 264 l 1113 682 l 1124 625 l 97 625 l 97 889 m 1010 1240 l 1010 1032 l 657 1032 l 657 1240 l 1010 1240 z "},"a":{"ha":1476,"x_min":49,"x_max":1414,"o":"m 567 -19 q 300 23 417 -19 q 116 146 183 65 q 49 340 49 226 q 116 540 49 460 q 300 661 183 621 q 567 701 417 701 q 855 656 733 701 q 1042 530 976 611 q 1108 340 1108 449 q 1071 194 1108 260 q 963 80 1033 128 q 792 6 892 32 q 567 -19 692 -19 m 692 192 q 885 205 797 192 q 1027 250 974 218 q 1081 340 1081 282 q 1027 432 1081 400 q 885 476 974 464 q 692 489 797 489 q 472 452 550 489 q 394 340 394 415 q 429 258 394 292 q 531 208 464 225 q 692 192 597 192 m 1081 681 l 1414 681 l 1414 0 l 1100 0 q 1095 32 1100 0 q 1085 124 1090 64 q 1081 264 1081 183 l 1081 681 z "},"á":{"ha":1476,"x_min":49,"x_max":1414,"o":"m 567 -19 q 300 23 417 -19 q 116 146 183 65 q 49 340 49 226 q 116 540 49 460 q 300 661 183 621 q 567 701 417 701 q 855 656 733 701 q 1042 530 976 611 q 1108 340 1108 449 q 1071 194 1108 260 q 963 80 1033 128 q 792 6 892 32 q 567 -19 692 -19 m 692 192 q 885 205 797 192 q 1027 250 974 218 q 1081 340 1081 282 q 1027 432 1081 400 q 885 476 974 464 q 692 489 797 489 q 472 452 550 489 q 394 340 394 415 q 429 258 394 292 q 531 208 464 225 q 692 192 597 192 m 1081 681 l 1414 681 l 1414 0 l 1100 0 q 1095 32 1100 0 q 1085 124 1090 64 q 1081 264 1081 183 l 1081 681 m 524 836 l 804 1044 l 1249 1044 l 858 836 l 524 836 z "},"ă":{"ha":1476,"x_min":49,"x_max":1414,"o":"m 567 -19 q 300 23 417 -19 q 116 146 183 65 q 49 340 49 226 q 116 540 49 460 q 300 661 183 621 q 567 701 417 701 q 855 656 733 701 q 1042 530 976 611 q 1108 340 1108 449 q 1071 194 1108 260 q 963 80 1033 128 q 792 6 892 32 q 567 -19 692 -19 m 692 192 q 885 205 797 192 q 1027 250 974 218 q 1081 340 1081 282 q 1027 432 1081 400 q 885 476 974 464 q 692 489 797 489 q 472 452 550 489 q 394 340 394 415 q 429 258 394 292 q 531 208 464 225 q 692 192 597 192 m 1081 681 l 1414 681 l 1414 0 l 1100 0 q 1095 32 1100 0 q 1085 124 1090 64 q 1081 264 1081 183 l 1081 681 m 1235 1014 q 1144 913 1207 958 q 976 841 1082 868 q 714 814 871 814 q 451 841 557 814 q 283 913 346 868 q 193 1014 221 958 l 401 1014 q 506 974 432 994 q 714 953 579 953 q 922 974 849 953 q 1026 1014 994 994 l 1235 1014 z "},"â":{"ha":1476,"x_min":49,"x_max":1414,"o":"m 567 -19 q 300 23 417 -19 q 116 146 183 65 q 49 340 49 226 q 116 540 49 460 q 300 661 183 621 q 567 701 417 701 q 855 656 733 701 q 1042 530 976 611 q 1108 340 1108 449 q 1071 194 1108 260 q 963 80 1033 128 q 792 6 892 32 q 567 -19 692 -19 m 692 192 q 885 205 797 192 q 1027 250 974 218 q 1081 340 1081 282 q 1027 432 1081 400 q 885 476 974 464 q 692 489 797 489 q 472 452 550 489 q 394 340 394 415 q 429 258 394 292 q 531 208 464 225 q 692 192 597 192 m 1081 681 l 1414 681 l 1414 0 l 1100 0 q 1095 32 1100 0 q 1085 124 1090 64 q 1081 264 1081 183 l 1081 681 m 908 1044 l 1217 836 l 881 836 l 583 1007 l 844 1006 l 546 836 l 211 836 l 519 1044 l 908 1044 z "},"ä":{"ha":1476,"x_min":49,"x_max":1414,"o":"m 567 -19 q 300 23 417 -19 q 116 146 183 65 q 49 340 49 226 q 116 540 49 460 q 300 661 183 621 q 567 701 417 701 q 855 656 733 701 q 1042 530 976 611 q 1108 340 1108 449 q 1071 194 1108 260 q 963 80 1033 128 q 792 6 892 32 q 567 -19 692 -19 m 692 192 q 885 205 797 192 q 1027 250 974 218 q 1081 340 1081 282 q 1027 432 1081 400 q 885 476 974 464 q 692 489 797 489 q 472 452 550 489 q 394 340 394 415 q 429 258 394 292 q 531 208 464 225 q 692 192 597 192 m 1081 681 l 1414 681 l 1414 0 l 1100 0 q 1095 32 1100 0 q 1085 124 1090 64 q 1081 264 1081 183 l 1081 681 m 679 1046 l 679 836 l 326 836 l 326 1046 l 679 1046 m 1101 1046 l 1101 836 l 749 836 l 749 1046 l 1101 1046 z "},"à":{"ha":1476,"x_min":49,"x_max":1414,"o":"m 567 -19 q 300 23 417 -19 q 116 146 183 65 q 49 340 49 226 q 116 540 49 460 q 300 661 183 621 q 567 701 417 701 q 855 656 733 701 q 1042 530 976 611 q 1108 340 1108 449 q 1071 194 1108 260 q 963 80 1033 128 q 792 6 892 32 q 567 -19 692 -19 m 692 192 q 885 205 797 192 q 1027 250 974 218 q 1081 340 1081 282 q 1027 432 1081 400 q 885 476 974 464 q 692 489 797 489 q 472 452 550 489 q 394 340 394 415 q 429 258 394 292 q 531 208 464 225 q 692 192 597 192 m 1081 681 l 1414 681 l 1414 0 l 1100 0 q 1095 32 1100 0 q 1085 124 1090 64 q 1081 264 1081 183 l 1081 681 m 575 836 l 185 1044 l 629 1044 l 910 836 l 575 836 z "},"ā":{"ha":1476,"x_min":49,"x_max":1414,"o":"m 567 -19 q 300 23 417 -19 q 116 146 183 65 q 49 340 49 226 q 116 540 49 460 q 300 661 183 621 q 567 701 417 701 q 855 656 733 701 q 1042 530 976 611 q 1108 340 1108 449 q 1071 194 1108 260 q 963 80 1033 128 q 792 6 892 32 q 567 -19 692 -19 m 692 192 q 885 205 797 192 q 1027 250 974 218 q 1081 340 1081 282 q 1027 432 1081 400 q 885 476 974 464 q 692 489 797 489 q 472 452 550 489 q 394 340 394 415 q 429 258 394 292 q 531 208 464 225 q 692 192 597 192 m 1081 681 l 1414 681 l 1414 0 l 1100 0 q 1095 32 1100 0 q 1085 124 1090 64 q 1081 264 1081 183 l 1081 681 m 399 838 l 399 975 l 1029 975 l 1029 838 l 399 838 z "},"ą":{"ha":1476,"x_min":49,"x_max":1414,"o":"m 1344 -333 q 989 -283 1118 -333 q 860 -146 860 -233 q 915 -45 860 -81 q 1067 7 971 -10 q 1288 31 1164 24 l 1288 0 q 1155 -27 1200 -10 q 1110 -90 1110 -44 q 1142 -151 1110 -128 q 1228 -186 1175 -175 q 1344 -197 1282 -197 l 1344 -333 m 567 -19 q 300 23 417 -19 q 116 146 183 65 q 49 340 49 226 q 116 540 49 460 q 300 661 183 621 q 567 701 417 701 q 855 656 733 701 q 1042 530 976 611 q 1108 340 1108 449 q 1071 194 1108 260 q 963 80 1033 128 q 792 6 892 32 q 567 -19 692 -19 m 692 192 q 885 205 797 192 q 1027 250 974 218 q 1081 340 1081 282 q 1027 432 1081 400 q 885 476 974 464 q 692 489 797 489 q 472 452 550 489 q 394 340 394 415 q 429 258 394 292 q 531 208 464 225 q 692 192 597 192 m 1081 681 l 1414 681 l 1414 0 l 1100 0 q 1095 32 1100 0 q 1085 124 1090 64 q 1081 264 1081 183 l 1081 681 z "},"å":{"ha":1476,"x_min":49,"x_max":1414,"o":"m 567 -19 q 300 23 417 -19 q 116 146 183 65 q 49 340 49 226 q 116 540 49 460 q 300 661 183 621 q 567 701 417 701 q 855 656 733 701 q 1042 530 976 611 q 1108 340 1108 449 q 1071 194 1108 260 q 963 80 1033 128 q 792 6 892 32 q 567 -19 692 -19 m 692 192 q 885 205 797 192 q 1027 250 974 218 q 1081 340 1081 282 q 1027 432 1081 400 q 885 476 974 464 q 692 489 797 489 q 472 452 550 489 q 394 340 394 415 q 429 258 394 292 q 531 208 464 225 q 692 192 597 192 m 1081 681 l 1414 681 l 1414 0 l 1100 0 q 1095 32 1100 0 q 1085 124 1090 64 q 1081 264 1081 183 l 1081 681 m 714 801 q 537 844 594 801 q 479 957 479 886 q 537 1069 479 1026 q 714 1111 594 1111 q 890 1069 832 1111 q 949 957 949 1026 q 890 844 949 886 q 714 801 832 801 m 714 892 q 792 906 769 892 q 815 957 815 919 q 792 1007 815 993 q 714 1021 769 1021 q 634 1007 657 1021 q 611 957 611 993 q 634 906 611 919 q 714 892 657 892 z "},"ã":{"ha":1476,"x_min":49,"x_max":1414,"o":"m 567 -19 q 300 23 417 -19 q 116 146 183 65 q 49 340 49 226 q 116 540 49 460 q 300 661 183 621 q 567 701 417 701 q 855 656 733 701 q 1042 530 976 611 q 1108 340 1108 449 q 1071 194 1108 260 q 963 80 1033 128 q 792 6 892 32 q 567 -19 692 -19 m 692 192 q 885 205 797 192 q 1027 250 974 218 q 1081 340 1081 282 q 1027 432 1081 400 q 885 476 974 464 q 692 489 797 489 q 472 452 550 489 q 394 340 394 415 q 429 258 394 292 q 531 208 464 225 q 692 192 597 192 m 1081 681 l 1414 681 l 1414 0 l 1100 0 q 1095 32 1100 0 q 1085 124 1090 64 q 1081 264 1081 183 l 1081 681 m 900 826 q 801 838 846 826 q 715 865 756 850 q 635 891 675 879 q 550 903 594 903 q 493 894 517 903 q 451 871 469 886 q 411 833 432 856 l 203 833 q 273 933 229 886 q 381 1011 317 981 q 529 1042 444 1042 q 628 1030 585 1042 q 711 1003 672 1018 q 788 977 750 989 q 871 965 826 965 q 936 975 910 965 q 982 1001 963 985 q 1018 1035 1001 1017 l 1226 1035 q 1157 935 1201 983 q 1049 857 1113 888 q 900 826 986 826 z "},"æ":{"ha":2660,"x_min":49,"x_max":2614,"o":"m 567 -19 q 300 23 417 -19 q 116 146 183 65 q 49 340 49 226 q 116 540 49 460 q 300 661 183 621 q 567 701 417 701 q 855 656 733 701 q 1042 530 976 611 q 1108 340 1108 449 q 1071 194 1108 260 q 963 80 1033 128 q 792 6 892 32 q 567 -19 692 -19 m 692 192 q 885 205 797 192 q 1027 250 974 218 q 1081 340 1081 282 q 1027 432 1081 400 q 885 476 974 464 q 692 489 797 489 q 472 452 550 489 q 394 340 394 415 q 429 258 394 292 q 531 208 464 225 q 692 192 597 192 m 1081 681 l 1414 681 l 1414 0 l 1100 0 q 1088 103 1094 32 q 1081 264 1081 175 l 1081 681 m 2281 242 l 2608 242 q 2528 101 2596 161 q 2333 9 2461 42 q 2006 -24 2204 -24 q 1644 10 1796 -24 q 1410 122 1492 43 q 1328 336 1328 201 q 1408 549 1328 469 q 1639 664 1488 629 q 2006 699 1790 699 q 2351 661 2217 699 q 2550 540 2486 624 q 2611 313 2614 456 l 1667 313 q 1706 246 1674 276 q 1808 197 1739 215 q 1992 178 1876 178 q 2188 194 2111 178 q 2281 242 2265 211 m 1992 497 q 1767 465 1844 497 q 1676 401 1690 433 l 2288 401 q 2210 467 2278 438 q 1992 497 2142 497 z "},"b":{"ha":1525,"x_min":111,"x_max":1476,"o":"m 958 -19 q 733 6 833 -19 q 563 80 633 32 q 454 194 492 128 q 417 340 417 260 q 454 488 417 421 q 563 602 492 554 q 733 676 633 650 q 958 701 833 701 q 1226 661 1108 701 q 1410 540 1343 621 q 1476 340 1476 460 q 1410 146 1476 226 q 1226 23 1343 65 q 958 -19 1108 -19 m 833 192 q 994 208 928 192 q 1096 258 1061 225 q 1131 340 1131 292 q 1053 452 1131 415 q 833 489 975 489 q 640 476 728 489 q 498 432 551 464 q 444 340 444 400 q 498 250 444 282 q 640 205 551 218 q 833 192 728 192 m 444 958 l 444 264 q 438 103 444 175 q 425 0 432 32 l 111 0 l 111 958 l 444 958 z "},"c":{"ha":1381,"x_min":49,"x_max":1332,"o":"m 1332 296 q 1269 125 1332 196 q 1072 17 1207 54 q 722 -21 938 -21 q 356 14 507 -21 q 127 128 206 49 q 49 339 49 207 q 127 551 49 471 q 356 666 206 631 q 722 701 507 701 q 1071 664 938 701 q 1267 556 1204 626 q 1331 386 1329 485 l 1025 386 q 925 470 1003 440 q 722 500 847 500 q 546 485 621 500 q 430 436 471 471 q 389 339 389 401 q 429 243 389 278 q 544 194 469 208 q 722 181 619 181 q 926 210 847 181 q 1026 296 1004 240 l 1332 296 z "},"ć":{"ha":1381,"x_min":49,"x_max":1332,"o":"m 1332 296 q 1269 125 1332 196 q 1072 17 1207 54 q 722 -21 938 -21 q 356 14 507 -21 q 127 128 206 49 q 49 339 49 207 q 127 551 49 471 q 356 666 206 631 q 722 701 507 701 q 1071 664 938 701 q 1267 556 1204 626 q 1331 386 1329 485 l 1025 386 q 925 470 1003 440 q 722 500 847 500 q 546 485 621 500 q 430 436 471 471 q 389 339 389 401 q 429 243 389 278 q 544 194 469 208 q 722 181 619 181 q 926 210 847 181 q 1026 296 1004 240 l 1332 296 m 515 836 l 796 1044 l 1240 1044 l 850 836 l 515 836 z "},"č":{"ha":1381,"x_min":49,"x_max":1332,"o":"m 1332 296 q 1269 125 1332 196 q 1072 17 1207 54 q 722 -21 938 -21 q 356 14 507 -21 q 127 128 206 49 q 49 339 49 207 q 127 551 49 471 q 356 666 206 631 q 722 701 507 701 q 1071 664 938 701 q 1267 556 1204 626 q 1331 386 1329 485 l 1025 386 q 925 470 1003 440 q 722 500 847 500 q 546 485 621 500 q 430 436 471 471 q 389 339 389 401 q 429 243 389 278 q 544 194 469 208 q 722 181 619 181 q 926 210 847 181 q 1026 296 1004 240 l 1332 296 m 836 875 l 575 874 l 872 1044 l 1208 1044 l 900 836 l 511 836 l 203 1044 l 538 1044 l 836 875 z "},"ç":{"ha":1381,"x_min":49,"x_max":1332,"o":"m 556 -165 q 570 -180 560 -169 q 603 -199 581 -190 q 667 -208 626 -208 q 727 -198 707 -208 q 747 -169 747 -187 q 739 -147 747 -158 q 700 -124 731 -135 q 601 -104 669 -112 l 831 -72 q 938 -97 890 -82 q 1013 -137 985 -111 q 1042 -206 1042 -162 q 947 -328 1042 -282 q 675 -375 851 -375 q 483 -345 561 -375 q 363 -267 404 -315 q 314 -165 321 -218 l 556 -165 m 601 13 l 838 13 l 838 -132 l 601 -104 l 601 13 m 1332 296 q 1269 125 1332 196 q 1072 17 1207 54 q 722 -21 938 -21 q 356 14 507 -21 q 127 128 206 49 q 49 339 49 207 q 127 551 49 471 q 356 666 206 631 q 722 701 507 701 q 1071 664 938 701 q 1267 556 1204 626 q 1331 386 1329 485 l 1025 386 q 925 470 1003 440 q 722 500 847 500 q 546 485 621 500 q 430 436 471 471 q 389 339 389 401 q 429 243 389 278 q 544 194 469 208 q 722 181 619 181 q 926 210 847 181 q 1026 296 1004 240 l 1332 296 z "},"ċ":{"ha":1381,"x_min":49,"x_max":1332,"o":"m 1332 296 q 1269 125 1332 196 q 1072 17 1207 54 q 722 -21 938 -21 q 356 14 507 -21 q 127 128 206 49 q 49 339 49 207 q 127 551 49 471 q 356 666 206 631 q 722 701 507 701 q 1071 664 938 701 q 1267 556 1204 626 q 1331 386 1329 485 l 1025 386 q 925 470 1003 440 q 722 500 847 500 q 546 485 621 500 q 430 436 471 471 q 389 339 389 401 q 429 243 389 278 q 544 194 469 208 q 722 181 619 181 q 926 210 847 181 q 1026 296 1004 240 l 1332 296 m 882 1046 l 882 838 l 529 838 l 529 1046 l 882 1046 z "},"d":{"ha":1525,"x_min":49,"x_max":1414,"o":"m 567 -19 q 300 23 417 -19 q 116 146 183 65 q 49 340 49 226 q 116 540 49 460 q 300 661 183 621 q 567 701 417 701 q 792 676 692 701 q 963 602 892 650 q 1071 488 1033 554 q 1108 340 1108 421 q 1071 194 1108 260 q 963 80 1033 128 q 792 6 892 32 q 567 -19 692 -19 m 692 192 q 885 205 797 192 q 1027 250 974 218 q 1081 340 1081 282 q 1027 432 1081 400 q 885 476 974 464 q 692 489 797 489 q 472 452 550 489 q 394 340 394 415 q 429 258 394 292 q 531 208 464 225 q 692 192 597 192 m 1081 958 l 1414 958 l 1414 0 l 1100 0 q 1088 103 1094 32 q 1081 264 1081 175 l 1081 958 z "},"ð":{"ha":1400,"x_min":49,"x_max":1372,"o":"m 719 192 q 837 197 774 192 q 956 215 900 201 q 1047 257 1011 229 q 1082 332 1082 285 q 1044 393 1082 369 q 947 431 1006 417 q 823 449 888 444 q 706 454 758 454 q 479 425 564 454 q 394 325 394 396 q 481 219 394 247 q 719 192 568 192 m 1263 979 l 1372 865 l 1090 625 l 983 738 l 1263 979 m 356 767 l 356 979 q 711 950 558 979 q 974 872 864 921 q 1156 760 1083 822 q 1269 633 1228 699 q 1328 505 1311 567 q 1346 393 1346 443 q 1309 222 1346 293 q 1207 103 1272 150 q 1058 28 1142 56 q 881 -10 975 1 q 692 -21 786 -21 q 342 22 486 -21 q 124 146 199 65 q 49 340 49 226 q 87 492 49 431 q 192 590 125 553 q 349 643 260 626 q 539 660 438 660 q 793 633 678 660 q 988 553 908 606 q 1096 426 1067 501 l 1075 419 q 1019 567 1063 503 q 893 676 976 632 q 678 744 810 721 q 356 767 546 767 z "},"ď":{"ha":1525,"x_min":49,"x_max":1832,"o":"m 567 -19 q 300 23 417 -19 q 116 146 183 65 q 49 340 49 226 q 116 540 49 460 q 300 661 183 621 q 567 701 417 701 q 792 676 692 701 q 963 602 892 650 q 1071 488 1033 554 q 1108 340 1108 421 q 1071 194 1108 260 q 963 80 1033 128 q 792 6 892 32 q 567 -19 692 -19 m 692 192 q 885 205 797 192 q 1027 250 974 218 q 1081 340 1081 282 q 1027 432 1081 400 q 885 476 974 464 q 692 489 797 489 q 472 452 550 489 q 394 340 394 415 q 429 258 394 292 q 531 208 464 225 q 692 192 597 192 m 1081 958 l 1414 958 l 1414 0 l 1100 0 q 1088 103 1094 32 q 1081 264 1081 175 l 1081 958 m 1742 647 l 1575 647 l 1485 810 l 1485 958 l 1832 958 l 1832 810 l 1742 647 z "},"đ":{"ha":1525,"x_min":49,"x_max":1511,"o":"m 567 -19 q 300 23 417 -19 q 116 146 183 65 q 49 340 49 226 q 116 540 49 460 q 300 661 183 621 q 567 701 417 701 q 792 676 692 701 q 963 602 892 650 q 1071 488 1033 554 q 1108 340 1108 421 q 1071 194 1108 260 q 963 80 1033 128 q 792 6 892 32 q 567 -19 692 -19 m 692 192 q 885 205 797 192 q 1027 250 974 218 q 1081 340 1081 282 q 1027 432 1081 400 q 885 476 974 464 q 692 489 797 489 q 472 452 550 489 q 394 340 394 415 q 429 258 394 292 q 531 208 464 225 q 692 192 597 192 m 1081 958 l 1414 958 l 1414 0 l 1100 0 q 1088 103 1094 32 q 1081 264 1081 175 l 1081 958 m 831 821 l 1511 821 l 1511 731 l 831 731 l 831 821 z "},"e":{"ha":1381,"x_min":49,"x_max":1335,"o":"m 1001 244 l 1329 244 q 1249 104 1317 164 q 1053 12 1182 44 q 726 -21 925 -21 q 365 13 517 -21 q 131 125 213 46 q 49 339 49 204 q 128 552 49 472 q 360 667 208 632 q 726 701 511 701 q 1072 664 938 701 q 1271 542 1207 626 q 1332 315 1335 458 l 388 315 q 427 249 394 279 q 528 199 460 218 q 713 181 597 181 q 909 197 832 181 q 1001 244 986 214 m 713 500 q 488 468 565 500 q 397 404 411 436 l 1008 404 q 931 470 999 440 q 713 500 863 500 z "},"é":{"ha":1381,"x_min":49,"x_max":1335,"o":"m 1001 244 l 1329 244 q 1249 104 1317 164 q 1053 12 1182 44 q 726 -21 925 -21 q 365 13 517 -21 q 131 125 213 46 q 49 339 49 204 q 128 552 49 472 q 360 667 208 632 q 726 701 511 701 q 1072 664 938 701 q 1271 542 1207 626 q 1332 315 1335 458 l 388 315 q 427 249 394 279 q 528 199 460 218 q 713 181 597 181 q 909 197 832 181 q 1001 244 986 214 m 713 500 q 488 468 565 500 q 397 404 411 436 l 1008 404 q 931 470 999 440 q 713 500 863 500 m 522 836 l 803 1044 l 1247 1044 l 857 836 l 522 836 z "},"ě":{"ha":1381,"x_min":49,"x_max":1335,"o":"m 1001 244 l 1329 244 q 1249 104 1317 164 q 1053 12 1182 44 q 726 -21 925 -21 q 365 13 517 -21 q 131 125 213 46 q 49 339 49 204 q 128 552 49 472 q 360 667 208 632 q 726 701 511 701 q 1072 664 938 701 q 1271 542 1207 626 q 1332 315 1335 458 l 388 315 q 427 249 394 279 q 528 199 460 218 q 713 181 597 181 q 909 197 832 181 q 1001 244 986 214 m 713 500 q 488 468 565 500 q 397 404 411 436 l 1008 404 q 931 470 999 440 q 713 500 863 500 m 843 875 l 582 874 l 879 1044 l 1215 1044 l 907 836 l 518 836 l 210 1044 l 544 1044 l 843 875 z "},"ê":{"ha":1381,"x_min":49,"x_max":1335,"o":"m 1001 244 l 1329 244 q 1249 104 1317 164 q 1053 12 1182 44 q 726 -21 925 -21 q 365 13 517 -21 q 131 125 213 46 q 49 339 49 204 q 128 552 49 472 q 360 667 208 632 q 726 701 511 701 q 1072 664 938 701 q 1271 542 1207 626 q 1332 315 1335 458 l 388 315 q 427 249 394 279 q 528 199 460 218 q 713 181 597 181 q 909 197 832 181 q 1001 244 986 214 m 713 500 q 488 468 565 500 q 397 404 411 436 l 1008 404 q 931 470 999 440 q 713 500 863 500 m 907 1044 l 1215 836 l 879 836 l 582 1007 l 843 1006 l 544 836 l 210 836 l 518 1044 l 907 1044 z "},"ë":{"ha":1381,"x_min":49,"x_max":1335,"o":"m 1001 244 l 1329 244 q 1249 104 1317 164 q 1053 12 1182 44 q 726 -21 925 -21 q 365 13 517 -21 q 131 125 213 46 q 49 339 49 204 q 128 552 49 472 q 360 667 208 632 q 726 701 511 701 q 1072 664 938 701 q 1271 542 1207 626 q 1332 315 1335 458 l 388 315 q 427 249 394 279 q 528 199 460 218 q 713 181 597 181 q 909 197 832 181 q 1001 244 986 214 m 713 500 q 488 468 565 500 q 397 404 411 436 l 1008 404 q 931 470 999 440 q 713 500 863 500 m 678 1046 l 678 836 l 325 836 l 325 1046 l 678 1046 m 1100 1046 l 1100 836 l 747 836 l 747 1046 l 1100 1046 z "},"ė":{"ha":1381,"x_min":49,"x_max":1335,"o":"m 1001 244 l 1329 244 q 1249 104 1317 164 q 1053 12 1182 44 q 726 -21 925 -21 q 365 13 517 -21 q 131 125 213 46 q 49 339 49 204 q 128 552 49 472 q 360 667 208 632 q 726 701 511 701 q 1072 664 938 701 q 1271 542 1207 626 q 1332 315 1335 458 l 388 315 q 427 249 394 279 q 528 199 460 218 q 713 181 597 181 q 909 197 832 181 q 1001 244 986 214 m 713 500 q 488 468 565 500 q 397 404 411 436 l 1008 404 q 931 470 999 440 q 713 500 863 500 m 889 1046 l 889 838 l 536 838 l 536 1046 l 889 1046 z "},"è":{"ha":1381,"x_min":49,"x_max":1335,"o":"m 1001 244 l 1329 244 q 1249 104 1317 164 q 1053 12 1182 44 q 726 -21 925 -21 q 365 13 517 -21 q 131 125 213 46 q 49 339 49 204 q 128 552 49 472 q 360 667 208 632 q 726 701 511 701 q 1072 664 938 701 q 1271 542 1207 626 q 1332 315 1335 458 l 388 315 q 427 249 394 279 q 528 199 460 218 q 713 181 597 181 q 909 197 832 181 q 1001 244 986 214 m 713 500 q 488 468 565 500 q 397 404 411 436 l 1008 404 q 931 470 999 440 q 713 500 863 500 m 574 836 l 183 1044 l 628 1044 l 908 836 l 574 836 z "},"ē":{"ha":1381,"x_min":49,"x_max":1335,"o":"m 1001 244 l 1329 244 q 1249 104 1317 164 q 1053 12 1182 44 q 726 -21 925 -21 q 365 13 517 -21 q 131 125 213 46 q 49 339 49 204 q 128 552 49 472 q 360 667 208 632 q 726 701 511 701 q 1072 664 938 701 q 1271 542 1207 626 q 1332 315 1335 458 l 388 315 q 427 249 394 279 q 528 199 460 218 q 713 181 597 181 q 909 197 832 181 q 1001 244 986 214 m 713 500 q 488 468 565 500 q 397 404 411 436 l 1008 404 q 931 470 999 440 q 713 500 863 500 m 397 838 l 397 975 l 1028 975 l 1028 838 l 397 838 z "},"ę":{"ha":1381,"x_min":49,"x_max":1335,"o":"m 1200 -333 q 844 -283 974 -333 q 715 -146 715 -233 q 771 -43 715 -81 q 923 19 826 -6 q 1143 72 1019 44 l 1143 42 q 1010 -19 1056 7 q 965 -90 965 -44 q 998 -151 965 -128 q 1084 -186 1031 -175 q 1200 -197 1138 -197 l 1200 -333 m 1001 244 l 1329 244 q 1249 104 1317 164 q 1053 12 1182 44 q 726 -21 925 -21 q 365 13 517 -21 q 131 125 213 46 q 49 339 49 204 q 128 552 49 472 q 360 667 208 632 q 726 701 511 701 q 1072 664 938 701 q 1271 542 1207 626 q 1332 315 1335 458 l 388 315 q 427 249 394 279 q 528 199 460 218 q 713 181 597 181 q 909 197 832 181 q 1001 244 986 214 m 713 500 q 488 468 565 500 q 397 404 411 436 l 1008 404 q 931 470 999 440 q 713 500 863 500 z "},"f":{"ha":936,"x_min":28,"x_max":908,"o":"m 28 639 l 908 639 l 908 431 l 28 431 l 28 639 m 588 958 l 908 958 l 908 736 l 726 736 q 641 731 671 738 q 599 703 611 724 q 588 639 588 682 l 588 0 l 254 0 l 254 708 q 285 847 254 792 q 390 931 317 903 q 588 958 463 958 z "},"g":{"ha":1346,"x_min":49,"x_max":1318,"o":"m 624 96 q 299 128 426 96 q 110 227 171 161 q 49 393 49 293 q 108 555 49 486 q 295 663 168 624 q 624 701 422 701 q 706 701 664 701 q 788 701 747 701 l 1318 701 l 1318 526 q 1135 535 1228 522 q 965 571 1043 549 l 950 592 q 1069 542 1013 572 q 1160 468 1125 511 q 1194 365 1194 425 q 1135 219 1194 279 q 951 127 1076 158 q 624 96 825 96 m 919 -299 l 919 -261 q 883 -212 919 -219 q 767 -204 846 -204 l 379 -204 q 220 -190 281 -204 q 128 -153 160 -176 q 87 -101 97 -129 q 76 -44 76 -72 q 121 49 76 15 q 257 97 165 83 q 490 111 349 111 l 624 96 q 461 84 507 96 q 415 38 415 72 q 433 9 415 18 q 482 0 451 0 l 892 0 q 1108 -20 1029 0 q 1220 -88 1188 -40 q 1253 -219 1253 -136 l 1253 -299 l 919 -299 m 624 278 q 772 292 715 278 q 853 332 828 307 q 878 388 878 357 q 853 447 878 422 q 772 486 828 472 q 624 500 717 500 q 475 486 532 500 q 392 447 418 472 q 365 388 365 422 q 391 332 365 357 q 474 292 417 307 q 624 278 531 278 z "},"ğ":{"ha":1346,"x_min":49,"x_max":1318,"o":"m 624 96 q 299 128 426 96 q 110 227 171 161 q 49 393 49 293 q 108 555 49 486 q 295 663 168 624 q 624 701 422 701 q 706 701 664 701 q 788 701 747 701 l 1318 701 l 1318 526 q 1135 535 1228 522 q 965 571 1043 549 l 950 592 q 1069 542 1013 572 q 1160 468 1125 511 q 1194 365 1194 425 q 1135 219 1194 279 q 951 127 1076 158 q 624 96 825 96 m 919 -299 l 919 -261 q 883 -212 919 -219 q 767 -204 846 -204 l 379 -204 q 220 -190 281 -204 q 128 -153 160 -176 q 87 -101 97 -129 q 76 -44 76 -72 q 121 49 76 15 q 257 97 165 83 q 490 111 349 111 l 624 96 q 461 84 507 96 q 415 38 415 72 q 433 9 415 18 q 482 0 451 0 l 892 0 q 1108 -20 1029 0 q 1220 -88 1188 -40 q 1253 -219 1253 -136 l 1253 -299 l 919 -299 m 624 278 q 772 292 715 278 q 853 332 828 307 q 878 388 878 357 q 853 447 878 422 q 772 486 828 472 q 624 500 717 500 q 475 486 532 500 q 392 447 418 472 q 365 388 365 422 q 391 332 365 357 q 474 292 417 307 q 624 278 531 278 m 1144 1014 q 1054 913 1117 958 q 886 841 992 868 q 624 814 781 814 q 361 841 467 814 q 193 913 256 868 q 103 1014 131 958 l 311 1014 q 415 974 342 994 q 624 953 489 953 q 831 974 758 953 q 936 1014 904 994 l 1144 1014 z "},"ģ":{"ha":1346,"x_min":49,"x_max":1318,"o":"m 624 96 q 299 128 426 96 q 110 227 171 161 q 49 393 49 293 q 108 555 49 486 q 295 663 168 624 q 624 701 422 701 q 706 701 664 701 q 788 701 747 701 l 1318 701 l 1318 526 q 1135 535 1228 522 q 965 571 1043 549 l 950 592 q 1069 542 1013 572 q 1160 468 1125 511 q 1194 365 1194 425 q 1135 219 1194 279 q 951 127 1076 158 q 624 96 825 96 m 919 -299 l 919 -261 q 883 -212 919 -219 q 767 -204 846 -204 l 379 -204 q 220 -190 281 -204 q 128 -153 160 -176 q 87 -101 97 -129 q 76 -44 76 -72 q 121 49 76 15 q 257 97 165 83 q 490 111 349 111 l 624 96 q 461 84 507 96 q 415 38 415 72 q 433 9 415 18 q 482 0 451 0 l 892 0 q 1108 -20 1029 0 q 1220 -88 1188 -40 q 1253 -219 1253 -136 l 1253 -299 l 919 -299 m 624 278 q 772 292 715 278 q 853 332 828 307 q 878 388 878 357 q 853 447 878 422 q 772 486 828 472 q 624 500 717 500 q 475 486 532 500 q 392 447 418 472 q 365 388 365 422 q 391 332 365 357 q 474 292 417 307 q 624 278 531 278 m 761 1101 l 779 1015 q 715 992 749 1008 q 678 954 682 975 l 800 939 l 800 776 l 449 776 l 449 883 q 523 1021 449 958 q 761 1101 597 1083 z "},"ġ":{"ha":1346,"x_min":49,"x_max":1318,"o":"m 624 96 q 299 128 426 96 q 110 227 171 161 q 49 393 49 293 q 108 555 49 486 q 295 663 168 624 q 624 701 422 701 q 706 701 664 701 q 788 701 747 701 l 1318 701 l 1318 526 q 1135 535 1228 522 q 965 571 1043 549 l 950 592 q 1069 542 1013 572 q 1160 468 1125 511 q 1194 365 1194 425 q 1135 219 1194 279 q 951 127 1076 158 q 624 96 825 96 m 919 -299 l 919 -261 q 883 -212 919 -219 q 767 -204 846 -204 l 379 -204 q 220 -190 281 -204 q 128 -153 160 -176 q 87 -101 97 -129 q 76 -44 76 -72 q 121 49 76 15 q 257 97 165 83 q 490 111 349 111 l 624 96 q 461 84 507 96 q 415 38 415 72 q 433 9 415 18 q 482 0 451 0 l 892 0 q 1108 -20 1029 0 q 1220 -88 1188 -40 q 1253 -219 1253 -136 l 1253 -299 l 919 -299 m 624 278 q 772 292 715 278 q 853 332 828 307 q 878 388 878 357 q 853 447 878 422 q 772 486 828 472 q 624 500 717 500 q 475 486 532 500 q 392 447 418 472 q 365 388 365 422 q 391 332 365 357 q 474 292 417 307 q 624 278 531 278 m 800 1046 l 800 838 l 447 838 l 447 1046 l 800 1046 z "},"h":{"ha":1400,"x_min":76,"x_max":1338,"o":"m 1004 0 l 1004 253 q 979 358 1004 315 q 891 423 954 401 q 713 444 828 444 q 585 433 647 444 q 474 404 524 421 q 396 371 425 388 l 393 438 q 431 501 399 458 q 526 590 464 543 q 684 669 589 636 q 910 701 779 701 q 1068 686 992 701 q 1205 635 1144 671 q 1301 540 1265 600 q 1338 392 1338 481 l 1338 0 l 1004 0 m 76 0 l 76 958 l 410 958 l 410 0 l 76 0 z "},"ħ":{"ha":1400,"x_min":-1,"x_max":1338,"o":"m 1004 0 l 1004 253 q 979 358 1004 315 q 891 423 954 401 q 713 444 828 444 q 585 433 647 444 q 474 404 524 421 q 396 371 425 388 l 393 438 q 431 501 399 458 q 526 590 464 543 q 684 669 589 636 q 910 701 779 701 q 1068 686 992 701 q 1205 635 1144 671 q 1301 540 1265 600 q 1338 392 1338 481 l 1338 0 l 1004 0 m 76 0 l 76 958 l 410 958 l 410 0 l 76 0 m -1 829 l 679 829 l 679 739 l -1 739 l -1 829 z "},"i":{"ha":506,"x_min":76,"x_max":429,"o":"m 429 1038 l 429 829 l 76 829 l 76 1038 l 429 1038 m 86 681 l 419 681 l 419 0 l 86 0 l 86 681 z "},"ı":{"ha":486,"x_min":76,"x_max":410,"o":"m 76 681 l 410 681 l 410 0 l 76 0 l 76 681 z "},"í":{"ha":486,"x_min":53,"x_max":778,"o":"m 76 681 l 410 681 l 410 0 l 76 0 l 76 681 m 53 829 l 333 1038 l 778 1038 l 388 829 l 53 829 z "},"î":{"ha":486,"x_min":-260,"x_max":746,"o":"m 76 681 l 410 681 l 410 0 l 76 0 l 76 681 m 438 1038 l 746 829 l 410 829 l 113 1000 l 374 999 l 75 829 l -260 829 l 49 1038 l 438 1038 z "},"ï":{"ha":278,"x_min":-46,"x_max":492,"o":"m 76 681 l 410 681 l 410 0 l 76 0 l 76 681 m 307 1046 l 307 836 l -46 836 l -46 1046 l 307 1046 m 492 1046 l 492 836 l 139 836 l 139 1046 l 492 1046 z "},"ì":{"ha":486,"x_min":-286,"x_max":439,"o":"m 76 681 l 410 681 l 410 0 l 76 0 l 76 681 m 104 829 l -286 1038 l 158 1038 l 439 829 l 104 829 z "},"ĳ":{"ha":1011,"x_min":76,"x_max":935,"o":"m 429 1038 l 429 829 l 76 829 l 76 1038 l 429 1038 m 86 681 l 419 681 l 419 0 l 86 0 l 86 681 m 592 681 l 925 681 l 925 -278 l 592 -278 l 592 681 m 935 1038 l 935 829 l 582 829 l 582 1038 l 935 1038 z "},"ī":{"ha":486,"x_min":-72,"x_max":558,"o":"m 76 681 l 410 681 l 410 0 l 76 0 l 76 681 m -72 831 l -72 968 l 558 968 l 558 831 l -72 831 z "},"į":{"ha":506,"x_min":-8,"x_max":476,"o":"m 476 -333 q 121 -283 250 -333 q -8 -146 -8 -233 q 47 -45 -8 -81 q 199 7 103 -10 q 419 31 296 24 l 419 0 q 287 -27 332 -10 q 242 -90 242 -44 q 274 -151 242 -128 q 360 -186 307 -175 q 476 -197 414 -197 l 476 -333 m 429 1038 l 429 829 l 76 829 l 76 1038 l 429 1038 m 86 681 l 419 681 l 419 0 l 86 0 l 86 681 z "},"j":{"ha":506,"x_min":76,"x_max":429,"o":"m 86 681 l 419 681 l 419 -278 l 86 -278 l 86 681 m 429 1038 l 429 829 l 76 829 l 76 1038 l 429 1038 z "},"k":{"ha":1308,"x_min":76,"x_max":1301,"o":"m 76 958 l 410 958 l 410 0 l 76 0 l 76 958 m 1254 681 l 704 299 l 711 479 l 1301 0 l 879 0 l 415 388 l 813 681 l 1254 681 z "},"ķ":{"ha":1308,"x_min":76,"x_max":1301,"o":"m 76 958 l 410 958 l 410 0 l 76 0 l 76 958 m 1254 681 l 704 299 l 711 479 l 1301 0 l 879 0 l 415 388 l 813 681 l 1254 681 m 476 -393 l 457 -307 q 526 -281 497 -297 q 560 -246 556 -265 l 438 -231 l 438 -68 l 789 -68 l 789 -175 q 710 -316 789 -256 q 476 -393 632 -376 l 476 -393 z "},"l":{"ha":500,"x_min":83,"x_max":417,"o":"m 83 958 l 417 958 l 417 0 l 83 0 l 83 958 z "},"ĺ":{"ha":500,"x_min":69,"x_max":794,"o":"m 83 958 l 417 958 l 417 0 l 83 0 l 83 958 m 69 1100 l 350 1308 l 794 1308 l 404 1100 l 69 1100 z "},"ľ":{"ha":847,"x_min":83,"x_max":847,"o":"m 83 958 l 417 958 l 417 0 l 83 0 l 83 958 m 757 647 l 590 647 l 500 810 l 500 958 l 847 958 l 847 810 l 757 647 z "},"ļ":{"ha":500,"x_min":79,"x_max":431,"o":"m 83 958 l 417 958 l 417 0 l 83 0 l 83 958 m 118 -393 l 99 -307 q 168 -281 139 -297 q 201 -246 197 -265 l 79 -231 l 79 -68 l 431 -68 l 431 -175 q 352 -316 431 -256 q 118 -393 274 -376 l 118 -393 z "},"ŀ":{"ha":915,"x_min":83,"x_max":832,"o":"m 83 958 l 417 958 l 417 0 l 83 0 l 83 958 m 832 483 l 832 274 l 479 274 l 479 483 l 832 483 z "},"ł":{"ha":529,"x_min":-42,"x_max":571,"o":"m 519 708 l 571 635 l 7 250 l -42 324 l 519 708 m 99 958 l 432 958 l 432 0 l 99 0 l 99 958 z "},"m":{"ha":2297,"x_min":63,"x_max":2235,"o":"m 63 681 l 396 681 l 396 0 l 63 0 l 63 681 m 896 701 q 1054 684 978 701 q 1191 625 1131 667 q 1288 511 1251 583 q 1324 329 1324 439 l 1324 0 l 990 0 l 990 288 q 936 435 990 392 q 740 479 882 479 q 595 463 665 479 q 469 423 525 446 q 382 378 414 400 l 379 431 q 417 501 385 456 q 513 592 450 546 q 670 669 575 638 q 896 701 765 701 m 1807 701 q 1965 684 1889 701 q 2102 625 2042 667 q 2199 511 2163 583 q 2235 329 2235 439 l 2235 0 l 1901 0 l 1901 288 q 1847 435 1901 392 q 1651 479 1793 479 q 1506 463 1576 479 q 1381 423 1436 446 q 1293 378 1325 400 l 1290 444 q 1332 507 1296 465 q 1434 593 1368 549 q 1594 669 1500 638 q 1807 701 1688 701 z "},"n":{"ha":1386,"x_min":63,"x_max":1324,"o":"m 63 681 l 396 681 l 396 0 l 63 0 l 63 681 m 896 701 q 1054 684 978 701 q 1191 625 1131 667 q 1288 511 1251 583 q 1324 329 1324 439 l 1324 0 l 990 0 l 990 288 q 936 435 990 392 q 740 479 882 479 q 595 463 665 479 q 469 423 525 446 q 382 378 414 400 l 379 431 q 417 501 385 456 q 513 592 450 546 q 670 669 575 638 q 896 701 765 701 z "},"ń":{"ha":1386,"x_min":63,"x_max":1324,"o":"m 63 681 l 396 681 l 396 0 l 63 0 l 63 681 m 896 701 q 1054 684 978 701 q 1191 625 1131 667 q 1288 511 1251 583 q 1324 329 1324 439 l 1324 0 l 990 0 l 990 288 q 936 435 990 392 q 740 479 882 479 q 595 463 665 479 q 469 423 525 446 q 382 378 414 400 l 379 431 q 417 501 385 456 q 513 592 450 546 q 670 669 575 638 q 896 701 765 701 m 572 836 l 853 1044 l 1297 1044 l 907 836 l 572 836 z "},"ň":{"ha":1386,"x_min":63,"x_max":1324,"o":"m 63 681 l 396 681 l 396 0 l 63 0 l 63 681 m 896 701 q 1054 684 978 701 q 1191 625 1131 667 q 1288 511 1251 583 q 1324 329 1324 439 l 1324 0 l 990 0 l 990 288 q 936 435 990 392 q 740 479 882 479 q 595 463 665 479 q 469 423 525 446 q 382 378 414 400 l 379 431 q 417 501 385 456 q 513 592 450 546 q 670 669 575 638 q 896 701 765 701 m 893 875 l 632 874 l 929 1044 l 1265 1044 l 957 836 l 568 836 l 260 1044 l 594 1044 l 893 875 z "},"ņ":{"ha":1386,"x_min":63,"x_max":1324,"o":"m 63 681 l 396 681 l 396 0 l 63 0 l 63 681 m 896 701 q 1054 684 978 701 q 1191 625 1131 667 q 1288 511 1251 583 q 1324 329 1324 439 l 1324 0 l 990 0 l 990 288 q 936 435 990 392 q 740 479 882 479 q 595 463 665 479 q 469 423 525 446 q 382 378 414 400 l 379 431 q 417 501 385 456 q 513 592 450 546 q 670 669 575 638 q 896 701 765 701 m 560 -393 l 540 -307 q 610 -281 581 -297 q 643 -246 639 -265 l 521 -231 l 521 -68 l 872 -68 l 872 -175 q 794 -316 872 -256 q 560 -393 715 -376 l 560 -393 z "},"ñ":{"ha":1386,"x_min":63,"x_max":1324,"o":"m 63 681 l 396 681 l 396 0 l 63 0 l 63 681 m 896 701 q 1054 684 978 701 q 1191 625 1131 667 q 1288 511 1251 583 q 1324 329 1324 439 l 1324 0 l 990 0 l 990 288 q 936 435 990 392 q 740 479 882 479 q 595 463 665 479 q 469 423 525 446 q 382 378 414 400 l 379 431 q 417 501 385 456 q 513 592 450 546 q 670 669 575 638 q 896 701 765 701 m 949 826 q 849 838 894 826 q 764 865 804 850 q 683 891 724 879 q 599 903 643 903 q 542 894 565 903 q 499 871 518 886 q 460 833 481 856 l 251 833 q 322 933 278 886 q 429 1011 365 981 q 578 1042 493 1042 q 677 1030 633 1042 q 760 1003 721 1018 q 837 977 799 989 q 919 965 875 965 q 985 975 958 965 q 1031 1001 1011 985 q 1067 1035 1050 1017 l 1275 1035 q 1206 935 1250 983 q 1098 857 1161 888 q 949 826 1035 826 z "},"ŋ":{"ha":1386,"x_min":63,"x_max":1324,"o":"m 768 -299 l 768 -69 q 905 -64 857 -69 q 972 -43 953 -58 q 990 0 990 -28 l 990 288 q 936 435 990 392 q 740 479 882 479 q 594 463 664 479 q 469 423 524 446 q 382 378 414 400 l 379 431 q 417 501 385 456 q 513 592 450 546 q 670 669 575 638 q 896 701 765 701 q 1054 684 978 701 q 1191 625 1131 667 q 1288 511 1251 583 q 1324 329 1324 439 l 1324 -97 q 1300 -198 1324 -158 q 1216 -260 1276 -237 q 1047 -290 1156 -282 q 768 -299 938 -299 m 63 0 l 63 681 l 396 681 l 396 0 l 63 0 z "},"o":{"ha":1411,"x_min":49,"x_max":1363,"o":"m 708 -21 q 341 15 488 -21 q 122 131 194 51 q 49 339 49 210 q 122 548 49 468 q 341 665 194 628 q 708 701 488 701 q 1073 665 928 701 q 1290 548 1218 628 q 1363 339 1363 468 q 1290 131 1363 210 q 1073 15 1218 51 q 708 -21 928 -21 m 708 181 q 881 198 811 181 q 986 251 950 215 q 1022 339 1022 286 q 987 428 1022 392 q 882 482 951 464 q 708 500 813 500 q 534 482 606 500 q 426 428 463 464 q 389 339 389 393 q 425 251 389 286 q 533 198 461 215 q 708 181 604 181 z "},"ó":{"ha":1411,"x_min":49,"x_max":1363,"o":"m 708 -21 q 341 15 488 -21 q 122 131 194 51 q 49 339 49 210 q 122 548 49 468 q 341 665 194 628 q 708 701 488 701 q 1073 665 928 701 q 1290 548 1218 628 q 1363 339 1363 468 q 1290 131 1363 210 q 1073 15 1218 51 q 708 -21 928 -21 m 708 181 q 881 198 811 181 q 986 251 950 215 q 1022 339 1022 286 q 987 428 1022 392 q 882 482 951 464 q 708 500 813 500 q 534 482 606 500 q 426 428 463 464 q 389 339 389 393 q 425 251 389 286 q 533 198 461 215 q 708 181 604 181 m 518 836 l 799 1044 l 1243 1044 l 853 836 l 518 836 z "},"ô":{"ha":1411,"x_min":49,"x_max":1363,"o":"m 708 -21 q 341 15 488 -21 q 122 131 194 51 q 49 339 49 210 q 122 548 49 468 q 341 665 194 628 q 708 701 488 701 q 1073 665 928 701 q 1290 548 1218 628 q 1363 339 1363 468 q 1290 131 1363 210 q 1073 15 1218 51 q 708 -21 928 -21 m 708 181 q 881 198 811 181 q 986 251 950 215 q 1022 339 1022 286 q 987 428 1022 392 q 882 482 951 464 q 708 500 813 500 q 534 482 606 500 q 426 428 463 464 q 389 339 389 393 q 425 251 389 286 q 533 198 461 215 q 708 181 604 181 m 903 1044 l 1211 836 l 875 836 l 578 1007 l 839 1006 l 540 836 l 206 836 l 514 1044 l 903 1044 z "},"ö":{"ha":1411,"x_min":49,"x_max":1363,"o":"m 708 -21 q 341 15 488 -21 q 122 131 194 51 q 49 339 49 210 q 122 548 49 468 q 341 665 194 628 q 708 701 488 701 q 1073 665 928 701 q 1290 548 1218 628 q 1363 339 1363 468 q 1290 131 1363 210 q 1073 15 1218 51 q 708 -21 928 -21 m 708 181 q 881 198 811 181 q 986 251 950 215 q 1022 339 1022 286 q 987 428 1022 392 q 882 482 951 464 q 708 500 813 500 q 534 482 606 500 q 426 428 463 464 q 389 339 389 393 q 425 251 389 286 q 533 198 461 215 q 708 181 604 181 m 674 1046 l 674 836 l 321 836 l 321 1046 l 674 1046 m 1096 1046 l 1096 836 l 743 836 l 743 1046 l 1096 1046 z "},"ò":{"ha":1411,"x_min":49,"x_max":1363,"o":"m 708 -21 q 341 15 488 -21 q 122 131 194 51 q 49 339 49 210 q 122 548 49 468 q 341 665 194 628 q 708 701 488 701 q 1073 665 928 701 q 1290 548 1218 628 q 1363 339 1363 468 q 1290 131 1363 210 q 1073 15 1218 51 q 708 -21 928 -21 m 708 181 q 881 198 811 181 q 986 251 950 215 q 1022 339 1022 286 q 987 428 1022 392 q 882 482 951 464 q 708 500 813 500 q 534 482 606 500 q 426 428 463 464 q 389 339 389 393 q 425 251 389 286 q 533 198 461 215 q 708 181 604 181 m 569 836 l 179 1044 l 624 1044 l 904 836 l 569 836 z "},"ő":{"ha":1411,"x_min":49,"x_max":1363,"o":"m 708 -21 q 341 15 488 -21 q 122 131 194 51 q 49 339 49 210 q 122 548 49 468 q 341 665 194 628 q 708 701 488 701 q 1073 665 928 701 q 1290 548 1218 628 q 1363 339 1363 468 q 1290 131 1363 210 q 1073 15 1218 51 q 708 -21 928 -21 m 708 181 q 881 198 811 181 q 986 251 950 215 q 1022 339 1022 286 q 987 428 1022 392 q 882 482 951 464 q 708 500 813 500 q 534 482 606 500 q 426 428 463 464 q 389 339 389 393 q 425 251 389 286 q 533 198 461 215 q 708 181 604 181 m 747 836 l 961 1044 l 1244 1044 l 985 836 l 747 836 m 367 836 l 554 1044 l 836 1044 l 604 836 l 367 836 z "},"ō":{"ha":1411,"x_min":49,"x_max":1363,"o":"m 708 -21 q 341 15 488 -21 q 122 131 194 51 q 49 339 49 210 q 122 548 49 468 q 341 665 194 628 q 708 701 488 701 q 1073 665 928 701 q 1290 548 1218 628 q 1363 339 1363 468 q 1290 131 1363 210 q 1073 15 1218 51 q 708 -21 928 -21 m 708 181 q 881 198 811 181 q 986 251 950 215 q 1022 339 1022 286 q 987 428 1022 392 q 882 482 951 464 q 708 500 813 500 q 534 482 606 500 q 426 428 463 464 q 389 339 389 393 q 425 251 389 286 q 533 198 461 215 q 708 181 604 181 m 393 838 l 393 975 l 1024 975 l 1024 838 l 393 838 z "},"ø":{"ha":1411,"x_min":49,"x_max":1363,"o":"m 929 808 l 1004 767 l 479 -121 l 407 -76 l 929 808 m 708 -21 q 341 15 488 -21 q 122 131 194 51 q 49 339 49 210 q 122 548 49 468 q 341 665 194 628 q 708 701 488 701 q 1073 665 928 701 q 1290 548 1218 628 q 1363 339 1363 468 q 1290 131 1363 210 q 1073 15 1218 51 q 708 -21 928 -21 m 708 181 q 881 198 811 181 q 986 251 950 215 q 1022 339 1022 286 q 987 428 1022 392 q 882 482 951 464 q 708 500 813 500 q 534 482 606 500 q 426 428 463 464 q 389 339 389 393 q 425 251 389 286 q 533 198 461 215 q 708 181 604 181 z "},"õ":{"ha":1411,"x_min":49,"x_max":1363,"o":"m 708 -21 q 341 15 488 -21 q 122 131 194 51 q 49 339 49 210 q 122 548 49 468 q 341 665 194 628 q 708 701 488 701 q 1073 665 928 701 q 1290 548 1218 628 q 1363 339 1363 468 q 1290 131 1363 210 q 1073 15 1218 51 q 708 -21 928 -21 m 708 181 q 881 198 811 181 q 986 251 950 215 q 1022 339 1022 286 q 987 428 1022 392 q 882 482 951 464 q 708 500 813 500 q 534 482 606 500 q 426 428 463 464 q 389 339 389 393 q 425 251 389 286 q 533 198 461 215 q 708 181 604 181 m 894 826 q 795 838 840 826 q 710 865 750 850 q 629 891 669 879 q 544 903 589 903 q 488 894 511 903 q 445 871 464 886 q 406 833 426 856 l 197 833 q 267 933 224 886 q 375 1011 311 981 q 524 1042 439 1042 q 623 1030 579 1042 q 706 1003 667 1018 q 783 977 744 989 q 865 965 821 965 q 931 975 904 965 q 976 1001 957 985 q 1013 1035 996 1017 l 1221 1035 q 1151 935 1196 983 q 1044 857 1107 888 q 894 826 981 826 z "},"œ":{"ha":2356,"x_min":49,"x_max":2310,"o":"m 708 -21 q 341 15 488 -21 q 122 131 194 51 q 49 339 49 210 q 122 548 49 468 q 341 665 194 628 q 708 701 488 701 q 1073 665 928 701 q 1290 548 1218 628 q 1363 339 1363 468 q 1290 131 1363 210 q 1073 15 1218 51 q 708 -21 928 -21 m 708 181 q 881 198 811 181 q 986 251 950 215 q 1022 339 1022 286 q 987 428 1022 392 q 882 482 951 464 q 708 500 813 500 q 534 482 606 500 q 426 428 463 464 q 389 339 389 393 q 425 251 389 286 q 533 198 461 215 q 708 181 604 181 m 1976 244 l 2304 244 q 2224 104 2292 164 q 2028 12 2157 44 q 1701 -21 1900 -21 q 1340 13 1492 -21 q 1106 125 1188 46 q 1024 339 1024 204 q 1103 552 1024 472 q 1335 667 1183 632 q 1701 701 1486 701 q 2047 664 1913 701 q 2246 542 2182 626 q 2307 315 2310 458 l 1363 315 q 1402 249 1369 279 q 1503 199 1435 218 q 1688 181 1572 181 q 1884 197 1807 181 q 1976 244 1961 214 m 1688 500 q 1463 468 1540 500 q 1372 404 1386 436 l 1983 404 q 1906 470 1974 440 q 1688 500 1838 500 z "},"p":{"ha":1476,"x_min":63,"x_max":1428,"o":"m 910 -21 q 685 5 785 -21 q 514 78 585 31 q 406 193 443 126 q 368 340 368 260 q 406 487 368 421 q 514 601 443 553 q 685 674 585 649 q 910 700 785 700 q 1177 658 1060 700 q 1361 535 1294 615 q 1428 340 1428 454 q 1361 140 1428 221 q 1177 19 1294 60 q 910 -21 1060 -21 m 785 192 q 946 208 879 192 q 1047 258 1013 225 q 1082 340 1082 290 q 1004 451 1082 414 q 785 489 926 489 q 591 476 679 489 q 449 431 503 464 q 396 340 396 399 q 449 249 396 282 q 591 204 503 217 q 785 192 679 192 m 63 681 l 376 681 l 396 417 l 396 -278 l 63 -278 l 63 681 z "},"þ":{"ha":1476,"x_min":63,"x_max":1428,"o":"m 910 -21 q 685 5 785 -21 q 514 78 585 31 q 406 193 443 126 q 368 340 368 260 q 406 487 368 421 q 514 601 443 553 q 685 674 585 649 q 910 700 785 700 q 1177 658 1060 700 q 1361 535 1294 615 q 1428 340 1428 454 q 1361 140 1428 221 q 1177 19 1294 60 q 910 -21 1060 -21 m 785 192 q 946 208 879 192 q 1047 258 1013 225 q 1082 340 1082 290 q 1004 451 1082 414 q 785 489 926 489 q 591 476 679 489 q 449 431 503 464 q 396 340 396 399 q 449 249 396 282 q 591 204 503 217 q 785 192 679 192 m 63 958 l 396 958 l 396 417 l 396 -278 l 63 -278 l 63 958 z "},"q":{"ha":1525,"x_min":49,"x_max":1414,"o":"m 567 -21 q 300 19 417 -21 q 116 140 183 60 q 49 340 49 221 q 116 535 49 454 q 300 658 183 615 q 567 700 417 700 q 792 674 692 700 q 963 601 892 649 q 1071 487 1033 553 q 1108 340 1108 421 q 1071 193 1108 260 q 963 78 1033 126 q 792 5 892 31 q 567 -21 692 -21 m 692 192 q 885 204 797 192 q 1027 249 974 217 q 1081 340 1081 282 q 1027 431 1081 399 q 885 476 974 464 q 692 489 797 489 q 472 451 550 489 q 394 340 394 414 q 429 258 394 290 q 531 208 464 225 q 692 192 597 192 m 1414 681 l 1414 -278 l 1081 -278 l 1081 417 l 1100 681 l 1414 681 z "},"r":{"ha":782,"x_min":63,"x_max":754,"o":"m 63 681 l 396 681 l 396 0 l 63 0 l 63 681 m 754 424 q 589 407 664 424 q 461 367 514 390 q 382 322 408 344 l 379 389 q 401 458 383 418 q 450 540 419 497 q 525 619 481 582 q 627 678 569 656 q 754 701 685 701 l 754 424 z "},"ŕ":{"ha":782,"x_min":63,"x_max":1010,"o":"m 63 681 l 396 681 l 396 0 l 63 0 l 63 681 m 754 424 q 589 407 664 424 q 461 367 514 390 q 382 322 408 344 l 379 389 q 401 458 383 418 q 450 540 419 497 q 525 619 481 582 q 627 678 569 656 q 754 701 685 701 l 754 424 m 285 836 l 565 1044 l 1010 1044 l 619 836 l 285 836 z "},"ř":{"ha":782,"x_min":-28,"x_max":978,"o":"m 63 681 l 396 681 l 396 0 l 63 0 l 63 681 m 754 424 q 589 407 664 424 q 461 367 514 390 q 382 322 408 344 l 379 389 q 401 458 383 418 q 450 540 419 497 q 525 619 481 582 q 627 678 569 656 q 754 701 685 701 l 754 424 m 606 875 l 344 874 l 642 1044 l 978 1044 l 669 836 l 281 836 l -28 1044 l 307 1044 l 606 875 z "},"ŗ":{"ha":782,"x_min":58,"x_max":754,"o":"m 63 681 l 396 681 l 396 0 l 63 0 l 63 681 m 754 424 q 589 407 664 424 q 461 367 514 390 q 382 322 408 344 l 379 389 q 401 458 383 418 q 450 540 419 497 q 525 619 481 582 q 627 678 569 656 q 754 701 685 701 l 754 424 m 97 -393 l 78 -307 q 147 -281 118 -297 q 181 -246 176 -265 l 58 -231 l 58 -68 l 410 -68 l 410 -175 q 331 -316 410 -256 q 97 -393 253 -376 l 97 -393 z "},"s":{"ha":1169,"x_min":53,"x_max":1121,"o":"m 56 244 l 363 244 q 437 194 382 208 q 594 181 492 181 q 712 189 674 181 q 762 211 750 197 q 774 240 774 225 q 748 273 774 264 q 661 284 722 282 q 493 286 600 286 q 312 295 392 286 q 176 324 232 304 q 92 381 121 344 q 63 471 63 417 q 106 583 63 538 q 222 653 149 628 q 392 690 296 679 q 594 701 489 701 q 881 666 769 701 q 1044 571 992 631 q 1096 436 1097 511 l 797 436 q 740 486 782 472 q 594 500 697 500 q 453 485 497 500 q 410 439 410 471 q 431 408 410 418 q 513 393 453 397 q 690 389 574 389 q 848 383 771 389 q 987 360 925 378 q 1085 304 1049 342 q 1121 201 1121 267 q 1056 73 1121 122 q 874 1 992 24 q 594 -21 756 -21 q 358 -3 454 -21 q 200 45 261 15 q 106 110 139 75 q 63 181 74 146 q 56 244 53 217 z "},"ś":{"ha":1169,"x_min":53,"x_max":1121,"o":"m 56 244 l 363 244 q 437 194 382 208 q 594 181 492 181 q 712 189 674 181 q 762 211 750 197 q 774 240 774 225 q 748 273 774 264 q 661 284 722 282 q 493 286 600 286 q 312 295 392 286 q 176 324 232 304 q 92 381 121 344 q 63 471 63 417 q 106 583 63 538 q 222 653 149 628 q 392 690 296 679 q 594 701 489 701 q 881 666 769 701 q 1044 571 992 631 q 1096 436 1097 511 l 797 436 q 740 486 782 472 q 594 500 697 500 q 453 485 497 500 q 410 439 410 471 q 431 408 410 418 q 513 393 453 397 q 690 389 574 389 q 848 383 771 389 q 987 360 925 378 q 1085 304 1049 342 q 1121 201 1121 267 q 1056 73 1121 122 q 874 1 992 24 q 594 -21 756 -21 q 358 -3 454 -21 q 200 45 261 15 q 106 110 139 75 q 63 181 74 146 q 56 244 53 217 m 383 836 l 664 1044 l 1108 1044 l 718 836 l 383 836 z "},"š":{"ha":1169,"x_min":53,"x_max":1121,"o":"m 56 244 l 363 244 q 437 194 382 208 q 594 181 492 181 q 712 189 674 181 q 762 211 750 197 q 774 240 774 225 q 748 273 774 264 q 661 284 722 282 q 493 286 600 286 q 312 295 392 286 q 176 324 232 304 q 92 381 121 344 q 63 471 63 417 q 106 583 63 538 q 222 653 149 628 q 392 690 296 679 q 594 701 489 701 q 881 666 769 701 q 1044 571 992 631 q 1096 436 1097 511 l 797 436 q 740 486 782 472 q 594 500 697 500 q 453 485 497 500 q 410 439 410 471 q 431 408 410 418 q 513 393 453 397 q 690 389 574 389 q 848 383 771 389 q 987 360 925 378 q 1085 304 1049 342 q 1121 201 1121 267 q 1056 73 1121 122 q 874 1 992 24 q 594 -21 756 -21 q 358 -3 454 -21 q 200 45 261 15 q 106 110 139 75 q 63 181 74 146 q 56 244 53 217 m 704 875 l 443 874 l 740 1044 l 1076 1044 l 768 836 l 379 836 l 71 1044 l 406 1044 l 704 875 z "},"ş":{"ha":1169,"x_min":53,"x_max":1121,"o":"m 460 -165 q 474 -180 464 -169 q 508 -199 485 -190 q 571 -208 531 -208 q 631 -198 611 -208 q 651 -169 651 -187 q 643 -147 651 -158 q 604 -124 635 -135 q 506 -104 574 -112 l 735 -72 q 842 -97 794 -82 q 917 -137 889 -111 q 946 -206 946 -162 q 851 -328 946 -282 q 579 -375 756 -375 q 387 -345 465 -375 q 267 -267 308 -315 q 218 -165 225 -218 l 460 -165 m 506 13 l 742 13 l 742 -132 l 506 -104 l 506 13 m 56 244 l 363 244 q 437 194 382 208 q 594 181 492 181 q 712 189 674 181 q 762 211 750 197 q 774 240 774 225 q 748 273 774 264 q 661 284 722 282 q 493 286 600 286 q 312 295 392 286 q 176 324 232 304 q 92 381 121 344 q 63 471 63 417 q 106 583 63 538 q 222 653 149 628 q 392 690 296 679 q 594 701 489 701 q 881 666 769 701 q 1044 571 992 631 q 1096 436 1097 511 l 797 436 q 740 486 782 472 q 594 500 697 500 q 453 485 497 500 q 410 439 410 471 q 431 408 410 418 q 513 393 453 397 q 690 389 574 389 q 848 383 771 389 q 987 360 925 378 q 1085 304 1049 342 q 1121 201 1121 267 q 1056 73 1121 122 q 874 1 992 24 q 594 -21 756 -21 q 358 -3 454 -21 q 200 45 261 15 q 106 110 139 75 q 63 181 74 146 q 56 244 53 217 z "},"ș":{"ha":1169,"x_min":53,"x_max":1121,"o":"m 56 244 l 363 244 q 437 194 382 208 q 594 181 492 181 q 712 189 674 181 q 762 211 750 197 q 774 240 774 225 q 748 273 774 264 q 661 284 722 282 q 493 286 600 286 q 312 295 392 286 q 176 324 232 304 q 92 381 121 344 q 63 471 63 417 q 106 583 63 538 q 222 653 149 628 q 392 690 296 679 q 594 701 489 701 q 881 666 769 701 q 1044 571 992 631 q 1096 436 1097 511 l 797 436 q 740 486 782 472 q 594 500 697 500 q 453 485 497 500 q 410 439 410 471 q 431 408 410 418 q 513 393 453 397 q 690 389 574 389 q 848 383 771 389 q 987 360 925 378 q 1085 304 1049 342 q 1121 201 1121 267 q 1056 73 1121 122 q 874 1 992 24 q 594 -21 756 -21 q 358 -3 454 -21 q 200 45 261 15 q 106 110 139 75 q 63 181 74 146 q 56 244 53 217 m 490 -407 l 471 -321 q 540 -295 511 -311 q 574 -260 569 -279 l 451 -244 l 451 -82 l 803 -82 l 803 -189 q 724 -330 803 -269 q 490 -407 646 -390 l 490 -407 z "},"ß":{"ha":1581,"x_min":76,"x_max":1567,"o":"m 707 -278 l 707 -64 q 978 -62 875 -64 q 1135 -51 1081 -60 q 1208 -25 1189 -43 q 1226 24 1226 -7 q 1208 73 1226 56 q 1140 99 1190 90 q 995 109 1089 107 q 749 111 901 111 l 707 111 l 707 311 l 1129 489 l 1140 431 l 388 431 l 388 639 l 1461 639 l 1461 472 l 971 210 l 969 285 q 1191 274 1085 283 q 1383 238 1297 264 q 1517 164 1468 213 q 1567 36 1567 115 q 1501 -135 1567 -72 q 1317 -229 1435 -199 q 1042 -269 1199 -260 q 707 -278 886 -278 m 76 0 l 76 708 q 108 847 76 792 q 212 931 139 903 q 410 958 285 958 l 776 958 l 776 736 l 507 736 q 431 713 453 736 q 410 638 410 689 l 410 0 l 76 0 z "},"t":{"ha":872,"x_min":28,"x_max":844,"o":"m 28 681 l 844 681 l 844 472 l 28 472 l 28 681 m 269 889 l 603 889 l 603 0 l 269 0 l 269 889 z "},"ŧ":{"ha":872,"x_min":28,"x_max":844,"o":"m 29 368 l 844 368 l 844 264 l 29 264 l 29 368 m 28 681 l 844 681 l 844 472 l 28 472 l 28 681 m 269 889 l 603 889 l 603 0 l 269 0 l 269 889 z "},"ť":{"ha":492,"x_min":28,"x_max":919,"o":"m 28 681 l 844 681 l 844 472 l 28 472 l 28 681 m 269 889 l 603 889 l 603 0 l 269 0 l 269 889 m 829 718 l 663 718 l 572 881 l 572 1029 l 919 1029 l 919 881 l 829 718 z "},"ţ":{"ha":872,"x_min":28,"x_max":844,"o":"m 272 -151 q 287 -166 276 -156 q 319 -185 297 -176 q 383 -194 342 -194 q 444 -184 424 -194 q 464 -156 464 -174 q 456 -133 464 -144 q 417 -110 447 -121 q 318 -90 386 -99 l 547 -58 q 654 -83 607 -68 q 730 -123 701 -97 q 758 -192 758 -149 q 663 -315 758 -268 q 392 -361 568 -361 q 199 -331 278 -361 q 79 -253 121 -301 q 31 -151 38 -204 l 272 -151 m 318 26 l 554 26 l 554 -118 l 318 -90 l 318 26 m 28 681 l 844 681 l 844 472 l 28 472 l 28 681 m 269 889 l 603 889 l 603 0 l 269 0 l 269 889 z "},"ț":{"ha":872,"x_min":28,"x_max":844,"o":"m 28 681 l 844 681 l 844 472 l 28 472 l 28 681 m 269 889 l 603 889 l 603 0 l 269 0 l 269 889 m 303 -393 l 283 -307 q 353 -281 324 -297 q 386 -246 382 -265 l 264 -231 l 264 -68 l 615 -68 l 615 -175 q 537 -316 615 -256 q 303 -393 458 -376 l 303 -393 z "},"u":{"ha":1386,"x_min":63,"x_max":1324,"o":"m 1324 0 l 990 0 l 990 681 l 1324 681 l 1324 0 m 1004 351 l 1007 285 q 980 217 1003 256 q 917 136 957 178 q 818 59 876 94 q 685 1 760 24 q 518 -21 610 -21 q 344 -2 426 -21 q 199 60 263 17 q 99 176 135 103 q 63 358 63 249 l 63 681 l 396 681 l 396 393 q 422 275 396 317 q 503 217 447 233 q 646 201 558 201 q 798 226 728 201 q 922 285 868 250 q 1004 351 975 319 z "},"ú":{"ha":1386,"x_min":63,"x_max":1324,"o":"m 1324 0 l 990 0 l 990 681 l 1324 681 l 1324 0 m 1004 351 l 1007 285 q 980 217 1003 256 q 917 136 957 178 q 818 59 876 94 q 685 1 760 24 q 518 -21 610 -21 q 344 -2 426 -21 q 199 60 263 17 q 99 176 135 103 q 63 358 63 249 l 63 681 l 396 681 l 396 393 q 422 275 396 317 q 503 217 447 233 q 646 201 558 201 q 798 226 728 201 q 922 285 868 250 q 1004 351 975 319 m 522 836 l 803 1044 l 1247 1044 l 857 836 l 522 836 z "},"û":{"ha":1386,"x_min":63,"x_max":1324,"o":"m 1324 0 l 990 0 l 990 681 l 1324 681 l 1324 0 m 1004 351 l 1007 285 q 980 217 1003 256 q 917 136 957 178 q 818 59 876 94 q 685 1 760 24 q 518 -21 610 -21 q 344 -2 426 -21 q 199 60 263 17 q 99 176 135 103 q 63 358 63 249 l 63 681 l 396 681 l 396 393 q 422 275 396 317 q 503 217 447 233 q 646 201 558 201 q 798 226 728 201 q 922 285 868 250 q 1004 351 975 319 m 907 1044 l 1215 836 l 879 836 l 582 1007 l 843 1006 l 544 836 l 210 836 l 518 1044 l 907 1044 z "},"ü":{"ha":1386,"x_min":63,"x_max":1324,"o":"m 1324 0 l 990 0 l 990 681 l 1324 681 l 1324 0 m 1004 351 l 1007 285 q 980 217 1003 256 q 917 136 957 178 q 818 59 876 94 q 685 1 760 24 q 518 -21 610 -21 q 344 -2 426 -21 q 199 60 263 17 q 99 176 135 103 q 63 358 63 249 l 63 681 l 396 681 l 396 393 q 422 275 396 317 q 503 217 447 233 q 646 201 558 201 q 798 226 728 201 q 922 285 868 250 q 1004 351 975 319 m 678 1046 l 678 836 l 325 836 l 325 1046 l 678 1046 m 1100 1046 l 1100 836 l 747 836 l 747 1046 l 1100 1046 z "},"ù":{"ha":1386,"x_min":63,"x_max":1324,"o":"m 1324 0 l 990 0 l 990 681 l 1324 681 l 1324 0 m 1004 351 l 1007 285 q 980 217 1003 256 q 917 136 957 178 q 818 59 876 94 q 685 1 760 24 q 518 -21 610 -21 q 344 -2 426 -21 q 199 60 263 17 q 99 176 135 103 q 63 358 63 249 l 63 681 l 396 681 l 396 393 q 422 275 396 317 q 503 217 447 233 q 646 201 558 201 q 798 226 728 201 q 922 285 868 250 q 1004 351 975 319 m 574 836 l 183 1044 l 628 1044 l 908 836 l 574 836 z "},"ű":{"ha":1386,"x_min":63,"x_max":1324,"o":"m 1324 0 l 990 0 l 990 681 l 1324 681 l 1324 0 m 1004 351 l 1007 285 q 980 217 1003 256 q 917 136 957 178 q 818 59 876 94 q 685 1 760 24 q 518 -21 610 -21 q 344 -2 426 -21 q 199 60 263 17 q 99 176 135 103 q 63 358 63 249 l 63 681 l 396 681 l 396 393 q 422 275 396 317 q 503 217 447 233 q 646 201 558 201 q 798 226 728 201 q 922 285 868 250 q 1004 351 975 319 m 751 836 l 965 1044 l 1249 1044 l 989 836 l 751 836 m 371 836 l 558 1044 l 840 1044 l 608 836 l 371 836 z "},"ū":{"ha":1386,"x_min":63,"x_max":1324,"o":"m 1324 0 l 990 0 l 990 681 l 1324 681 l 1324 0 m 1004 351 l 1007 285 q 980 217 1003 256 q 917 136 957 178 q 818 59 876 94 q 685 1 760 24 q 518 -21 610 -21 q 344 -2 426 -21 q 199 60 263 17 q 99 176 135 103 q 63 358 63 249 l 63 681 l 396 681 l 396 393 q 422 275 396 317 q 503 217 447 233 q 646 201 558 201 q 798 226 728 201 q 922 285 868 250 q 1004 351 975 319 m 397 838 l 397 975 l 1028 975 l 1028 838 l 397 838 z "},"ų":{"ha":1386,"x_min":63,"x_max":1324,"o":"m 1271 -333 q 915 -283 1044 -333 q 786 -146 786 -233 q 842 -45 786 -81 q 994 7 897 -10 q 1214 31 1090 24 l 1214 0 q 1081 -27 1126 -10 q 1036 -90 1036 -44 q 1069 -151 1036 -128 q 1155 -186 1101 -175 q 1271 -197 1208 -197 l 1271 -333 m 1324 0 l 990 0 l 990 681 l 1324 681 l 1324 0 m 1004 351 l 1007 285 q 980 217 1003 256 q 917 136 957 178 q 818 59 876 94 q 685 1 760 24 q 518 -21 610 -21 q 344 -2 426 -21 q 199 60 263 17 q 99 176 135 103 q 63 358 63 249 l 63 681 l 396 681 l 396 393 q 422 275 396 317 q 503 217 447 233 q 646 201 558 201 q 798 226 728 201 q 922 285 868 250 q 1004 351 975 319 z "},"ů":{"ha":1386,"x_min":63,"x_max":1324,"o":"m 1324 0 l 990 0 l 990 681 l 1324 681 l 1324 0 m 1004 351 l 1007 285 q 980 217 1003 256 q 917 136 957 178 q 818 59 876 94 q 685 1 760 24 q 518 -21 610 -21 q 344 -2 426 -21 q 199 60 263 17 q 99 176 135 103 q 63 358 63 249 l 63 681 l 396 681 l 396 393 q 422 275 396 317 q 503 217 447 233 q 646 201 558 201 q 798 226 728 201 q 922 285 868 250 q 1004 351 975 319 m 713 801 q 535 844 593 801 q 478 957 478 886 q 535 1069 478 1026 q 713 1111 593 1111 q 889 1069 831 1111 q 947 957 947 1026 q 889 844 947 886 q 713 801 831 801 m 713 892 q 791 906 768 892 q 814 957 814 919 q 791 1007 814 993 q 713 1021 768 1021 q 633 1007 656 1021 q 610 957 610 993 q 633 906 610 919 q 713 892 656 892 z "},"v":{"ha":1275,"x_min":7,"x_max":1268,"o":"m 708 125 l 550 128 l 900 681 l 1268 681 l 783 0 l 469 0 l 7 681 l 374 681 l 708 125 z "},"w":{"ha":2031,"x_min":7,"x_max":2024,"o":"m 1499 128 l 1354 131 l 1656 681 l 2024 681 l 1594 0 l 1281 0 l 929 528 l 1093 526 l 728 0 l 414 0 l 7 681 l 374 681 l 657 131 l 514 131 l 828 681 l 1196 681 l 1499 128 z "},"ẃ":{"ha":2031,"x_min":7,"x_max":2024,"o":"m 1499 128 l 1354 131 l 1656 681 l 2024 681 l 1594 0 l 1281 0 l 929 528 l 1093 526 l 728 0 l 414 0 l 7 681 l 374 681 l 657 131 l 514 131 l 828 681 l 1196 681 l 1499 128 m 821 836 l 1101 1044 l 1546 1044 l 1156 836 l 821 836 z "},"ŵ":{"ha":2031,"x_min":7,"x_max":2024,"o":"m 1499 128 l 1354 131 l 1656 681 l 2024 681 l 1594 0 l 1281 0 l 929 528 l 1093 526 l 728 0 l 414 0 l 7 681 l 374 681 l 657 131 l 514 131 l 828 681 l 1196 681 l 1499 128 m 1206 1044 l 1514 836 l 1178 836 l 881 1007 l 1142 1006 l 843 836 l 508 836 l 817 1044 l 1206 1044 z "},"ẅ":{"ha":2031,"x_min":7,"x_max":2024,"o":"m 1499 128 l 1354 131 l 1656 681 l 2024 681 l 1594 0 l 1281 0 l 929 528 l 1093 526 l 728 0 l 414 0 l 7 681 l 374 681 l 657 131 l 514 131 l 828 681 l 1196 681 l 1499 128 m 976 1046 l 976 836 l 624 836 l 624 1046 l 976 1046 m 1399 1046 l 1399 836 l 1046 836 l 1046 1046 l 1399 1046 z "},"ẁ":{"ha":2031,"x_min":7,"x_max":2024,"o":"m 1499 128 l 1354 131 l 1656 681 l 2024 681 l 1594 0 l 1281 0 l 929 528 l 1093 526 l 728 0 l 414 0 l 7 681 l 374 681 l 657 131 l 514 131 l 828 681 l 1196 681 l 1499 128 m 872 836 l 482 1044 l 926 1044 l 1207 836 l 872 836 z "},"x":{"ha":1361,"x_min":14,"x_max":1347,"o":"m 1319 681 l 764 281 l 422 0 l 14 0 l 578 417 l 911 681 l 1319 681 m 14 681 l 422 681 l 772 426 l 1347 0 l 939 0 l 574 265 l 14 681 z "},"y":{"ha":1292,"x_min":7,"x_max":1285,"o":"m 7 681 l 361 681 l 767 28 l 479 0 l 7 681 m 1285 681 l 608 -278 l 268 -278 l 558 115 l 931 681 l 1285 681 z "},"ý":{"ha":1292,"x_min":7,"x_max":1285,"o":"m 7 681 l 361 681 l 767 28 l 479 0 l 7 681 m 1285 681 l 608 -278 l 268 -278 l 558 115 l 931 681 l 1285 681 m 469 836 l 750 1044 l 1194 1044 l 804 836 l 469 836 z "},"ŷ":{"ha":1292,"x_min":7,"x_max":1285,"o":"m 7 681 l 361 681 l 767 28 l 479 0 l 7 681 m 1285 681 l 608 -278 l 268 -278 l 558 115 l 931 681 l 1285 681 m 854 1044 l 1163 836 l 826 836 l 529 1007 l 790 1006 l 492 836 l 157 836 l 465 1044 l 854 1044 z "},"ÿ":{"ha":1292,"x_min":7,"x_max":1285,"o":"m 7 681 l 361 681 l 767 28 l 479 0 l 7 681 m 1285 681 l 608 -278 l 268 -278 l 558 115 l 931 681 l 1285 681 m 625 1046 l 625 836 l 272 836 l 272 1046 l 625 1046 m 1047 1046 l 1047 836 l 694 836 l 694 1046 l 1047 1046 z "},"ỳ":{"ha":1292,"x_min":7,"x_max":1285,"o":"m 7 681 l 361 681 l 767 28 l 479 0 l 7 681 m 1285 681 l 608 -278 l 268 -278 l 558 115 l 931 681 l 1285 681 m 521 836 l 131 1044 l 575 1044 l 856 836 l 521 836 z "},"z":{"ha":1244,"x_min":83,"x_max":1161,"o":"m 1153 472 l 401 149 l 389 208 l 1161 208 l 1161 0 l 83 0 l 83 208 l 829 532 l 842 472 l 83 472 l 83 681 l 1153 681 l 1153 472 z "},"ź":{"ha":1244,"x_min":83,"x_max":1161,"o":"m 1153 472 l 401 149 l 389 208 l 1161 208 l 1161 0 l 83 0 l 83 208 l 829 532 l 842 472 l 83 472 l 83 681 l 1153 681 l 1153 472 m 426 836 l 707 1044 l 1151 1044 l 761 836 l 426 836 z "},"ž":{"ha":1244,"x_min":83,"x_max":1161,"o":"m 1153 472 l 401 149 l 389 208 l 1161 208 l 1161 0 l 83 0 l 83 208 l 829 532 l 842 472 l 83 472 l 83 681 l 1153 681 l 1153 472 m 747 875 l 486 874 l 783 1044 l 1119 1044 l 811 836 l 422 836 l 114 1044 l 449 1044 l 747 875 z "},"ż":{"ha":1244,"x_min":83,"x_max":1161,"o":"m 1153 472 l 401 149 l 389 208 l 1161 208 l 1161 0 l 83 0 l 83 208 l 829 532 l 842 472 l 83 472 l 83 681 l 1153 681 l 1153 472 m 793 1046 l 793 838 l 440 838 l 440 1046 l 793 1046 z "},"ﬁ":{"ha":1471,"x_min":28,"x_max":1394,"o":"m 861 431 l 861 639 l 1344 639 l 1344 431 l 861 431 m 1061 639 l 1394 639 l 1394 0 l 1061 0 l 1061 639 m 254 0 l 254 708 l 588 639 l 588 0 l 254 0 m 588 958 l 1394 958 l 1394 736 l 726 736 q 641 731 671 738 q 599 703 611 724 q 588 639 588 682 l 254 708 q 285 847 254 792 q 390 931 317 903 q 588 958 463 958 m 28 639 l 908 639 l 908 431 l 28 431 l 28 639 z "},"ª":{"ha":1393,"x_min":49,"x_max":1331,"o":"m 511 383 q 271 420 375 383 q 108 524 167 457 q 49 681 49 592 q 108 843 49 776 q 271 944 167 910 q 511 979 375 979 q 720 954 626 979 q 883 888 814 929 q 988 794 951 846 q 1025 686 1025 742 q 988 573 1025 628 q 883 476 951 518 q 720 408 814 433 q 511 383 626 383 m 608 590 q 751 595 682 590 q 876 610 821 600 q 965 638 932 621 q 997 681 997 656 q 965 724 997 707 q 876 752 932 742 q 751 767 821 763 q 608 771 682 771 q 451 750 507 771 q 394 681 394 729 q 451 612 394 633 q 608 590 507 590 m 997 958 l 1331 958 l 1331 403 l 1017 403 q 1012 434 1017 403 q 1002 522 1007 465 q 997 651 997 578 l 997 958 z "},"º":{"ha":1411,"x_min":104,"x_max":1307,"o":"m 708 382 q 381 411 515 382 q 175 506 246 440 q 104 679 104 571 q 175 853 104 788 q 381 949 246 919 q 708 979 515 979 q 1034 949 900 979 q 1238 853 1168 919 q 1307 679 1307 788 q 1238 506 1307 571 q 1034 411 1168 440 q 708 382 900 382 m 708 579 q 872 592 814 579 q 951 628 929 606 q 974 679 974 650 q 952 731 974 708 q 873 768 931 754 q 708 782 815 782 q 542 769 601 782 q 460 732 483 756 q 438 679 438 708 q 460 628 438 650 q 541 592 482 606 q 708 579 600 579 z "},"Α":{"ha":1611,"x_min":14,"x_max":1597,"o":"m 325 135 l 325 343 l 1275 343 l 1275 135 l 325 135 m 14 0 l 610 889 l 996 889 l 1597 0 l 1215 0 l 700 796 l 907 796 l 396 0 l 14 0 z "},"Β":{"ha":1583,"x_min":97,"x_max":1542,"o":"m 97 0 l 97 889 l 972 889 q 1369 836 1242 889 q 1497 653 1497 783 q 1442 525 1497 569 q 1285 463 1388 481 q 1040 442 1183 446 l 1051 453 q 1244 447 1156 453 q 1400 422 1333 442 q 1504 363 1467 403 q 1542 251 1542 322 q 1481 110 1542 165 q 1307 27 1419 54 q 1042 0 1194 0 l 97 0 m 444 261 l 1042 261 q 1148 275 1115 261 q 1181 319 1181 289 q 1166 353 1181 340 q 1121 372 1151 365 q 1042 378 1090 378 l 444 378 l 444 261 m 444 511 l 983 511 q 1090 525 1057 511 q 1122 569 1122 539 q 1090 615 1122 601 q 983 628 1057 628 l 444 628 l 444 511 z "},"Γ":{"ha":1317,"x_min":97,"x_max":1303,"o":"m 394 889 l 1303 889 l 1303 625 l 394 625 l 394 889 m 97 889 l 444 889 l 444 0 l 97 0 l 97 889 z "},"Δ":{"ha":1611,"x_min":14,"x_max":1597,"o":"m 325 0 l 325 208 l 1275 208 l 1275 0 l 325 0 m 14 0 l 610 889 l 996 889 l 1597 0 l 1215 0 l 700 796 l 907 796 l 396 0 l 14 0 z "},"Ε":{"ha":1583,"x_min":97,"x_max":1500,"o":"m 444 375 l 444 264 l 1500 264 l 1500 0 l 97 0 l 97 889 l 1497 889 l 1497 625 l 444 625 l 444 514 l 1306 514 l 1306 375 l 444 375 z "},"Ζ":{"ha":1556,"x_min":97,"x_max":1458,"o":"m 97 889 l 1458 889 l 1458 625 l 558 207 l 547 264 l 1458 264 l 1458 0 l 97 0 l 97 264 l 1001 682 l 1013 625 l 97 625 l 97 889 z "},"Η":{"ha":1778,"x_min":97,"x_max":1681,"o":"m 394 582 l 1372 582 l 1372 318 l 394 318 l 394 582 m 1333 889 l 1681 889 l 1681 0 l 1333 0 l 1333 889 m 97 889 l 444 889 l 444 0 l 97 0 l 97 889 z "},"Θ":{"ha":1847,"x_min":83,"x_max":1764,"o":"m 924 -28 q 436 26 621 -28 q 167 184 251 79 q 83 444 83 289 q 167 705 83 600 q 436 863 251 810 q 924 917 621 917 q 1411 863 1226 917 q 1680 705 1596 810 q 1764 444 1764 600 q 1680 184 1764 289 q 1411 26 1596 79 q 924 -28 1226 -28 m 924 236 q 1171 253 1067 236 q 1332 316 1275 271 q 1389 444 1389 361 q 1332 573 1389 528 q 1171 635 1275 618 q 924 653 1067 653 q 673 635 781 653 q 505 573 565 618 q 444 444 444 528 q 505 316 444 361 q 673 253 565 271 q 924 236 781 236 m 528 514 l 1306 514 l 1306 375 l 528 375 l 528 514 z "},"Ι":{"ha":583,"x_min":118,"x_max":465,"o":"m 118 889 l 465 889 l 465 0 l 118 0 l 118 889 z "},"Κ":{"ha":1688,"x_min":97,"x_max":1639,"o":"m 838 438 l 838 515 l 1639 0 l 1122 0 l 442 472 l 1069 889 l 1564 889 l 838 438 m 97 889 l 444 889 l 444 0 l 97 0 l 97 889 z "},"Λ":{"ha":1611,"x_min":14,"x_max":1597,"o":"m 14 0 l 610 889 l 996 889 l 1597 0 l 1215 0 l 700 796 l 907 796 l 396 0 l 14 0 z "},"Μ":{"ha":2194,"x_min":97,"x_max":2097,"o":"m 1200 106 l 992 106 l 1750 889 l 2097 889 l 2097 0 l 1750 0 l 1750 606 l 1854 563 l 1306 0 l 889 0 l 339 561 l 444 604 l 444 0 l 97 0 l 97 889 l 444 889 l 1200 106 z "},"Ν":{"ha":1806,"x_min":97,"x_max":1708,"o":"m 1490 272 l 1361 199 l 1361 889 l 1708 889 l 1708 0 l 1361 0 l 315 606 l 444 681 l 444 0 l 97 0 l 97 889 l 444 889 l 1490 272 z "},"Ξ":{"ha":1569,"x_min":83,"x_max":1486,"o":"m 83 889 l 1483 889 l 1483 625 l 83 625 l 83 889 m 83 264 l 1486 264 l 1486 0 l 83 0 l 83 264 m 275 514 l 1292 514 l 1292 375 l 275 375 l 275 514 z "},"Ο":{"ha":1847,"x_min":83,"x_max":1764,"o":"m 924 -28 q 436 26 621 -28 q 167 184 251 79 q 83 444 83 289 q 167 705 83 600 q 436 863 251 810 q 924 917 621 917 q 1411 863 1226 917 q 1680 705 1596 810 q 1764 444 1764 600 q 1680 184 1764 289 q 1411 26 1596 79 q 924 -28 1226 -28 m 924 236 q 1171 253 1067 236 q 1332 316 1275 271 q 1389 444 1389 361 q 1332 573 1389 528 q 1171 635 1275 618 q 924 653 1067 653 q 673 635 781 653 q 505 573 565 618 q 444 444 444 528 q 505 316 444 361 q 673 253 565 271 q 924 236 781 236 z "},"Π":{"ha":1778,"x_min":97,"x_max":1681,"o":"m 394 889 l 1372 889 l 1372 625 l 394 625 l 394 889 m 1333 889 l 1681 889 l 1681 0 l 1333 0 l 1333 889 m 97 889 l 444 889 l 444 0 l 97 0 l 97 889 z "},"Ρ":{"ha":1635,"x_min":94,"x_max":1558,"o":"m 419 229 l 419 472 l 1113 472 q 1183 485 1154 472 q 1211 542 1211 499 q 1183 599 1211 586 q 1113 611 1154 611 l 442 611 l 442 0 l 94 0 l 94 889 l 1058 889 q 1253 874 1163 889 q 1413 822 1344 860 q 1519 717 1481 785 q 1558 542 1558 649 q 1519 372 1558 435 q 1413 279 1481 310 q 1253 239 1344 249 q 1058 229 1163 229 l 419 229 z "},"Σ":{"ha":1564,"x_min":111,"x_max":1453,"o":"m 111 889 l 1439 889 l 1439 625 l 300 625 l 188 800 l 908 447 l 196 79 l 300 264 l 1453 264 l 1453 0 l 111 0 l 111 264 l 590 500 l 535 415 l 111 625 l 111 889 z "},"Τ":{"ha":1528,"x_min":42,"x_max":1486,"o":"m 42 889 l 1486 889 l 1486 625 l 42 625 l 42 889 m 590 643 l 938 643 l 938 0 l 590 0 l 590 643 z "},"Υ":{"ha":1486,"x_min":7,"x_max":1479,"o":"m 1479 889 l 917 226 l 917 0 l 569 0 l 569 226 l 7 889 l 417 889 l 874 313 l 617 313 l 1069 889 l 1479 889 z "},"Φ":{"ha":1903,"x_min":83,"x_max":1819,"o":"m 951 97 q 537 112 704 97 q 269 165 369 126 q 126 271 169 203 q 83 444 83 339 q 126 619 83 551 q 269 724 169 686 q 537 777 369 763 q 951 792 704 792 q 1367 777 1200 792 q 1633 724 1533 763 q 1776 619 1733 686 q 1819 444 1819 551 q 1776 271 1819 339 q 1633 165 1733 203 q 1367 112 1533 126 q 951 97 1200 97 m 951 361 q 1231 365 1122 361 q 1392 385 1340 368 q 1444 444 1444 403 q 1392 503 1444 486 q 1231 524 1340 521 q 951 528 1122 528 q 668 524 781 528 q 500 503 556 521 q 444 444 444 486 q 500 385 444 403 q 668 365 556 368 q 951 361 781 361 m 778 889 l 1125 889 l 1125 0 l 778 0 l 778 889 z "},"Χ":{"ha":1583,"x_min":42,"x_max":1542,"o":"m 1083 889 l 1528 889 l 903 361 l 889 350 l 486 0 l 42 0 l 694 547 l 704 556 l 1083 889 m 500 889 l 890 546 l 899 538 l 1542 0 l 1097 0 l 678 363 l 672 368 l 56 889 l 500 889 z "},"Ψ":{"ha":1850,"x_min":85,"x_max":1765,"o":"m 1765 643 q 1719 440 1765 521 q 1572 313 1672 360 q 1313 246 1472 265 q 925 226 1153 226 q 538 246 699 226 q 278 313 378 265 q 131 440 178 360 q 85 643 85 521 l 85 889 l 432 889 l 432 643 q 468 542 432 575 q 571 499 504 510 q 728 490 638 489 q 925 490 818 490 q 1122 490 1032 490 q 1278 499 1213 489 q 1381 542 1344 510 q 1418 643 1418 575 l 1418 889 l 1765 889 l 1765 643 m 751 889 l 1099 889 l 1099 0 l 751 0 l 751 889 z "},"Ω":{"ha":1750,"x_min":42,"x_max":1719,"o":"m 42 0 l 42 264 l 485 264 l 485 278 q 325 299 401 282 q 188 349 249 315 q 91 434 126 382 q 56 560 56 486 q 113 719 56 651 q 278 830 171 786 q 536 895 385 874 q 875 917 688 917 q 1214 895 1063 917 q 1472 830 1365 874 q 1637 719 1579 786 q 1694 560 1694 651 q 1657 434 1694 486 q 1558 349 1619 382 q 1419 299 1496 315 q 1263 278 1342 282 l 1263 264 l 1719 264 l 1719 0 l 1011 0 l 1011 278 q 1187 315 1111 296 q 1305 368 1263 335 q 1347 460 1347 401 q 1303 567 1347 525 q 1155 631 1258 610 q 875 653 1051 653 q 595 631 699 653 q 447 567 492 610 q 403 460 403 525 q 447 365 403 400 q 569 312 490 331 q 750 278 647 293 l 750 0 l 42 0 z "},"Ά":{"ha":1864,"x_min":0,"x_max":1850,"o":"m 578 135 l 578 343 l 1528 343 l 1528 135 l 578 135 m 267 0 l 863 889 l 1249 889 l 1850 0 l 1468 0 l 953 796 l 1160 796 l 649 0 l 267 0 m 0 681 l 281 889 l 725 889 l 335 681 l 0 681 z "},"Έ":{"ha":2267,"x_min":0,"x_max":2183,"o":"m 1128 375 l 1128 264 l 2183 264 l 2183 0 l 781 0 l 781 889 l 2181 889 l 2181 625 l 1128 625 l 1128 514 l 1989 514 l 1989 375 l 1128 375 m 0 681 l 281 889 l 725 889 l 335 681 l 0 681 z "},"Ή":{"ha":2461,"x_min":0,"x_max":2364,"o":"m 1078 582 l 2056 582 l 2056 318 l 1078 318 l 1078 582 m 2017 889 l 2364 889 l 2364 0 l 2017 0 l 2017 889 m 781 889 l 1128 889 l 1128 0 l 781 0 l 781 889 m 0 681 l 281 889 l 725 889 l 335 681 l 0 681 z "},"Ί":{"ha":1267,"x_min":0,"x_max":1149,"o":"m 801 889 l 1149 889 l 1149 0 l 801 0 l 801 889 m 0 681 l 281 889 l 725 889 l 335 681 l 0 681 z "},"Ό":{"ha":2399,"x_min":0,"x_max":2315,"o":"m 1475 -28 q 988 26 1172 -28 q 719 184 803 79 q 635 444 635 289 q 719 705 635 600 q 988 863 803 810 q 1475 917 1172 917 q 1963 863 1778 917 q 2231 705 2147 810 q 2315 444 2315 600 q 2231 184 2315 289 q 1963 26 2147 79 q 1475 -28 1778 -28 m 1475 236 q 1722 253 1618 236 q 1883 316 1826 271 q 1940 444 1940 361 q 1883 573 1940 528 q 1722 635 1826 618 q 1475 653 1618 653 q 1224 635 1332 653 q 1056 573 1117 618 q 996 444 996 528 q 1056 316 996 361 q 1224 253 1117 271 q 1475 236 1332 236 m 0 681 l 281 889 l 725 889 l 335 681 l 0 681 z "},"Ύ":{"ha":2211,"x_min":0,"x_max":2204,"o":"m 2204 889 l 1642 226 l 1642 0 l 1294 0 l 1294 226 l 732 889 l 1142 889 l 1599 313 l 1342 313 l 1794 889 l 2204 889 m 0 681 l 281 889 l 725 889 l 335 681 l 0 681 z "},"Ώ":{"ha":2239,"x_min":0,"x_max":2208,"o":"m 531 0 l 531 264 l 974 264 l 974 278 q 814 299 890 282 q 676 349 738 315 q 580 434 615 382 q 544 560 544 486 q 602 719 544 651 q 767 830 660 786 q 1025 895 874 874 q 1364 917 1176 917 q 1703 895 1551 917 q 1961 830 1854 874 q 2126 719 2068 786 q 2183 560 2183 651 q 2146 434 2183 486 q 2047 349 2108 382 q 1908 299 1985 315 q 1751 278 1831 282 l 1751 264 l 2208 264 l 2208 0 l 1500 0 l 1500 278 q 1676 315 1600 296 q 1794 368 1751 335 q 1836 460 1836 401 q 1792 567 1836 525 q 1644 631 1747 610 q 1364 653 1540 653 q 1084 631 1188 653 q 936 567 981 610 q 892 460 892 525 q 935 365 892 400 q 1058 312 979 331 q 1239 278 1136 293 l 1239 0 l 531 0 m 0 681 l 281 889 l 725 889 l 335 681 l 0 681 z "},"Ϊ":{"ha":583,"x_min":-96,"x_max":679,"o":"m 118 889 l 465 889 l 465 0 l 118 0 l 118 889 m 257 1171 l 257 961 l -96 961 l -96 1171 l 257 1171 m 679 1171 l 679 961 l 326 961 l 326 1171 l 679 1171 z "},"Ϋ":{"ha":1486,"x_min":7,"x_max":1479,"o":"m 1479 889 l 917 226 l 917 0 l 569 0 l 569 226 l 7 889 l 417 889 l 874 313 l 617 313 l 1069 889 l 1479 889 m 708 1171 l 708 961 l 356 961 l 356 1171 l 708 1171 m 1131 1171 l 1131 961 l 778 961 l 778 1171 l 1131 1171 z "},"α":{"ha":1476,"x_min":49,"x_max":1414,"o":"m 567 -19 q 300 23 417 -19 q 116 146 183 65 q 49 340 49 226 q 116 540 49 460 q 300 661 183 621 q 567 701 417 701 q 855 656 733 701 q 1042 530 976 611 q 1108 340 1108 449 q 1071 194 1108 260 q 963 80 1033 128 q 792 6 892 32 q 567 -19 692 -19 m 692 192 q 885 205 797 192 q 1027 250 974 218 q 1081 340 1081 282 q 1027 432 1081 400 q 885 476 974 464 q 692 489 797 489 q 472 452 550 489 q 394 340 394 415 q 429 258 394 292 q 531 208 464 225 q 692 192 597 192 m 1081 681 l 1414 681 l 1414 0 l 1100 0 q 1094 38 1099 6 q 1085 126 1089 69 q 1081 264 1081 183 l 1081 681 z "},"β":{"ha":1476,"x_min":63,"x_max":1413,"o":"m 1413 264 q 1349 96 1413 158 q 1173 6 1286 33 q 910 -21 1060 -21 q 685 5 785 -21 q 514 78 585 31 q 406 193 443 126 q 368 340 368 260 l 63 271 l 63 536 q 130 802 63 706 q 342 939 197 899 q 717 979 486 979 q 1197 911 1036 979 q 1358 703 1358 843 q 1330 596 1358 642 q 1233 523 1301 550 q 1047 494 1165 496 q 1253 464 1172 490 q 1373 387 1333 438 q 1413 264 1413 336 m 833 532 q 960 552 907 532 q 1013 633 1013 572 q 981 719 1013 690 q 883 758 949 747 q 715 768 817 768 q 594 764 651 768 q 492 742 536 760 q 422 686 447 725 q 396 578 396 647 l 396 340 q 449 249 396 282 q 591 204 503 217 q 785 192 679 192 q 1010 222 938 192 q 1082 326 1082 251 q 1054 397 1082 371 q 979 432 1026 422 q 875 442 932 442 l 554 442 l 554 532 l 833 532 m 63 285 l 351 350 l 396 350 l 396 -278 l 63 -278 l 63 285 z "},"γ":{"ha":1275,"x_min":7,"x_max":1268,"o":"m 460 69 l 793 69 l 793 -278 l 460 -278 l 460 69 m 708 125 l 550 128 l 900 681 l 1268 681 l 783 0 l 469 0 l 7 681 l 374 681 l 708 125 z "},"δ":{"ha":1436,"x_min":49,"x_max":1374,"o":"m 692 -21 q 342 15 486 -21 q 124 124 199 50 q 49 311 49 197 q 115 485 49 417 q 292 585 181 553 q 539 618 404 618 q 724 601 632 618 q 898 551 817 583 q 1038 476 979 519 q 1124 381 1097 432 l 1104 403 q 1010 535 1086 476 q 813 639 933 594 q 543 712 693 683 q 226 750 393 740 l 383 792 q 840 751 651 792 q 1147 644 1029 711 q 1319 497 1264 578 q 1374 338 1374 417 q 1335 192 1374 253 q 1228 90 1296 131 q 1074 24 1161 49 q 889 -10 988 0 q 692 -21 790 -21 m 719 192 q 922 203 842 192 q 1042 241 1003 215 q 1082 307 1082 267 q 1044 373 1082 349 q 947 408 1006 397 q 823 423 888 419 q 706 426 758 426 q 541 417 611 426 q 433 383 471 408 q 394 311 394 358 q 433 234 394 260 q 545 200 472 208 q 719 192 618 192 m 1306 958 l 1306 750 l 222 750 l 222 958 l 1306 958 z "},"ε":{"ha":1385,"x_min":63,"x_max":1350,"o":"m 713 -21 q 369 -4 515 -21 q 143 56 224 13 q 63 178 63 100 q 94 258 63 228 q 176 307 125 289 q 289 333 226 325 q 414 346 351 342 q 297 350 357 346 q 187 367 238 354 q 106 406 136 379 q 75 478 75 432 q 151 600 75 550 q 370 676 228 650 q 713 701 513 701 q 1051 665 921 701 q 1250 563 1181 628 q 1349 414 1319 499 l 1043 414 q 975 462 1021 443 q 863 490 929 481 q 713 500 796 500 q 504 483 578 500 q 431 429 431 467 q 452 401 431 410 q 512 392 474 393 q 600 390 550 390 l 921 390 l 921 301 l 600 301 q 510 300 550 301 q 447 288 471 299 q 424 253 424 278 q 463 210 424 226 q 567 188 501 194 q 713 181 632 181 q 863 190 796 181 q 976 219 929 200 q 1044 268 1022 239 l 1350 268 q 1287 151 1329 204 q 1172 59 1244 97 q 986 0 1099 21 q 713 -21 874 -21 z "},"ζ":{"ha":1139,"x_min":63,"x_max":1153,"o":"m 1153 750 q 785 662 931 708 q 556 565 639 615 q 438 458 472 514 q 403 339 403 401 q 431 245 403 278 q 508 198 460 213 q 617 178 557 183 q 742 169 678 174 q 866 150 806 164 q 975 105 926 136 q 1053 16 1024 74 q 1082 -136 1082 -42 l 1082 -278 l 749 -278 l 749 -136 q 719 -65 749 -89 q 642 -30 690 -40 q 532 -16 593 -19 q 406 -6 471 -12 q 279 16 340 0 q 169 65 218 32 q 92 158 121 99 q 63 311 63 218 q 106 470 63 401 q 226 589 150 539 q 398 673 301 639 q 601 729 494 707 q 815 765 708 751 q 1014 785 921 778 l 1153 750 m 1153 958 l 1153 750 l 139 750 l 139 958 l 1153 958 z "},"η":{"ha":1386,"x_min":63,"x_max":1324,"o":"m 63 681 l 396 681 l 396 0 l 63 0 l 63 681 m 896 701 q 1054 684 978 701 q 1191 625 1131 667 q 1288 511 1251 583 q 1324 329 1324 439 l 1324 -278 l 990 -278 l 990 288 q 936 435 990 392 q 740 479 882 479 q 595 463 665 479 q 469 423 525 446 q 382 378 414 400 l 379 431 q 417 501 385 456 q 513 592 450 546 q 670 669 575 638 q 896 701 765 701 z "},"θ":{"ha":1500,"x_min":63,"x_max":1438,"o":"m 757 -28 q 369 34 524 -28 q 139 210 215 96 q 63 479 63 324 q 139 749 63 635 q 369 924 215 863 q 757 986 524 986 q 1141 924 990 986 q 1365 749 1292 863 q 1438 479 1438 635 q 1365 210 1438 324 q 1141 34 1292 96 q 757 -28 990 -28 m 757 174 q 938 198 869 174 q 1040 264 1006 222 q 1085 361 1074 306 q 1097 479 1097 417 q 1085 597 1097 542 q 1040 694 1074 653 q 938 760 1006 736 q 757 785 869 785 q 574 760 644 785 q 467 694 504 736 q 417 597 431 653 q 403 479 403 542 q 417 361 403 417 q 467 264 431 306 q 574 198 504 222 q 757 174 644 174 m 368 549 l 1132 549 l 1132 410 l 368 410 l 368 549 z "},"ι":{"ha":576,"x_min":63,"x_max":521,"o":"m 521 0 q 249 6 350 -21 q 106 92 149 32 q 63 236 63 153 l 63 681 l 396 681 l 396 319 q 429 246 396 265 q 521 236 463 226 l 521 0 z "},"κ":{"ha":1294,"x_min":63,"x_max":1288,"o":"m 63 681 l 396 681 l 396 0 l 63 0 l 63 681 m 1240 681 l 690 299 l 697 479 l 1288 0 l 865 0 l 401 388 l 799 681 l 1240 681 z "},"λ":{"ha":1275,"x_min":7,"x_max":1268,"o":"m 532 556 l 718 556 l 375 0 l 7 0 l 492 681 l 806 681 l 1268 0 l 900 0 l 532 556 m 438 958 q 588 926 532 958 q 689 833 644 893 l 806 681 l 515 594 l 450 694 q 412 734 435 718 q 342 750 389 750 l 160 750 l 160 958 l 438 958 z "},"μ":{"ha":1476,"x_min":63,"x_max":1449,"o":"m 1449 0 q 1177 27 1278 0 q 1033 107 1076 54 q 990 236 990 160 l 990 681 l 1324 681 l 1324 347 q 1339 293 1324 311 q 1382 269 1354 275 q 1449 264 1410 264 l 1449 0 m 1004 351 l 1007 285 q 989 217 1003 256 q 949 136 975 178 q 881 59 922 94 q 781 1 840 24 q 643 -21 722 -21 q 453 29 522 -21 q 358 186 383 79 l 396 240 l 396 -278 l 63 -278 l 63 681 l 396 681 l 396 421 q 431 283 396 331 q 526 219 467 236 q 660 201 586 201 q 810 226 742 201 q 928 285 878 250 q 1004 351 978 319 z "},"ν":{"ha":1275,"x_min":7,"x_max":1268,"o":"m 708 125 l 550 128 l 900 681 l 1268 681 l 783 0 l 469 0 l 7 681 l 374 681 l 708 125 z "},"ξ":{"ha":1097,"x_min":63,"x_max":1097,"o":"m 63 235 q 96 341 63 300 q 183 406 129 382 q 301 442 236 431 q 428 457 365 453 q 311 459 371 457 q 201 472 251 461 q 119 511 150 483 q 89 589 89 539 q 128 664 89 635 q 236 710 168 693 q 391 736 304 728 q 574 748 478 744 q 766 753 671 751 q 944 761 861 756 l 1097 750 q 814 717 929 731 q 626 690 699 703 q 513 664 553 678 q 459 631 474 650 q 444 582 444 611 q 459 538 444 556 q 505 510 474 519 q 586 501 536 501 l 935 501 l 935 413 l 586 413 q 483 401 524 413 q 423 367 443 390 q 403 304 403 343 q 431 236 403 260 q 508 202 460 213 q 617 188 557 192 q 742 177 678 183 q 866 155 806 171 q 975 106 926 139 q 1053 14 1024 72 q 1082 -136 1082 -44 l 1082 -278 l 749 -278 l 749 -136 q 711 -56 749 -83 q 613 -18 674 -29 q 478 -1 551 -7 q 333 14 406 4 q 199 46 260 24 q 100 113 138 68 q 63 235 63 157 m 1097 958 l 1097 750 l 97 750 l 97 958 l 1097 958 z "},"ο":{"ha":1411,"x_min":49,"x_max":1363,"o":"m 708 -21 q 341 15 488 -21 q 122 131 194 51 q 49 339 49 210 q 122 548 49 468 q 341 665 194 628 q 708 701 488 701 q 1073 665 928 701 q 1290 548 1218 628 q 1363 339 1363 468 q 1290 131 1363 210 q 1073 15 1218 51 q 708 -21 928 -21 m 708 181 q 881 198 811 181 q 986 251 950 215 q 1022 339 1022 286 q 987 428 1022 392 q 882 482 951 464 q 708 500 813 500 q 534 482 606 500 q 426 428 463 464 q 389 339 389 393 q 425 251 389 286 q 533 198 461 215 q 708 181 604 181 z "},"π":{"ha":1583,"x_min":69,"x_max":1514,"o":"m 306 528 l 639 528 l 639 0 l 306 0 l 306 528 m 1514 681 l 1514 472 l 69 472 l 69 681 l 1514 681 m 1278 332 q 1300 260 1278 286 q 1374 228 1322 233 q 1514 236 1425 222 l 1514 0 q 1222 -9 1332 -21 q 1054 43 1111 3 q 978 150 997 83 q 958 304 958 217 l 958 528 l 1278 528 l 1278 332 z "},"ρ":{"ha":1476,"x_min":63,"x_max":1428,"o":"m 910 -21 q 685 5 785 -21 q 514 78 585 31 q 406 193 443 126 q 368 340 368 260 l 63 271 q 138 515 63 419 q 374 655 214 610 q 786 700 535 700 q 1135 658 992 700 q 1353 535 1278 615 q 1428 340 1428 454 q 1361 140 1428 221 q 1177 19 1294 60 q 910 -21 1060 -21 m 785 192 q 946 208 879 192 q 1047 258 1013 225 q 1082 340 1082 290 q 1004 451 1082 414 q 785 489 926 489 q 591 476 679 489 q 449 431 503 464 q 396 340 396 399 q 449 249 396 282 q 591 204 503 217 q 785 192 679 192 m 63 271 l 351 350 l 396 340 l 396 -278 l 63 -278 l 63 271 z "},"ς":{"ha":1381,"x_min":49,"x_max":1331,"o":"m 389 339 q 423 245 389 278 q 514 198 457 213 q 642 178 571 183 q 790 169 714 174 q 938 150 867 164 q 1067 105 1010 136 q 1159 16 1125 74 q 1193 -136 1193 -42 l 1193 -278 l 860 -278 l 860 -136 q 826 -65 860 -89 q 733 -32 792 -42 q 603 -18 675 -22 q 454 -8 531 -14 q 306 17 378 -1 q 175 72 233 35 q 83 173 117 108 q 49 339 49 238 q 127 551 49 471 q 356 666 206 631 q 722 701 507 701 q 1071 664 938 701 q 1267 556 1204 626 q 1331 386 1329 485 l 1025 386 q 925 470 1003 440 q 722 500 847 500 q 546 485 621 500 q 430 436 471 471 q 389 339 389 401 z "},"σ":{"ha":1411,"x_min":49,"x_max":1411,"o":"m 708 -21 q 341 15 488 -21 q 122 131 194 51 q 49 339 49 210 q 122 542 49 468 q 341 649 194 617 q 708 681 488 681 l 708 493 q 809 491 746 493 q 946 482 872 489 q 1093 460 1019 475 q 1228 418 1167 444 q 1326 352 1289 392 q 1363 257 1363 313 q 1290 119 1363 182 q 1073 17 1218 56 q 708 -21 928 -21 m 708 181 q 881 198 811 181 q 986 251 950 215 q 1022 339 1022 286 q 987 415 1022 385 q 882 458 951 444 q 708 472 813 472 q 534 461 606 472 q 426 422 463 450 q 389 339 389 393 q 425 251 389 286 q 533 198 461 215 q 708 181 604 181 m 1411 681 l 1411 472 l 708 472 l 708 681 l 1411 681 z "},"τ":{"ha":903,"x_min":69,"x_max":833,"o":"m 833 681 l 833 472 l 69 472 l 69 681 l 833 681 m 597 332 q 619 260 597 286 q 693 228 642 233 q 833 236 744 222 l 833 0 q 541 -9 651 -21 q 374 43 431 3 q 297 150 317 83 q 278 304 278 217 l 278 528 l 597 528 l 597 332 z "},"υ":{"ha":1383,"x_min":63,"x_max":1321,"o":"m 1321 681 l 981 681 l 981 367 q 914 228 981 276 q 694 181 847 181 q 470 228 538 181 q 403 367 403 276 l 403 681 l 63 681 l 63 367 q 213 71 63 163 q 694 -21 364 -21 q 1052 19 914 -21 q 1256 145 1190 60 q 1321 367 1321 231 l 1321 681 z "},"φ":{"ha":1717,"x_min":49,"x_max":1668,"o":"m 1668 340 q 1624 514 1668 446 q 1501 620 1579 582 q 1320 676 1422 658 q 1101 697 1218 693 q 861 701 983 701 q 622 697 740 701 q 401 676 504 693 q 218 620 297 658 q 94 514 139 582 q 49 340 49 446 q 94 167 49 235 q 218 60 139 99 q 401 5 297 22 q 622 -17 504 -12 q 861 -21 739 -21 q 1101 -17 983 -21 q 1321 5 1218 -12 q 1501 60 1424 22 q 1624 167 1579 99 q 1668 340 1668 235 m 390 340 q 433 440 390 406 q 578 487 476 474 q 861 500 681 500 q 1140 487 1039 500 q 1284 440 1242 474 q 1326 340 1326 406 q 1284 241 1326 275 q 1140 194 1242 207 q 861 181 1039 181 q 578 194 681 181 q 433 241 476 207 q 390 340 390 275 m 1025 -278 l 1025 958 l 692 958 l 692 -278 l 1025 -278 z "},"χ":{"ha":1361,"x_min":14,"x_max":1347,"o":"m 1319 681 l 778 142 l 408 -278 l 14 -278 l 564 278 l 925 681 l 1319 681 m 14 681 l 408 681 l 786 288 l 1347 -278 l 953 -278 l 560 126 l 14 681 z "},"ψ":{"ha":1633,"x_min":63,"x_max":1571,"o":"m 1571 681 l 1231 681 l 1231 408 q 1197 277 1231 328 q 1074 203 1163 226 q 819 181 985 181 q 563 203 653 181 q 438 277 472 226 q 403 408 403 328 l 403 681 l 63 681 l 63 408 q 101 208 63 290 q 228 76 140 126 q 462 2 317 25 q 819 -21 607 -21 q 1175 2 1031 -21 q 1406 76 1319 25 q 1532 208 1493 126 q 1571 408 1571 290 l 1571 681 m 983 -278 l 983 681 l 650 681 l 650 -278 l 983 -278 z "},"ω":{"ha":2051,"x_min":49,"x_max":2003,"o":"m 1454 -21 q 1192 19 1290 -21 q 1051 145 1094 60 q 1008 367 1008 231 l 1008 472 l 1196 472 l 1196 367 q 1217 265 1196 307 q 1288 202 1238 224 q 1426 181 1339 181 q 1569 201 1518 181 q 1642 258 1621 222 q 1663 340 1663 294 q 1640 423 1663 388 q 1561 479 1618 458 q 1399 500 1504 500 l 1399 701 q 1752 662 1619 701 q 1944 542 1885 622 q 2003 340 2003 463 q 1946 138 2003 218 q 1768 19 1889 58 q 1454 -21 1647 -21 m 597 -21 q 283 19 404 -21 q 106 138 163 58 q 49 340 49 218 q 108 542 49 463 q 299 662 167 622 q 653 701 432 701 l 653 500 q 491 479 549 500 q 411 423 433 458 q 389 340 389 388 q 410 258 389 294 q 483 201 431 222 q 625 181 535 181 q 764 202 714 181 q 835 265 814 224 q 856 367 856 307 l 856 472 l 1043 472 l 1043 367 q 1000 145 1043 231 q 859 19 957 60 q 597 -21 761 -21 z "},"ί":{"ha":576,"x_min":39,"x_max":764,"o":"m 521 0 q 249 6 350 -21 q 106 92 149 32 q 63 236 63 153 l 63 681 l 396 681 l 396 319 q 429 246 396 265 q 521 236 463 226 l 521 0 m 39 836 l 319 1044 l 764 1044 l 374 836 l 39 836 z "},"ϊ":{"ha":576,"x_min":-149,"x_max":626,"o":"m 521 0 q 249 6 350 -21 q 106 92 149 32 q 63 236 63 153 l 63 681 l 396 681 l 396 319 q 429 246 396 265 q 521 236 463 226 l 521 0 m 204 1046 l 204 836 l -149 836 l -149 1046 l 204 1046 m 626 1046 l 626 836 l 274 836 l 274 1046 l 626 1046 z "},"ΐ":{"ha":576,"x_min":-407,"x_max":1049,"o":"m 521 0 q 249 6 350 -21 q 106 92 149 32 q 63 236 63 153 l 63 681 l 396 681 l 396 319 q 429 246 396 265 q 521 236 463 226 l 521 0 m -54 1046 l -54 836 l -407 836 l -407 1046 l -54 1046 m 1049 1046 l 1049 836 l 696 836 l 696 1046 l 1049 1046 m -42 836 l 239 1046 l 683 1046 l 293 836 l -42 836 z "},"ύ":{"ha":1383,"x_min":63,"x_max":1321,"o":"m 1321 681 l 981 681 l 981 367 q 914 228 981 276 q 694 181 847 181 q 470 228 538 181 q 403 367 403 276 l 403 681 l 63 681 l 63 367 q 213 71 63 163 q 694 -21 364 -21 q 1052 19 914 -21 q 1256 145 1190 60 q 1321 367 1321 231 l 1321 681 m 504 836 l 785 1044 l 1229 1044 l 839 836 l 504 836 z "},"ϋ":{"ha":1383,"x_min":63,"x_max":1321,"o":"m 1321 681 l 981 681 l 981 367 q 914 228 981 276 q 694 181 847 181 q 470 228 538 181 q 403 367 403 276 l 403 681 l 63 681 l 63 367 q 213 71 63 163 q 694 -21 364 -21 q 1052 19 914 -21 q 1256 145 1190 60 q 1321 367 1321 231 l 1321 681 m 657 1046 l 657 836 l 304 836 l 304 1046 l 657 1046 m 1079 1046 l 1079 836 l 726 836 l 726 1046 l 1079 1046 z "},"ΰ":{"ha":1383,"x_min":-37,"x_max":1418,"o":"m 1321 681 l 981 681 l 981 367 q 914 228 981 276 q 694 181 847 181 q 470 228 538 181 q 403 367 403 276 l 403 681 l 63 681 l 63 367 q 213 71 63 163 q 694 -21 364 -21 q 1052 19 914 -21 q 1256 145 1190 60 q 1321 367 1321 231 l 1321 681 m 315 1046 l 315 836 l -37 836 l -37 1046 l 315 1046 m 1418 1046 l 1418 836 l 1065 836 l 1065 1046 l 1418 1046 m 328 836 l 608 1046 l 1053 1046 l 663 836 l 328 836 z "},"ό":{"ha":1411,"x_min":49,"x_max":1363,"o":"m 708 -21 q 341 15 488 -21 q 122 131 194 51 q 49 339 49 210 q 122 548 49 468 q 341 665 194 628 q 708 701 488 701 q 1073 665 928 701 q 1290 548 1218 628 q 1363 339 1363 468 q 1290 131 1363 210 q 1073 15 1218 51 q 708 -21 928 -21 m 708 181 q 881 198 811 181 q 986 251 950 215 q 1022 339 1022 286 q 987 428 1022 392 q 882 482 951 464 q 708 500 813 500 q 534 482 606 500 q 426 428 463 464 q 389 339 389 393 q 425 251 389 286 q 533 198 461 215 q 708 181 604 181 m 518 836 l 799 1044 l 1243 1044 l 853 836 l 518 836 z "},"ώ":{"ha":2051,"x_min":49,"x_max":2003,"o":"m 1454 -21 q 1192 19 1290 -21 q 1051 145 1094 60 q 1008 367 1008 231 l 1008 472 l 1196 472 l 1196 367 q 1217 265 1196 307 q 1288 202 1238 224 q 1426 181 1339 181 q 1569 201 1518 181 q 1642 258 1621 222 q 1663 340 1663 294 q 1640 423 1663 388 q 1561 479 1618 458 q 1399 500 1504 500 l 1399 701 q 1752 662 1619 701 q 1944 542 1885 622 q 2003 340 2003 463 q 1946 138 2003 218 q 1768 19 1889 58 q 1454 -21 1647 -21 m 597 -21 q 283 19 404 -21 q 106 138 163 58 q 49 340 49 218 q 108 542 49 463 q 299 662 167 622 q 653 701 432 701 l 653 500 q 491 479 549 500 q 411 423 433 458 q 389 340 389 388 q 410 258 389 294 q 483 201 431 222 q 625 181 535 181 q 764 202 714 181 q 835 265 814 224 q 856 367 856 307 l 856 472 l 1043 472 l 1043 367 q 1000 145 1043 231 q 859 19 957 60 q 597 -21 761 -21 m 826 836 l 1107 1044 l 1551 1044 l 1161 836 l 826 836 z "},"ά":{"ha":1476,"x_min":49,"x_max":1414,"o":"m 567 -19 q 300 23 417 -19 q 116 146 183 65 q 49 340 49 226 q 116 540 49 460 q 300 661 183 621 q 567 701 417 701 q 855 656 733 701 q 1042 530 976 611 q 1108 340 1108 449 q 1071 194 1108 260 q 963 80 1033 128 q 792 6 892 32 q 567 -19 692 -19 m 692 192 q 885 205 797 192 q 1027 250 974 218 q 1081 340 1081 282 q 1027 432 1081 400 q 885 476 974 464 q 692 489 797 489 q 472 452 550 489 q 394 340 394 415 q 429 258 394 292 q 531 208 464 225 q 692 192 597 192 m 1081 681 l 1414 681 l 1414 0 l 1100 0 q 1094 38 1099 6 q 1085 126 1089 69 q 1081 264 1081 183 l 1081 681 m 474 833 l 754 1042 l 1199 1042 l 808 833 l 474 833 z "},"έ":{"ha":1385,"x_min":63,"x_max":1350,"o":"m 713 -21 q 369 -4 515 -21 q 143 56 224 13 q 63 178 63 100 q 94 258 63 228 q 176 307 125 289 q 289 333 226 325 q 414 346 351 342 q 297 350 357 346 q 187 367 238 354 q 106 406 136 379 q 75 478 75 432 q 151 600 75 550 q 370 676 228 650 q 713 701 513 701 q 1051 665 921 701 q 1250 563 1181 628 q 1349 414 1319 499 l 1043 414 q 975 462 1021 443 q 863 490 929 481 q 713 500 796 500 q 504 483 578 500 q 431 429 431 467 q 452 401 431 410 q 512 392 474 393 q 600 390 550 390 l 921 390 l 921 301 l 600 301 q 510 300 550 301 q 447 288 471 299 q 424 253 424 278 q 463 210 424 226 q 567 188 501 194 q 713 181 632 181 q 863 190 796 181 q 976 219 929 200 q 1044 268 1022 239 l 1350 268 q 1287 151 1329 204 q 1172 59 1244 97 q 986 0 1099 21 q 713 -21 874 -21 m 519 836 l 800 1044 l 1244 1044 l 854 836 l 519 836 z "},"ή":{"ha":1386,"x_min":63,"x_max":1324,"o":"m 63 681 l 396 681 l 396 0 l 63 0 l 63 681 m 896 701 q 1054 684 978 701 q 1191 625 1131 667 q 1288 511 1251 583 q 1324 329 1324 439 l 1324 -278 l 990 -278 l 990 288 q 936 435 990 392 q 740 479 882 479 q 595 463 665 479 q 469 423 525 446 q 382 378 414 400 l 379 431 q 417 501 385 456 q 513 592 450 546 q 670 669 575 638 q 896 701 765 701 m 572 836 l 853 1044 l 1297 1044 l 907 836 l 572 836 z "},"⁄":{"ha":117,"x_min":-236,"x_max":367,"o":"m 292 972 l 367 931 l -164 -28 l -236 17 l 292 972 z "},"½":{"ha":2032,"x_min":35,"x_max":1976,"o":"m 35 333 l 35 521 l 318 521 l 318 704 l 35 704 l 35 892 l 596 892 l 596 521 l 832 521 l 832 333 l 35 333 m 1263 972 l 1338 931 l 807 -28 l 735 17 l 1263 972 m 1961 0 l 1169 0 l 1169 179 q 1416 216 1318 200 q 1572 245 1514 232 q 1657 271 1629 258 q 1693 295 1685 283 q 1701 321 1701 307 q 1588 368 1701 368 q 1435 351 1482 368 q 1378 311 1389 333 l 1136 311 q 1181 442 1136 381 q 1323 540 1225 503 q 1579 578 1421 578 q 1783 560 1693 578 q 1924 502 1872 543 q 1976 389 1976 461 q 1940 290 1976 326 q 1833 235 1904 254 q 1658 201 1763 215 l 1469 179 l 1961 193 l 1961 0 z "},"↉":{"ha":2065,"x_min":49,"x_max":2017,"o":"m 500 915 q 749 881 649 915 q 901 779 850 847 q 951 610 951 711 q 901 442 951 510 q 749 340 850 374 q 500 306 649 306 q 251 340 351 306 q 99 442 150 374 q 49 610 49 510 q 99 779 49 711 q 251 881 150 847 q 500 915 351 915 m 500 510 q 627 534 586 510 q 668 610 668 558 q 627 683 668 660 q 500 707 586 707 q 369 683 413 707 q 325 610 325 660 q 368 534 325 558 q 500 510 411 510 m 1292 972 l 1367 931 l 836 -28 l 764 17 l 1292 972 m 1754 265 q 1891 257 1832 264 q 1983 226 1950 250 q 2017 147 2017 201 q 1906 13 2017 54 q 1593 -28 1796 -28 q 1360 -3 1456 -28 q 1215 72 1264 21 q 1165 203 1165 122 l 1364 203 q 1424 167 1367 176 q 1589 157 1481 157 q 1724 164 1683 157 q 1764 199 1764 171 q 1719 232 1764 226 q 1589 238 1675 238 l 1400 238 l 1400 293 l 1589 293 q 1718 303 1683 293 q 1753 336 1753 314 q 1719 365 1753 356 q 1589 374 1685 374 q 1426 362 1483 374 q 1365 335 1368 350 l 1168 335 q 1225 476 1168 422 q 1376 553 1282 529 q 1583 578 1471 578 q 1898 534 1794 578 q 2001 406 2001 490 q 1933 306 2001 339 q 1754 265 1864 272 z "},"⅓":{"ha":2036,"x_min":35,"x_max":1988,"o":"m 35 333 l 35 521 l 318 521 l 318 704 l 35 704 l 35 892 l 596 892 l 596 521 l 832 521 l 832 333 l 35 333 m 1263 972 l 1338 931 l 807 -28 l 735 17 l 1263 972 m 1725 265 q 1862 257 1803 264 q 1954 226 1921 250 q 1988 147 1988 201 q 1877 13 1988 54 q 1564 -28 1767 -28 q 1331 -3 1426 -28 q 1185 72 1235 21 q 1136 203 1136 122 l 1335 203 q 1394 167 1338 176 q 1560 157 1451 157 q 1694 164 1654 157 q 1735 199 1735 171 q 1690 232 1735 226 q 1560 238 1646 238 l 1371 238 l 1371 293 l 1560 293 q 1689 303 1654 293 q 1724 336 1724 314 q 1690 365 1724 356 q 1560 374 1656 374 q 1397 362 1454 374 q 1336 335 1339 350 l 1139 335 q 1196 476 1139 422 q 1347 553 1253 529 q 1554 578 1442 578 q 1869 534 1765 578 q 1972 406 1972 490 q 1903 306 1972 339 q 1725 265 1835 272 z "},"⅔":{"ha":2107,"x_min":49,"x_max":2058,"o":"m 874 333 l 82 333 l 82 513 q 328 549 231 533 q 484 578 426 565 q 569 604 542 592 q 606 628 597 617 q 614 654 614 640 q 500 701 614 701 q 348 684 394 701 q 290 644 301 667 l 49 644 q 93 775 49 714 q 235 874 138 836 q 492 911 333 911 q 695 894 606 911 q 837 835 785 876 q 889 722 889 794 q 853 624 889 660 q 746 568 817 588 q 571 535 675 549 l 382 513 l 874 526 l 874 333 m 1333 972 l 1408 931 l 878 -28 l 806 17 l 1333 972 m 1796 265 q 1933 257 1874 264 q 2025 226 1992 250 q 2058 147 2058 201 q 1948 13 2058 54 q 1635 -28 1838 -28 q 1401 -3 1497 -28 q 1256 72 1306 21 q 1207 203 1207 122 l 1406 203 q 1465 167 1408 176 q 1631 157 1522 157 q 1765 164 1725 157 q 1806 199 1806 171 q 1761 232 1806 226 q 1631 238 1717 238 l 1442 238 l 1442 293 l 1631 293 q 1760 303 1725 293 q 1794 336 1794 314 q 1760 365 1794 356 q 1631 374 1726 374 q 1467 362 1525 374 q 1407 335 1410 350 l 1210 335 q 1267 476 1210 422 q 1418 553 1324 529 q 1625 578 1513 578 q 1940 534 1836 578 q 2043 406 2043 490 q 1974 306 2043 339 q 1796 265 1906 272 z "},"¼":{"ha":1939,"x_min":35,"x_max":1897,"o":"m 35 333 l 35 521 l 318 521 l 318 704 l 35 704 l 35 892 l 596 892 l 596 521 l 832 521 l 832 333 l 35 333 m 1263 972 l 1338 931 l 807 -28 l 735 17 l 1263 972 m 1496 0 l 1496 88 l 1074 88 l 1074 271 l 1544 557 l 1788 557 l 1788 240 l 1897 240 l 1897 88 l 1788 88 l 1788 0 l 1496 0 m 1329 222 l 1510 222 l 1510 367 l 1329 222 z "},"¾":{"ha":1972,"x_min":49,"x_max":1931,"o":"m 638 599 q 774 590 715 597 q 867 559 833 583 q 900 481 900 535 q 790 347 900 388 q 476 306 679 306 q 243 330 339 306 q 98 405 147 354 q 49 536 49 456 l 247 536 q 307 500 250 510 q 472 490 364 490 q 607 497 567 490 q 647 532 647 504 q 603 565 647 560 q 472 571 558 571 l 283 571 l 283 626 l 472 626 q 601 637 567 626 q 636 669 636 647 q 602 698 636 689 q 472 707 568 707 q 309 695 367 707 q 249 668 251 683 l 51 668 q 108 809 51 756 q 260 887 165 863 q 467 911 354 911 q 781 867 678 911 q 885 739 885 824 q 816 639 885 672 q 638 599 747 606 m 1296 972 l 1371 931 l 840 -28 l 768 17 l 1296 972 m 1529 0 l 1529 88 l 1107 88 l 1107 271 l 1578 557 l 1821 557 l 1821 240 l 1931 240 l 1931 88 l 1821 88 l 1821 0 l 1529 0 m 1363 222 l 1543 222 l 1543 367 l 1363 222 z "},"⅕":{"ha":2025,"x_min":35,"x_max":1956,"o":"m 35 333 l 35 521 l 318 521 l 318 704 l 35 704 l 35 892 l 596 892 l 596 521 l 832 521 l 832 333 l 35 333 m 1263 972 l 1338 931 l 807 -28 l 735 17 l 1263 972 m 1678 328 q 1821 311 1758 328 q 1919 258 1883 294 q 1956 160 1956 221 q 1863 16 1956 60 q 1565 -28 1771 -28 q 1354 -4 1444 -28 q 1214 65 1264 19 q 1164 176 1164 111 l 1367 176 q 1424 150 1369 160 q 1579 140 1479 140 q 1666 149 1632 140 q 1700 183 1700 157 q 1666 216 1700 211 q 1579 221 1632 221 q 1474 221 1524 221 q 1394 220 1425 221 q 1364 219 1364 219 l 1199 267 l 1218 558 l 1890 558 l 1890 378 l 1383 378 l 1375 269 q 1506 315 1432 303 q 1678 328 1581 328 z "},"⅖":{"ha":2096,"x_min":49,"x_max":2026,"o":"m 874 333 l 82 333 l 82 513 q 328 549 231 533 q 484 578 426 565 q 569 604 542 592 q 606 628 597 617 q 614 654 614 640 q 500 701 614 701 q 348 684 394 701 q 290 644 301 667 l 49 644 q 93 775 49 714 q 235 874 138 836 q 492 911 333 911 q 695 894 606 911 q 837 835 785 876 q 889 722 889 794 q 853 624 889 660 q 746 568 817 588 q 571 535 675 549 l 382 513 l 874 526 l 874 333 m 1333 972 l 1408 931 l 878 -28 l 806 17 l 1333 972 m 1749 328 q 1892 311 1829 328 q 1990 258 1954 294 q 2026 160 2026 221 q 1934 16 2026 60 q 1636 -28 1842 -28 q 1425 -4 1515 -28 q 1285 65 1335 19 q 1235 176 1235 111 l 1438 176 q 1495 150 1440 160 q 1650 140 1550 140 q 1737 149 1703 140 q 1771 183 1771 157 q 1737 216 1771 211 q 1650 221 1703 221 q 1545 221 1594 221 q 1465 220 1496 221 q 1435 219 1435 219 l 1269 267 l 1289 558 l 1961 558 l 1961 378 l 1454 378 l 1446 269 q 1577 315 1503 303 q 1749 328 1651 328 z "},"⅗":{"ha":2058,"x_min":49,"x_max":1989,"o":"m 638 599 q 774 590 715 597 q 867 559 833 583 q 900 481 900 535 q 790 347 900 388 q 476 306 679 306 q 243 330 339 306 q 98 405 147 354 q 49 536 49 456 l 247 536 q 307 500 250 510 q 472 490 364 490 q 607 497 567 490 q 647 532 647 504 q 603 565 647 560 q 472 571 558 571 l 283 571 l 283 626 l 472 626 q 601 637 567 626 q 636 669 636 647 q 602 698 636 689 q 472 707 568 707 q 309 695 367 707 q 249 668 251 683 l 51 668 q 108 809 51 756 q 260 887 165 863 q 467 911 354 911 q 781 867 678 911 q 885 739 885 824 q 816 639 885 672 q 638 599 747 606 m 1296 972 l 1371 931 l 840 -28 l 768 17 l 1296 972 m 1711 328 q 1854 311 1792 328 q 1953 258 1917 294 q 1989 160 1989 221 q 1897 16 1989 60 q 1599 -28 1804 -28 q 1388 -4 1478 -28 q 1247 65 1297 19 q 1197 176 1197 111 l 1400 176 q 1458 150 1403 160 q 1613 140 1513 140 q 1699 149 1665 140 q 1733 183 1733 157 q 1699 216 1733 211 q 1613 221 1665 221 q 1508 221 1557 221 q 1428 220 1458 221 q 1397 219 1397 219 l 1232 267 l 1251 558 l 1924 558 l 1924 378 l 1417 378 l 1408 269 q 1540 315 1465 303 q 1711 328 1614 328 z "},"⅘":{"ha":2072,"x_min":69,"x_max":2003,"o":"m 492 333 l 492 421 l 69 421 l 69 604 l 540 890 l 783 890 l 783 574 l 893 574 l 893 421 l 783 421 l 783 333 l 492 333 m 325 556 l 506 556 l 506 700 l 325 556 m 1310 972 l 1385 931 l 854 -28 l 782 17 l 1310 972 m 1725 328 q 1868 311 1806 328 q 1967 258 1931 294 q 2003 160 2003 221 q 1910 16 2003 60 q 1613 -28 1818 -28 q 1401 -4 1492 -28 q 1261 65 1311 19 q 1211 176 1211 111 l 1414 176 q 1472 150 1417 160 q 1626 140 1526 140 q 1713 149 1679 140 q 1747 183 1747 157 q 1713 216 1747 211 q 1626 221 1679 221 q 1522 221 1571 221 q 1442 220 1472 221 q 1411 219 1411 219 l 1246 267 l 1265 558 l 1938 558 l 1938 378 l 1431 378 l 1422 269 q 1553 315 1479 303 q 1725 328 1628 328 z "},"⅙":{"ha":1951,"x_min":35,"x_max":1903,"o":"m 35 333 l 35 521 l 318 521 l 318 704 l 35 704 l 35 892 l 596 892 l 596 521 l 832 521 l 832 333 l 35 333 m 1263 972 l 1338 931 l 807 -28 l 735 17 l 1263 972 m 1608 393 q 1826 345 1749 393 q 1903 200 1903 297 q 1810 31 1903 90 q 1515 -28 1718 -28 q 1262 -4 1365 -28 q 1106 65 1158 19 q 1053 176 1053 110 q 1065 244 1053 206 q 1132 329 1078 282 q 1178 367 1146 340 q 1249 426 1210 393 q 1324 488 1288 458 q 1385 538 1361 518 q 1410 557 1410 557 l 1719 557 l 1428 357 q 1510 383 1465 372 q 1608 393 1554 393 m 1492 156 q 1631 169 1592 156 q 1669 204 1669 182 q 1631 242 1669 231 q 1492 254 1592 254 q 1351 242 1400 254 q 1303 204 1303 231 q 1351 167 1303 179 q 1492 156 1400 156 z "},"⅚":{"ha":1918,"x_min":76,"x_max":1869,"o":"m 590 661 q 733 644 671 661 q 832 591 796 628 q 868 493 868 554 q 776 349 868 393 q 478 306 683 306 q 267 329 357 306 q 126 399 176 353 q 76 510 76 444 l 279 510 q 337 483 282 493 q 492 474 392 474 q 578 482 544 474 q 613 517 613 490 q 578 549 613 544 q 492 554 544 554 q 387 554 436 554 q 307 553 338 554 q 276 553 276 553 l 111 600 l 131 892 l 803 892 l 803 711 l 296 711 l 288 603 q 419 649 344 636 q 590 661 493 661 m 1229 972 l 1304 931 l 774 -28 l 701 17 l 1229 972 m 1575 393 q 1792 345 1715 393 q 1869 200 1869 297 q 1777 31 1869 90 q 1482 -28 1685 -28 q 1228 -4 1332 -28 q 1072 65 1125 19 q 1019 176 1019 110 q 1032 244 1019 206 q 1099 329 1044 282 q 1144 367 1113 340 q 1215 426 1176 393 q 1291 488 1254 458 q 1352 538 1328 518 q 1376 557 1376 557 l 1686 557 l 1394 357 q 1476 383 1432 372 q 1575 393 1521 393 m 1458 156 q 1597 169 1558 156 q 1636 204 1636 182 q 1597 242 1636 231 q 1458 254 1558 254 q 1318 242 1367 254 q 1269 204 1269 231 q 1318 167 1269 179 q 1458 156 1367 156 z "},"⅐":{"ha":2096,"x_min":35,"x_max":2054,"o":"m 35 333 l 35 521 l 318 521 l 318 704 l 35 704 l 35 892 l 596 892 l 596 521 l 832 521 l 832 333 l 35 333 m 1263 972 l 1338 931 l 807 -28 l 735 17 l 1263 972 m 1226 369 l 1226 557 l 2054 557 l 2054 344 l 1750 0 l 1403 0 l 1756 369 l 1226 369 z "},"⅛":{"ha":2015,"x_min":35,"x_max":1967,"o":"m 35 333 l 35 521 l 318 521 l 318 704 l 35 704 l 35 892 l 596 892 l 596 521 l 832 521 l 832 333 l 35 333 m 1263 972 l 1338 931 l 807 -28 l 735 17 l 1263 972 m 1753 281 q 1858 265 1810 279 q 1937 221 1907 250 q 1967 144 1967 192 q 1927 55 1967 93 q 1797 -4 1888 17 q 1551 -25 1706 -25 q 1306 -4 1397 -25 q 1176 55 1215 17 q 1136 144 1136 93 q 1166 221 1136 192 q 1242 265 1196 250 q 1338 281 1288 279 q 1251 301 1292 286 q 1185 345 1211 317 q 1160 418 1160 374 q 1251 540 1160 503 q 1551 578 1343 578 q 1851 540 1760 578 q 1943 418 1943 503 q 1887 320 1943 351 q 1753 281 1831 289 m 1551 397 q 1448 388 1475 397 q 1421 360 1421 379 q 1448 329 1421 342 q 1551 317 1475 317 q 1660 329 1629 317 q 1690 360 1690 342 q 1660 388 1690 379 q 1551 397 1629 397 m 1551 157 q 1681 167 1644 157 q 1717 197 1717 178 q 1681 228 1717 218 q 1551 238 1644 238 q 1426 228 1458 238 q 1394 197 1394 218 q 1426 167 1394 178 q 1551 157 1458 157 z "},"⅜":{"ha":2049,"x_min":49,"x_max":2000,"o":"m 638 599 q 774 590 715 597 q 867 559 833 583 q 900 481 900 535 q 790 347 900 388 q 476 306 679 306 q 243 330 339 306 q 98 405 147 354 q 49 536 49 456 l 247 536 q 307 500 250 510 q 472 490 364 490 q 607 497 567 490 q 647 532 647 504 q 603 565 647 560 q 472 571 558 571 l 283 571 l 283 626 l 472 626 q 601 637 567 626 q 636 669 636 647 q 602 698 636 689 q 472 707 568 707 q 309 695 367 707 q 249 668 251 683 l 51 668 q 108 809 51 756 q 260 887 165 863 q 467 911 354 911 q 781 867 678 911 q 885 739 885 824 q 816 639 885 672 q 638 599 747 606 m 1296 972 l 1371 931 l 840 -28 l 768 17 l 1296 972 m 1786 281 q 1892 265 1843 279 q 1970 221 1940 250 q 2000 144 2000 192 q 1960 55 2000 93 q 1830 -4 1921 17 q 1585 -25 1739 -25 q 1340 -4 1431 -25 q 1209 55 1249 17 q 1169 144 1169 93 q 1199 221 1169 192 q 1275 265 1229 250 q 1371 281 1321 279 q 1285 301 1325 286 q 1219 345 1244 317 q 1193 418 1193 374 q 1285 540 1193 503 q 1585 578 1376 578 q 1885 540 1793 578 q 1976 418 1976 503 q 1920 320 1976 351 q 1786 281 1864 289 m 1585 397 q 1481 388 1508 397 q 1454 360 1454 379 q 1481 329 1454 342 q 1585 317 1508 317 q 1693 329 1663 317 q 1724 360 1724 342 q 1693 388 1724 379 q 1585 397 1663 397 m 1585 157 q 1714 167 1678 157 q 1750 197 1750 178 q 1714 228 1750 218 q 1585 238 1678 238 q 1460 228 1492 238 q 1428 197 1428 218 q 1460 167 1428 178 q 1585 157 1492 157 z "},"⅝":{"ha":1982,"x_min":76,"x_max":1933,"o":"m 590 661 q 733 644 671 661 q 832 591 796 628 q 868 493 868 554 q 776 349 868 393 q 478 306 683 306 q 267 329 357 306 q 126 399 176 353 q 76 510 76 444 l 279 510 q 337 483 282 493 q 492 474 392 474 q 578 482 544 474 q 613 517 613 490 q 578 549 613 544 q 492 554 544 554 q 387 554 436 554 q 307 553 338 554 q 276 553 276 553 l 111 600 l 131 892 l 803 892 l 803 711 l 296 711 l 288 603 q 419 649 344 636 q 590 661 493 661 m 1229 972 l 1304 931 l 774 -28 l 701 17 l 1229 972 m 1719 281 q 1825 265 1776 279 q 1903 221 1874 250 q 1933 144 1933 192 q 1894 55 1933 93 q 1763 -4 1854 17 q 1518 -25 1672 -25 q 1273 -4 1364 -25 q 1142 55 1182 17 q 1103 144 1103 93 q 1133 221 1103 192 q 1208 265 1163 250 q 1304 281 1254 279 q 1218 301 1258 286 q 1152 345 1178 317 q 1126 418 1126 374 q 1218 540 1126 503 q 1518 578 1310 578 q 1818 540 1726 578 q 1910 418 1910 503 q 1853 320 1910 351 q 1719 281 1797 289 m 1518 397 q 1415 388 1442 397 q 1388 360 1388 379 q 1415 329 1388 342 q 1518 317 1442 317 q 1626 329 1596 317 q 1657 360 1657 342 q 1626 388 1657 379 q 1518 397 1596 397 m 1518 157 q 1647 167 1611 157 q 1683 197 1683 178 q 1647 228 1683 218 q 1518 238 1611 238 q 1393 228 1425 238 q 1361 197 1361 218 q 1393 167 1361 178 q 1518 157 1425 157 z "},"⅞":{"ha":1914,"x_min":42,"x_max":1865,"o":"m 42 703 l 42 890 l 869 890 l 869 678 l 565 333 l 218 333 l 571 703 l 42 703 m 1161 972 l 1236 931 l 706 -28 l 633 17 l 1161 972 m 1651 281 q 1757 265 1708 279 q 1835 221 1806 250 q 1865 144 1865 192 q 1826 55 1865 93 q 1695 -4 1786 17 q 1450 -25 1604 -25 q 1205 -4 1296 -25 q 1074 55 1114 17 q 1035 144 1035 93 q 1065 221 1035 192 q 1140 265 1094 250 q 1236 281 1186 279 q 1150 301 1190 286 q 1084 345 1110 317 q 1058 418 1058 374 q 1150 540 1058 503 q 1450 578 1242 578 q 1750 540 1658 578 q 1842 418 1842 503 q 1785 320 1842 351 q 1651 281 1729 289 m 1450 397 q 1347 388 1374 397 q 1319 360 1319 379 q 1347 329 1319 342 q 1450 317 1374 317 q 1558 329 1528 317 q 1589 360 1589 342 q 1558 388 1589 379 q 1450 397 1528 397 m 1450 157 q 1579 167 1543 157 q 1615 197 1615 178 q 1579 228 1615 218 q 1450 238 1543 238 q 1325 228 1357 238 q 1293 197 1293 218 q 1325 167 1293 178 q 1450 157 1357 157 z "},"⅑":{"ha":2035,"x_min":35,"x_max":1986,"o":"m 35 333 l 35 521 l 318 521 l 318 704 l 35 704 l 35 892 l 596 892 l 596 521 l 832 521 l 832 333 l 35 333 m 1263 972 l 1338 931 l 807 -28 l 735 17 l 1263 972 m 1524 576 q 1778 553 1675 576 q 1933 485 1881 531 q 1986 372 1986 440 q 1974 306 1986 343 q 1907 219 1961 268 q 1861 183 1893 208 q 1790 126 1829 157 q 1715 66 1751 94 q 1653 19 1678 38 q 1629 0 1629 0 l 1319 0 l 1596 185 q 1531 164 1565 172 q 1458 156 1496 156 q 1217 203 1299 156 q 1136 349 1136 250 q 1228 518 1136 460 q 1524 576 1321 576 m 1547 294 q 1688 307 1639 294 q 1736 346 1736 319 q 1688 381 1736 369 q 1547 393 1639 393 q 1421 381 1458 393 q 1383 346 1383 368 q 1421 307 1383 319 q 1547 294 1458 294 z "},"⅒":{"ha":3121,"x_min":35,"x_max":2982,"o":"m 35 333 l 35 521 l 318 521 l 318 704 l 35 704 l 35 892 l 596 892 l 596 521 l 832 521 l 832 333 l 35 333 m 1263 972 l 1338 931 l 807 -28 l 735 17 l 1263 972 m 1219 0 l 1219 188 l 1503 188 l 1503 371 l 1219 371 l 1219 558 l 1781 558 l 1781 188 l 2017 188 l 2017 0 l 1219 0 m 2531 582 q 2780 548 2679 582 q 2931 446 2881 514 q 2982 276 2982 378 q 2931 108 2982 175 q 2780 6 2881 40 q 2531 -28 2679 -28 q 2281 6 2382 -28 q 2130 108 2181 40 q 2079 276 2079 175 q 2130 446 2079 378 q 2281 548 2181 514 q 2531 582 2382 582 m 2531 176 q 2658 201 2617 176 q 2699 276 2699 225 q 2658 350 2699 326 q 2531 374 2617 374 q 2399 350 2443 374 q 2356 276 2356 326 q 2399 201 2356 225 q 2531 176 2442 176 z "},"¹":{"ha":343,"x_min":56,"x_max":260,"o":"m 56 883 l 56 972 l 260 972 l 260 556 l 165 556 l 165 883 l 56 883 z "},"²":{"ha":463,"x_min":63,"x_max":393,"o":"m 199 640 l 389 649 l 389 556 l 82 556 l 82 643 q 196 723 149 693 q 267 776 243 753 q 292 829 292 799 q 275 872 292 856 q 226 889 258 889 q 174 865 193 889 q 165 808 156 842 l 74 808 q 81 897 63 857 q 140 962 100 938 q 233 986 181 986 q 352 944 311 986 q 393 843 393 901 q 344 728 393 772 q 199 640 294 685 z "},"³":{"ha":456,"x_min":65,"x_max":386,"o":"m 289 763 q 386 657 386 742 q 349 570 386 610 q 231 531 313 531 q 103 578 142 531 q 69 686 65 626 l 161 686 q 173 648 160 668 q 231 628 186 628 q 276 643 263 628 q 290 681 290 658 q 224 728 290 728 l 147 728 l 147 796 l 224 796 q 271 810 257 796 q 285 846 285 824 q 228 892 285 892 q 174 875 189 892 q 161 840 160 858 l 76 840 q 107 942 67 899 q 231 986 147 986 q 342 951 304 986 q 381 861 381 915 q 359 800 381 826 q 289 763 338 774 z "},"⁴":{"ha":436,"x_min":56,"x_max":408,"o":"m 353 744 l 408 744 l 408 661 l 353 661 l 353 556 l 265 556 l 265 661 l 56 661 l 56 744 l 260 976 l 353 976 l 353 744 m 265 744 l 265 869 l 157 744 l 265 744 z "},"\r":{"ha":833,"x_min":0,"x_max":0,"o":""}," ":{"ha":431,"x_min":0,"x_max":0,"o":""}," ":{"ha":431,"x_min":0,"x_max":0,"o":""},"·":{"ha":492,"x_min":69,"x_max":422,"o":"m 422 681 l 422 471 l 69 471 l 69 681 l 422 681 z "},";":{"ha":492,"x_min":69,"x_max":422,"o":"m 422 665 l 422 456 l 69 456 l 69 665 l 422 665 m 110 -176 l 90 -90 q 137 -41 113 -79 q 165 40 161 -3 l 71 56 l 71 268 l 422 268 l 422 139 q 349 -72 422 13 q 110 -176 275 -157 z "},".":{"ha":492,"x_min":69,"x_max":422,"o":"m 422 210 l 422 0 l 69 0 l 69 210 l 422 210 z "},",":{"ha":421,"x_min":35,"x_max":386,"o":"m 74 -232 l 54 -146 q 101 -97 76 -135 q 129 -15 125 -58 l 35 0 l 35 213 l 386 213 l 386 83 q 313 -128 386 -43 q 74 -232 239 -212 z "},":":{"ha":492,"x_min":69,"x_max":422,"o":"m 422 210 l 422 0 l 69 0 l 69 210 l 422 210 m 422 713 l 422 503 l 69 503 l 69 713 l 422 713 z "},";":{"ha":492,"x_min":69,"x_max":422,"o":"m 422 665 l 422 456 l 69 456 l 69 665 l 422 665 m 110 -176 l 90 -90 q 137 -41 113 -79 q 165 40 161 -3 l 71 56 l 71 268 l 422 268 l 422 139 q 349 -72 422 13 q 110 -176 275 -157 z "},"…":{"ha":1447,"x_min":69,"x_max":1378,"o":"m 1378 210 l 1378 0 l 1025 0 l 1025 210 l 1378 210 m 422 210 l 422 0 l 69 0 l 69 210 l 422 210 m 900 210 l 900 0 l 547 0 l 547 210 l 900 210 z "},"!":{"ha":547,"x_min":97,"x_max":450,"o":"m 100 958 l 447 958 l 447 283 l 100 283 l 100 958 m 450 210 l 450 0 l 97 0 l 97 210 l 450 210 z "},"¡":{"ha":547,"x_min":97,"x_max":450,"o":"m 100 -118 l 100 557 l 447 557 l 447 -118 l 100 -118 m 450 631 l 97 631 l 97 840 l 450 840 l 450 631 z "},"?":{"ha":1200,"x_min":53,"x_max":1144,"o":"m 397 279 l 397 488 l 586 488 q 750 513 703 488 q 797 592 797 539 q 745 678 797 656 q 586 701 693 701 q 464 690 506 701 q 406 661 422 678 q 383 631 389 644 l 57 631 q 64 703 53 660 q 108 794 75 747 q 201 884 140 842 q 357 953 263 926 q 586 979 451 979 q 852 951 744 979 q 1024 873 960 924 q 1117 754 1089 822 q 1144 606 1144 686 q 1086 424 1144 497 q 931 315 1028 351 q 717 279 833 279 l 717 279 l 397 279 m 394 0 l 394 210 l 747 210 l 747 0 l 394 0 z "},"¿":{"ha":1200,"x_min":56,"x_max":1147,"o":"m 453 625 l 453 835 l 806 835 l 806 625 l 453 625 m 817 204 l 1143 204 q 1136 131 1147 175 q 1092 40 1125 88 q 999 -49 1060 -7 q 843 -118 938 -92 q 613 -144 749 -144 q 347 -117 454 -144 q 176 -38 240 -89 q 83 81 111 13 q 56 229 56 149 q 114 411 56 339 q 269 519 172 483 q 483 556 367 556 l 483 556 l 803 556 l 803 347 l 613 347 q 450 322 497 347 q 403 243 403 296 q 455 156 403 179 q 613 133 507 133 q 736 145 694 133 q 794 174 778 157 q 817 204 811 190 z "},"·":{"ha":492,"x_min":69,"x_max":422,"o":"m 422 483 l 422 274 l 69 274 l 69 483 l 422 483 z "},"•":{"ha":664,"x_min":125,"x_max":539,"o":"m 125 571 l 539 571 l 539 157 l 125 157 l 125 571 z "},"*":{"ha":925,"x_min":28,"x_max":897,"o":"m 826 910 l 897 689 l 625 619 l 796 411 l 608 275 l 456 514 l 304 276 l 118 411 l 294 624 l 28 693 l 99 913 l 356 813 l 338 1085 l 569 1085 l 550 800 l 826 910 z "},"#":{"ha":1933,"x_min":83,"x_max":1850,"o":"m 1169 889 l 1517 889 l 1517 0 l 1169 0 l 1169 889 m 417 889 l 764 889 l 764 0 l 417 0 l 417 889 m 1850 363 l 1850 154 l 83 154 l 83 363 l 1850 363 m 1850 735 l 1850 526 l 83 526 l 83 735 l 1850 735 z "},"/":{"ha":864,"x_min":69,"x_max":794,"o":"m 546 1140 l 794 1050 l 318 -258 l 69 -168 l 546 1140 z "},"\\":{"ha":864,"x_min":69,"x_max":794,"o":"m 318 1140 l 794 -168 l 546 -258 l 69 1050 l 318 1140 z "},"-":{"ha":819,"x_min":111,"x_max":708,"o":"m 111 482 l 708 482 l 708 274 l 111 274 l 111 482 z "},"­":{"ha":833,"x_min":111,"x_max":708,"o":"m 111 482 l 708 482 l 708 274 l 111 274 l 111 482 z "},"–":{"ha":972,"x_min":111,"x_max":861,"o":"m 111 482 l 861 482 l 861 274 l 111 274 l 111 482 z "},"—":{"ha":1306,"x_min":83,"x_max":1222,"o":"m 83 482 l 1222 482 l 1222 274 l 83 274 l 83 482 z "},"_":{"ha":1361,"x_min":69,"x_max":1292,"o":"m 69 -69 l 1292 -69 l 1292 -278 l 69 -278 l 69 -69 z "},"(":{"ha":563,"x_min":83,"x_max":479,"o":"m 479 -135 l 374 -240 q 344 -213 374 -240 q 272 -134 315 -186 q 185 -5 229 -82 q 113 173 142 72 q 83 397 83 274 q 113 620 83 521 q 185 794 142 719 q 272 919 229 869 q 344 995 315 969 q 374 1021 374 1021 l 479 915 q 451 883 479 915 q 385 787 422 851 q 320 625 349 722 q 292 397 292 528 q 310 198 292 285 q 358 48 329 111 q 414 -56 386 -15 q 460 -115 442 -96 q 479 -135 479 -135 z "},")":{"ha":563,"x_min":83,"x_max":479,"o":"m 83 -135 q 102 -115 83 -135 q 149 -56 121 -96 q 205 48 176 -15 q 252 198 233 111 q 271 397 271 285 q 242 625 271 528 q 177 787 214 722 q 112 883 140 851 q 83 915 83 915 l 189 1021 q 218 995 189 1021 q 291 919 247 969 q 378 794 335 869 q 450 620 421 719 q 479 397 479 521 q 450 173 479 274 q 378 -5 421 72 q 291 -134 335 -82 q 218 -213 247 -186 q 189 -240 189 -240 l 83 -135 z "},"{":{"ha":865,"x_min":42,"x_max":740,"o":"m 181 1111 l 740 1111 l 740 903 l 428 903 q 439 856 428 885 q 465 790 450 826 q 492 711 481 753 q 503 626 503 669 q 445 515 503 560 q 294 447 388 471 q 89 418 200 424 l 89 446 q 294 418 200 442 q 445 350 388 394 q 503 238 503 306 q 492 153 503 194 q 465 74 481 111 q 439 8 450 38 q 428 -39 428 -21 l 740 -39 l 740 -247 l 181 -247 q 183 -112 169 -182 q 222 24 197 -43 q 265 146 246 90 q 285 238 285 201 q 231 331 285 299 q 42 363 178 363 l 42 501 q 231 533 178 501 q 285 626 285 565 q 265 718 285 663 q 222 840 246 774 q 183 977 197 907 q 181 1111 169 1047 z "},"}":{"ha":865,"x_min":125,"x_max":824,"o":"m 581 626 q 635 533 581 565 q 824 501 689 501 l 824 363 q 635 331 689 363 q 581 238 581 299 q 601 146 581 201 q 644 24 621 90 q 682 -112 668 -43 q 685 -247 696 -182 l 125 -247 l 125 -39 l 438 -39 q 426 8 438 -21 q 400 74 415 38 q 374 153 385 111 q 363 238 363 194 q 420 350 363 306 q 572 418 478 394 q 776 446 667 442 l 776 418 q 572 447 667 424 q 420 515 478 471 q 363 626 363 560 q 374 711 363 669 q 400 790 385 753 q 426 856 415 826 q 438 903 438 885 l 125 903 l 125 1111 l 685 1111 q 682 977 696 1047 q 644 840 668 907 q 601 718 621 774 q 581 626 581 663 z "},"[":{"ha":764,"x_min":125,"x_max":681,"o":"m 681 -65 l 681 -274 l 125 -274 l 125 1111 l 681 1111 l 681 903 l 333 903 l 333 -65 l 681 -65 z "},"]":{"ha":764,"x_min":83,"x_max":639,"o":"m 83 -65 l 431 -65 l 431 903 l 83 903 l 83 1111 l 639 1111 l 639 -274 l 83 -274 l 83 -65 z "},"‚":{"ha":421,"x_min":35,"x_max":386,"o":"m 74 -232 l 54 -146 q 101 -97 76 -135 q 129 -15 125 -58 l 35 0 l 35 213 l 386 213 l 386 83 q 313 -128 386 -43 q 74 -232 239 -212 z "},"„":{"ha":842,"x_min":35,"x_max":807,"o":"m 74 -232 l 54 -146 q 101 -97 76 -135 q 129 -15 125 -58 l 35 0 l 35 213 l 386 213 l 386 83 q 313 -128 386 -43 q 74 -232 239 -214 m 494 -232 l 475 -146 q 522 -97 497 -135 q 550 -15 546 -58 l 456 0 l 456 213 l 807 213 l 807 83 q 733 -128 807 -43 q 494 -232 660 -214 z "},"“":{"ha":842,"x_min":35,"x_max":807,"o":"m 347 988 l 367 901 q 320 853 344 890 q 292 771 296 815 l 386 756 l 386 543 l 35 543 l 35 672 q 109 885 35 800 q 347 988 183 969 m 768 988 l 788 901 q 741 853 765 890 q 713 771 717 815 l 807 756 l 807 543 l 456 543 l 456 672 q 530 885 456 800 q 768 988 604 969 z "},"”":{"ha":842,"x_min":35,"x_max":807,"o":"m 74 474 l 54 560 q 101 609 76 571 q 129 690 125 647 l 35 706 l 35 918 l 386 918 l 386 789 q 313 577 386 663 q 74 474 239 492 m 494 474 l 475 560 q 522 609 497 571 q 550 690 546 647 l 456 706 l 456 918 l 807 918 l 807 789 q 733 577 807 663 q 494 474 660 492 z "},"‘":{"ha":421,"x_min":35,"x_max":386,"o":"m 347 988 l 367 901 q 320 853 344 890 q 292 771 296 815 l 386 756 l 386 543 l 35 543 l 35 672 q 109 885 35 800 q 347 988 183 969 z "},"’":{"ha":421,"x_min":35,"x_max":386,"o":"m 74 474 l 54 560 q 101 609 76 571 q 129 690 125 647 l 35 706 l 35 918 l 386 918 l 386 789 q 313 577 386 663 q 74 474 239 492 z "},"«":{"ha":1075,"x_min":83,"x_max":964,"o":"m 458 792 l 610 651 l 356 389 l 613 122 l 458 -15 l 83 388 l 458 792 m 961 588 l 785 394 l 964 200 l 811 63 l 506 394 l 811 726 l 961 588 z "},"»":{"ha":1075,"x_min":111,"x_max":992,"o":"m 465 651 l 615 792 l 992 388 l 615 -15 l 463 122 l 719 389 l 465 651 m 113 588 l 264 726 l 568 394 l 264 63 l 111 200 l 290 394 l 113 588 z "},"‹":{"ha":682,"x_min":83,"x_max":613,"o":"m 83 388 l 458 792 l 610 651 l 229 257 l 83 388 m 83 388 l 229 519 l 613 122 l 458 -15 l 83 388 z "},"›":{"ha":682,"x_min":69,"x_max":599,"o":"m 599 388 l 453 257 l 71 651 l 222 792 l 599 388 m 599 388 l 222 -15 l 69 122 l 453 519 l 599 388 z "},"\"":{"ha":839,"x_min":35,"x_max":804,"o":"m 292 606 l 125 606 l 35 768 l 35 917 l 382 917 l 382 768 l 292 606 m 714 606 l 547 606 l 457 768 l 457 917 l 804 917 l 804 768 l 714 606 z "},"'":{"ha":417,"x_min":35,"x_max":382,"o":"m 292 606 l 125 606 l 35 768 l 35 917 l 382 917 l 382 768 l 292 606 z "},"ƒ":{"ha":1750,"x_min":42,"x_max":1708,"o":"m 1239 917 q 1512 874 1408 917 q 1662 751 1615 831 q 1708 561 1708 671 l 1403 561 q 1360 627 1397 601 q 1239 653 1322 653 q 1147 642 1185 653 q 1087 609 1110 631 q 1053 555 1064 588 q 1042 478 1042 522 l 1042 440 q 976 190 1042 292 q 794 38 911 89 q 522 -14 678 -14 q 259 31 367 -14 q 97 154 151 76 q 42 329 42 232 l 347 329 q 398 269 353 288 q 522 250 443 250 q 628 269 588 250 q 689 330 669 288 q 708 440 708 372 l 708 478 q 774 724 708 626 q 958 869 839 821 q 1239 917 1078 917 m 456 497 l 1204 497 l 1204 407 l 456 407 l 456 497 z "},"":{"ha":1194,"x_min":42,"x_max":1153,"o":"m 597 -14 q 378 19 479 -14 q 201 113 276 51 q 83 260 125 174 q 42 451 42 346 q 83 644 42 558 q 201 790 125 729 q 378 884 276 851 q 597 917 479 917 q 817 884 717 917 q 994 790 918 851 q 1111 644 1069 729 q 1153 451 1153 558 q 1111 260 1153 346 q 994 113 1069 174 q 817 19 918 51 q 597 -14 717 -14 m 450 74 q 378 143 408 101 q 325 232 347 185 q 228 192 267 217 q 326 119 269 149 q 450 74 383 89 m 197 228 q 306 283 239 263 q 289 354 296 319 q 281 424 282 389 l 128 424 q 149 317 131 365 q 197 228 167 268 m 567 65 l 567 257 q 465 253 511 256 q 379 243 418 250 q 454 126 407 175 q 567 65 501 76 m 128 479 l 279 479 q 307 628 283 556 q 201 681 243 649 q 150 590 169 640 q 128 479 131 539 m 361 299 q 456 312 404 307 q 567 318 507 317 l 567 424 l 340 424 q 361 299 344 358 m 629 65 q 741 125 694 76 q 815 242 788 174 q 731 252 776 249 q 629 257 685 256 l 629 65 m 340 479 l 567 479 l 567 594 q 456 601 507 596 q 361 614 404 606 q 340 479 344 550 m 744 74 q 965 190 878 103 q 922 213 946 203 q 868 231 899 224 q 816 142 847 183 q 744 74 785 101 m 326 679 q 376 763 347 725 q 444 828 406 801 q 233 717 317 799 q 326 679 271 693 m 833 297 q 847 360 842 328 q 854 424 853 393 l 629 424 l 629 318 q 833 297 747 317 m 567 656 l 567 839 q 455 783 501 829 q 381 669 408 736 q 465 660 418 664 q 567 656 511 657 m 629 479 l 854 479 q 847 549 853 515 q 832 615 842 583 q 629 594 749 597 l 629 479 m 996 225 q 1045 315 1026 265 q 1067 424 1064 365 l 914 424 q 906 353 913 389 q 888 282 899 318 q 947 258 921 272 q 996 225 974 243 m 629 656 q 730 660 685 657 q 814 671 775 664 q 740 783 786 736 q 629 839 694 829 l 629 656 m 915 479 l 1067 479 q 1044 592 1064 540 q 990 683 1024 643 q 944 654 969 667 q 888 631 918 642 q 915 479 911 556 m 867 682 q 917 699 894 689 q 958 719 940 708 q 750 828 875 799 q 818 764 789 801 q 867 682 847 726 z "},"@":{"ha":2081,"x_min":49,"x_max":2032,"o":"m 1007 -121 q 482 -56 696 -121 q 158 135 268 8 q 49 444 49 261 q 162 748 49 632 q 497 918 275 864 q 1040 972 718 972 q 1588 917 1368 972 q 1920 747 1808 863 q 2032 444 2032 631 q 1987 251 2032 324 q 1862 147 1942 179 q 1675 114 1782 114 q 1499 140 1569 114 q 1388 208 1428 165 q 1330 302 1347 251 q 1313 403 1313 353 l 1313 682 l 1646 682 l 1646 439 q 1653 360 1646 396 q 1683 304 1661 325 q 1747 283 1704 283 q 1814 304 1792 283 q 1844 358 1836 325 q 1851 428 1851 392 q 1795 627 1851 549 q 1634 751 1739 706 q 1381 815 1529 796 q 1049 833 1232 833 q 713 815 864 833 q 453 752 561 796 q 288 633 346 708 q 229 444 229 558 q 319 210 229 306 q 584 67 410 115 q 1011 18 758 18 q 1186 24 1101 18 q 1338 38 1271 29 q 1442 54 1406 46 l 1496 -81 q 1381 -99 1456 -89 q 1209 -115 1306 -108 q 1007 -121 1113 -121 m 825 135 q 586 172 690 135 q 423 276 482 208 q 364 435 364 343 q 422 592 364 525 q 582 694 479 658 q 824 731 685 731 q 1094 688 978 731 q 1276 578 1211 646 q 1340 435 1340 511 q 1303 324 1340 378 q 1198 227 1267 269 q 1035 160 1129 185 q 825 135 940 135 m 947 342 q 1073 347 1008 342 q 1192 362 1138 351 q 1279 390 1246 372 q 1313 433 1313 407 q 1278 476 1313 458 q 1190 503 1244 493 q 1072 518 1136 514 q 947 522 1008 522 q 769 503 828 522 q 710 432 710 485 q 769 361 710 381 q 947 342 828 342 z "},"&":{"ha":1694,"x_min":49,"x_max":1667,"o":"m 533 -21 q 349 -5 436 -21 q 194 42 261 11 q 88 122 126 74 q 49 233 49 169 q 94 351 49 307 q 223 416 140 394 q 419 446 306 438 q 665 456 532 454 l 667 447 q 431 458 539 449 q 244 490 324 467 q 120 553 164 513 q 76 658 76 594 q 153 806 76 749 q 374 890 229 863 q 721 917 518 917 q 989 896 865 917 q 1204 831 1113 875 q 1347 720 1296 788 q 1399 560 1399 653 l 1067 560 q 972 629 1061 606 q 735 653 883 653 q 509 635 581 653 q 438 574 438 618 q 471 524 438 543 q 583 498 504 506 q 799 490 661 490 l 1667 490 l 1667 393 l 1401 393 l 1401 0 l 1088 0 q 1078 65 1083 24 q 1070 162 1074 107 q 1067 279 1067 217 l 1090 263 q 1042 176 1075 224 q 947 83 1008 128 q 785 8 886 38 q 533 -21 685 -21 m 700 193 q 913 212 832 193 q 1031 262 993 231 q 1068 331 1068 293 l 1068 393 l 799 393 q 515 378 613 393 q 417 303 417 364 q 486 226 417 258 q 700 193 556 193 z "},"¶":{"ha":1532,"x_min":42,"x_max":1435,"o":"m 1435 889 l 1435 0 l 1101 0 l 1101 231 l 936 231 l 936 0 l 603 0 l 603 231 l 518 231 q 260 263 367 231 q 98 366 154 294 q 42 556 42 438 q 94 747 42 674 q 250 855 147 821 q 504 889 353 889 l 1435 889 m 500 474 l 1101 474 l 1101 611 l 500 611 q 424 599 458 611 q 389 543 389 586 q 423 486 389 499 q 500 474 457 474 z "},"§":{"ha":1207,"x_min":49,"x_max":1151,"o":"m 696 336 l 785 343 q 1042 278 954 328 q 1131 146 1131 228 q 1010 0 1131 50 q 660 -50 889 -50 q 431 -31 535 -50 q 253 25 328 -11 q 142 110 179 61 q 114 215 106 158 l 397 215 q 472 173 411 188 q 643 158 532 158 q 786 172 747 158 q 825 221 825 186 q 807 258 825 244 q 738 276 789 271 q 588 285 686 282 q 274 313 393 292 q 102 374 156 333 q 49 478 49 414 q 106 572 49 539 q 281 613 164 606 q 572 600 397 621 l 458 592 q 236 647 318 619 q 119 707 154 674 q 83 785 83 740 q 211 933 83 879 q 565 986 339 986 q 946 917 810 986 q 1086 725 1082 849 l 781 725 q 722 765 774 753 q 557 778 669 778 q 434 766 479 778 q 389 718 389 754 q 410 675 389 692 q 486 650 432 658 q 635 636 540 642 q 925 607 811 629 q 1095 548 1039 585 q 1151 458 1151 511 q 1042 354 1151 383 q 696 336 933 325 m 396 474 q 425 422 396 442 q 515 392 454 401 q 668 383 575 383 q 773 408 742 389 q 804 467 804 428 q 781 519 804 500 q 702 547 757 539 q 554 553 647 554 q 433 528 471 547 q 396 474 396 510 z "},"©":{"ha":2261,"x_min":83,"x_max":2178,"o":"m 1133 -14 q 573 43 808 -14 q 210 207 338 100 q 83 461 83 314 q 209 710 83 610 q 570 860 335 810 q 1133 911 806 911 q 1693 860 1460 911 q 2052 710 1926 810 q 2178 461 2178 610 q 2051 207 2178 314 q 1691 43 1925 100 q 1133 -14 1457 -14 m 1133 125 q 1470 146 1314 125 q 1745 208 1626 167 q 1931 313 1864 250 q 1997 461 1997 376 q 1931 606 1997 546 q 1747 702 1865 665 q 1472 756 1629 739 q 1133 772 1315 772 q 792 756 950 772 q 515 702 633 739 q 331 606 397 665 q 264 461 264 546 q 331 313 264 376 q 517 208 397 250 q 794 146 636 167 q 1133 125 951 125 m 1728 421 q 1673 315 1728 360 q 1492 246 1618 269 q 1154 222 1367 222 q 682 274 836 222 q 528 447 528 325 q 596 579 528 529 q 803 652 664 629 q 1154 675 942 675 q 1492 651 1367 675 q 1672 583 1617 628 q 1726 476 1726 539 l 1488 476 q 1394 520 1469 504 q 1154 536 1319 536 q 869 517 957 536 q 782 447 782 497 q 869 380 782 399 q 1154 361 956 361 q 1395 378 1319 361 q 1489 421 1471 394 l 1728 421 z "},"®":{"ha":2261,"x_min":83,"x_max":2178,"o":"m 1133 54 q 573 111 808 54 q 210 275 338 168 q 83 529 83 382 q 209 778 83 678 q 570 928 335 878 q 1133 979 806 979 q 1693 928 1460 979 q 2052 778 1926 878 q 2178 529 2178 678 q 2051 275 2178 382 q 1691 111 1925 168 q 1133 54 1457 54 m 1133 193 q 1470 212 1314 193 q 1745 271 1626 231 q 1931 375 1864 311 q 1997 529 1997 439 q 1931 679 1997 619 q 1747 774 1865 739 q 1472 825 1629 810 q 1133 840 1315 840 q 792 825 950 840 q 515 774 633 810 q 331 679 397 739 q 264 529 264 619 q 331 375 264 439 q 517 271 397 311 q 794 212 636 231 q 1133 193 951 193 m 729 293 l 729 757 l 1378 757 q 1565 721 1499 757 q 1631 592 1631 685 q 1590 491 1631 524 q 1443 458 1550 458 q 1553 445 1517 454 q 1602 421 1590 436 q 1614 382 1614 406 l 1614 293 l 1428 293 l 1428 358 q 1413 394 1428 382 q 1358 410 1399 406 q 1236 414 1317 414 l 917 414 l 917 293 l 729 293 m 915 532 l 1390 532 q 1428 540 1414 532 q 1443 572 1443 549 q 1428 603 1443 596 q 1390 610 1414 610 l 915 610 l 915 532 z "},"™":{"ha":2354,"x_min":97,"x_max":2257,"o":"m 674 542 l 396 542 l 396 694 l 97 694 l 97 889 l 986 889 l 986 694 l 674 694 l 674 542 m 1672 644 l 1979 889 l 2257 889 l 2257 542 l 1979 542 l 1979 683 l 1813 535 l 1535 535 l 1368 682 l 1368 542 l 1090 542 l 1090 889 l 1368 889 l 1672 644 m 2257 233 l 118 233 l 118 428 l 2257 428 l 2257 233 z "},"°":{"ha":924,"x_min":56,"x_max":868,"o":"m 463 413 q 244 439 336 413 q 104 519 153 465 q 56 657 56 574 q 104 794 56 740 q 244 876 153 849 q 463 903 336 903 q 680 876 589 903 q 819 794 771 849 q 868 657 868 740 q 819 519 868 574 q 680 439 771 465 q 463 413 589 413 m 463 524 q 649 558 593 524 q 706 657 706 593 q 649 751 706 717 q 463 785 593 785 q 276 751 332 785 q 219 657 219 717 q 276 558 219 593 q 463 524 332 524 z "},"|":{"ha":611,"x_min":139,"x_max":472,"o":"m 139 1111 l 472 1111 l 472 -222 l 139 -222 l 139 1111 z "},"¦":{"ha":611,"x_min":139,"x_max":472,"o":"m 472 340 l 472 -222 l 139 -222 l 139 340 l 472 340 m 472 1111 l 472 549 l 139 549 l 139 1111 l 472 1111 z "},"†":{"ha":1569,"x_min":111,"x_max":1458,"o":"m 111 694 l 1458 694 l 1458 431 l 111 431 l 111 694 m 618 972 l 951 972 l 951 -278 l 618 -278 l 618 972 z "},"‡":{"ha":1431,"x_min":42,"x_max":1389,"o":"m 549 -278 l 549 972 l 882 972 l 882 -278 l 549 -278 m 42 0 l 42 264 l 1389 264 l 1389 0 l 42 0 m 42 431 l 42 694 l 1389 694 l 1389 431 l 42 431 z "},"¢":{"ha":1381,"x_min":49,"x_max":1332,"o":"m 1026 296 l 1332 296 q 1269 125 1332 196 q 1072 17 1207 54 q 722 -21 938 -21 q 706 -21 714 -21 q 689 -21 697 -21 l 668 -140 l 586 -125 l 606 -18 q 193 77 338 -6 q 49 339 49 160 q 123 545 49 465 q 349 663 197 625 q 732 701 500 701 l 756 838 l 838 822 l 815 700 q 1208 605 1088 688 q 1331 386 1329 522 l 1025 386 q 943 463 1006 435 q 781 499 881 492 l 725 181 l 735 181 q 931 211 857 181 q 1026 296 1004 242 m 389 339 q 456 224 389 258 q 640 183 522 190 l 696 500 q 533 483 601 499 q 426 433 464 468 q 389 339 389 399 z "},"¤":{"ha":1286,"x_min":42,"x_max":1244,"o":"m 646 75 q 318 113 453 75 q 113 228 183 151 q 42 421 42 306 q 113 613 42 536 q 318 730 183 690 q 646 769 453 769 q 972 730 838 769 q 1175 613 1106 690 q 1244 421 1244 536 q 1175 228 1244 306 q 972 113 1106 151 q 646 75 838 75 m 646 269 q 841 313 778 269 q 904 421 904 357 q 842 530 904 485 q 646 575 781 575 q 447 531 511 575 q 382 421 382 486 q 446 313 382 357 q 646 269 510 269 m 365 -61 l 285 -6 l 393 147 l 479 101 l 365 -61 m 931 -61 l 817 101 l 901 147 l 1010 -6 l 931 -61 m 400 688 l 285 853 l 365 908 l 479 744 l 400 688 m 894 688 l 815 744 l 931 908 l 1010 853 l 894 688 z "},"$":{"ha":1190,"x_min":60,"x_max":1128,"o":"m 647 971 l 736 957 l 703 764 l 614 778 l 647 971 m 460 -82 l 494 111 l 583 96 l 549 -97 l 460 -82 m 64 335 l 371 335 q 445 285 390 300 q 601 271 500 271 q 719 279 681 271 q 769 301 757 288 q 781 331 781 315 q 755 364 781 354 q 668 376 729 374 q 500 378 607 378 q 320 386 400 378 q 184 415 240 394 q 99 472 128 436 q 69 561 69 507 q 113 673 69 628 q 229 744 156 718 q 399 781 303 769 q 601 792 496 792 q 888 756 776 792 q 1051 661 999 721 q 1103 528 1104 601 l 804 528 q 747 576 790 563 q 601 590 704 590 q 461 576 506 590 q 417 529 417 561 q 438 498 417 508 q 520 484 460 488 q 697 481 581 481 q 855 475 778 481 q 994 451 932 469 q 1092 395 1056 433 q 1128 292 1128 357 q 1063 164 1128 213 q 881 92 999 115 q 601 69 763 69 q 318 97 426 69 q 153 167 210 125 q 78 254 97 208 q 64 335 60 300 z "},"€":{"ha":1953,"x_min":28,"x_max":1869,"o":"m 1082 325 l 28 325 l 113 392 l 1165 392 l 1082 325 m 1224 475 l 28 475 l 113 556 l 1307 556 l 1224 475 m 636 335 q 728 281 668 301 q 882 252 789 261 q 1103 243 975 243 q 1323 261 1240 243 q 1449 308 1406 279 q 1508 371 1492 338 l 1869 371 q 1775 150 1863 239 q 1520 17 1688 61 q 1103 -28 1353 -28 q 783 -8 931 -28 q 521 56 635 13 q 336 167 407 99 q 246 333 265 236 l 636 335 m 1358 610 q 1248 626 1311 621 q 1103 632 1185 632 q 856 617 957 632 q 695 571 754 601 q 614 494 636 540 l 242 494 q 317 694 256 613 q 479 824 378 775 q 714 894 581 872 q 1006 917 847 917 q 1361 899 1214 917 q 1601 849 1508 881 l 1358 610 z "},"£":{"ha":1510,"x_min":49,"x_max":1454,"o":"m 49 392 l 49 482 l 994 482 l 994 392 l 49 392 m 586 393 q 556 320 586 347 q 482 281 525 293 q 399 265 439 268 q 340 261 360 261 l 1388 261 l 1388 0 l 131 0 l 131 261 q 156 262 131 261 q 217 267 181 263 q 291 281 254 271 q 353 310 328 292 q 378 356 378 328 q 371 381 378 369 q 353 404 364 393 q 352 421 346 411 q 368 440 358 431 q 381 457 378 450 q 372 464 385 464 q 285 472 335 464 q 188 501 235 481 q 110 560 142 522 q 79 658 79 599 q 159 806 79 749 q 384 890 239 863 q 724 917 529 917 q 1009 895 876 917 q 1242 829 1142 874 q 1398 718 1342 785 q 1454 561 1454 651 l 1088 561 q 1034 607 1083 588 q 908 638 985 626 q 744 649 832 649 q 572 642 646 649 q 456 617 497 636 q 415 557 415 597 q 441 503 415 524 q 501 467 467 483 q 560 435 535 451 q 586 393 586 418 z "},"¥":{"ha":1486,"x_min":7,"x_max":1479,"o":"m 569 226 l 7 889 l 417 889 l 874 313 l 617 313 l 1069 889 l 1479 889 l 917 226 l 569 226 m 569 14 l 569 33 l 917 33 l 917 14 l 569 14 m 403 90 l 1083 90 l 1083 0 l 403 0 l 403 90 m 403 243 l 1083 243 l 1083 153 l 403 153 l 403 243 z "},"∕":{"ha":603,"x_min":0,"x_max":603,"o":"m 528 972 l 603 931 l 72 -28 l 0 17 l 528 972 z "},"+":{"ha":1083,"x_min":69,"x_max":1014,"o":"m 69 479 l 1014 479 l 1014 271 l 69 271 l 69 479 m 674 667 l 674 83 l 410 83 l 410 667 l 674 667 z "},"−":{"ha":833,"x_min":69,"x_max":764,"o":"m 69 479 l 764 479 l 764 271 l 69 271 l 69 479 z "},"×":{"ha":988,"x_min":110,"x_max":876,"o":"m 257 -36 l 876 583 l 729 731 l 110 111 l 257 -36 m 729 -36 l 876 111 l 257 731 l 110 583 l 729 -36 z "},"÷":{"ha":889,"x_min":69,"x_max":819,"o":"m 69 465 l 819 465 l 819 257 l 69 257 l 69 465 m 621 160 l 621 21 l 268 21 l 268 160 l 621 160 m 621 701 l 621 561 l 268 561 l 268 701 l 621 701 z "},"=":{"ha":1167,"x_min":69,"x_max":1097,"o":"m 69 667 l 1097 667 l 1097 458 l 69 458 l 69 667 m 69 313 l 1097 313 l 1097 104 l 69 104 l 69 313 z "},"≠":{"ha":1167,"x_min":69,"x_max":1097,"o":"m 411 -15 l 667 818 l 756 793 l 500 -40 l 411 -15 m 69 667 l 1097 667 l 1097 458 l 69 458 l 69 667 m 69 313 l 1097 313 l 1097 104 l 69 104 l 69 313 z "},">":{"ha":767,"x_min":111,"x_max":683,"o":"m 111 569 l 208 761 l 683 503 l 683 293 l 208 35 l 111 242 l 460 401 l 111 569 z "},"<":{"ha":739,"x_min":56,"x_max":628,"o":"m 531 761 l 628 569 l 279 401 l 628 242 l 531 35 l 56 293 l 56 503 l 531 761 z "},"≥":{"ha":767,"x_min":111,"x_max":683,"o":"m 683 335 l 181 146 l 111 353 l 454 443 l 111 542 l 181 733 l 683 544 l 683 335 m 681 -14 l 139 -14 l 139 76 l 681 76 l 681 -14 z "},"≤":{"ha":767,"x_min":83,"x_max":656,"o":"m 656 353 l 586 146 l 83 335 l 83 544 l 586 733 l 656 542 l 313 443 l 656 353 m 628 -14 l 86 -14 l 86 76 l 628 76 l 628 -14 z "},"±":{"ha":1083,"x_min":69,"x_max":1014,"o":"m 69 313 l 69 521 l 1014 521 l 1014 313 l 69 313 m 69 -14 l 69 76 l 1014 76 l 1014 -14 l 69 -14 m 410 153 l 410 681 l 674 681 l 674 153 l 410 153 z "},"≈":{"ha":1242,"x_min":69,"x_max":1172,"o":"m 950 664 l 1172 664 q 1140 530 1172 594 q 1038 424 1107 465 q 860 383 968 383 q 733 399 792 383 q 619 436 674 415 q 514 473 565 457 q 410 489 463 489 q 324 466 357 489 q 292 417 292 443 l 69 417 q 106 549 69 485 q 219 656 143 614 q 410 697 294 697 q 538 681 478 697 q 651 644 597 665 q 756 608 704 624 q 860 592 807 592 q 931 615 913 592 q 950 664 950 638 m 978 321 l 1172 321 q 1153 226 1172 275 q 1097 134 1135 176 q 1001 66 1060 92 q 860 40 942 40 q 733 56 792 40 q 619 93 674 72 q 514 130 565 114 q 410 146 463 146 q 324 123 357 146 q 292 74 292 100 l 69 74 q 106 207 69 143 q 219 313 143 271 q 410 354 294 354 q 538 338 478 354 q 651 301 597 322 q 756 265 704 281 q 860 249 807 249 q 945 272 913 249 q 978 321 978 294 z "},"~":{"ha":575,"x_min":111,"x_max":464,"o":"m 464 483 l 464 274 l 111 274 l 111 483 l 464 483 z "},"¬":{"ha":1396,"x_min":118,"x_max":1257,"o":"m 118 611 l 1257 611 l 1257 222 l 993 222 l 993 403 l 118 403 l 118 611 z "},"^":{"ha":815,"x_min":232,"x_max":585,"o":"m 585 907 l 585 699 l 232 699 l 232 907 l 585 907 z "},"∅":{"ha":1481,"x_min":83,"x_max":1397,"o":"m 497 -94 l 413 -46 l 483 78 q 183 188 283 106 q 83 422 83 271 q 124 587 83 518 q 247 699 165 656 q 453 764 329 743 q 743 785 578 785 q 819 784 782 785 q 890 781 856 783 l 979 935 l 1063 886 l 996 769 q 1298 658 1199 742 q 1397 422 1397 574 q 1357 257 1397 325 q 1235 146 1317 189 q 1031 83 1153 103 q 743 63 908 63 q 665 64 703 63 q 590 67 626 65 l 497 -94 m 601 281 l 772 576 q 758 576 765 576 q 743 576 750 576 q 569 559 640 576 q 460 507 497 542 q 424 422 424 472 q 469 331 424 367 q 601 281 514 296 m 743 271 q 915 288 846 271 q 1021 339 985 306 q 1057 422 1057 372 q 1012 515 1057 478 q 878 567 967 551 l 708 271 q 726 271 717 271 q 743 271 735 271 z "},"∞":{"ha":2250,"x_min":83,"x_max":2167,"o":"m 1678 88 q 1493 105 1572 88 q 1352 151 1414 122 q 1240 217 1290 181 q 1140 293 1189 254 q 994 194 1072 242 q 814 117 915 147 q 572 88 713 88 q 315 126 425 88 q 144 233 206 164 q 83 396 83 303 q 143 558 83 489 q 307 664 203 626 q 544 701 411 701 q 752 683 663 701 q 911 632 842 664 q 1037 562 981 600 q 1144 483 1093 524 q 1244 562 1193 524 q 1358 632 1294 600 q 1506 683 1421 664 q 1706 701 1590 701 q 1943 664 1839 701 q 2107 558 2047 626 q 2167 394 2167 489 q 2106 232 2167 301 q 1935 125 2044 163 q 1678 88 1825 88 m 656 293 q 803 305 739 293 q 920 338 868 317 q 1015 386 972 360 q 913 441 968 417 q 788 479 857 465 q 628 493 718 493 q 540 486 586 493 q 463 458 494 479 q 431 396 431 438 q 453 342 431 363 q 512 312 476 322 q 586 297 547 301 q 656 293 625 293 m 1594 293 q 1665 297 1626 293 q 1738 312 1703 301 q 1797 342 1774 322 q 1819 394 1819 363 q 1788 458 1819 436 q 1710 486 1756 479 q 1622 493 1664 493 q 1485 479 1547 493 q 1372 442 1424 465 q 1272 388 1319 418 q 1363 340 1315 361 q 1467 306 1410 318 q 1594 293 1525 293 z "},"∫":{"ha":1043,"x_min":42,"x_max":1001,"o":"m 592 1056 l 1001 1056 l 1001 792 l 814 792 q 726 766 763 792 q 689 667 689 740 l 689 83 q 656 -52 689 0 q 565 -128 622 -104 q 439 -153 508 -153 l 42 -153 l 42 111 l 231 111 q 319 137 283 111 q 356 236 356 163 l 356 819 q 422 1000 356 944 q 592 1056 488 1056 z "},"∏":{"ha":1639,"x_min":42,"x_max":1597,"o":"m 319 694 l 653 694 l 653 0 l 319 0 l 319 694 m 1597 889 l 1597 625 l 42 625 l 42 889 l 1597 889 m 1319 0 l 986 0 l 986 694 l 1319 694 l 1319 0 z "},"∑":{"ha":1408,"x_min":117,"x_max":1283,"o":"m 117 889 l 1283 889 l 1283 625 l 306 625 l 269 807 l 997 426 l 278 72 l 306 264 l 1283 264 l 1283 0 l 117 0 l 117 264 l 596 486 l 540 401 l 117 625 l 117 889 z "},"√":{"ha":1661,"x_min":7,"x_max":1633,"o":"m 1633 889 l 1633 625 l 1210 625 l 783 0 l 469 0 l 7 681 l 374 681 l 633 250 l 1050 889 l 1633 889 z "},"µ":{"ha":1476,"x_min":63,"x_max":1449,"o":"m 1449 0 q 1177 27 1278 0 q 1033 107 1076 54 q 990 236 990 160 l 990 681 l 1324 681 l 1324 347 q 1339 293 1324 311 q 1382 269 1354 275 q 1449 264 1410 264 l 1449 0 m 1004 351 l 1007 285 q 989 217 1003 256 q 949 136 975 178 q 881 59 922 94 q 781 1 840 24 q 643 -21 722 -21 q 453 29 522 -21 q 358 186 383 79 l 396 240 l 396 -278 l 63 -278 l 63 681 l 396 681 l 396 421 q 431 283 396 331 q 526 219 467 236 q 660 201 586 201 q 810 226 742 201 q 928 285 878 250 q 1004 351 978 319 z "},"∂":{"ha":1429,"x_min":49,"x_max":1346,"o":"m 692 -21 q 342 22 486 -21 q 124 146 199 65 q 49 340 49 226 q 87 492 49 431 q 192 590 125 553 q 349 643 260 626 q 539 660 438 660 q 793 632 678 660 q 988 551 908 604 q 1096 422 1068 499 l 1076 417 q 1022 565 1064 500 q 896 675 979 631 q 680 743 813 719 q 356 767 547 767 l 356 979 q 711 950 558 979 q 974 872 864 921 q 1156 760 1083 822 q 1269 633 1228 699 q 1328 505 1311 567 q 1346 393 1346 443 q 1309 222 1346 293 q 1207 103 1272 150 q 1058 28 1142 56 q 881 -10 975 1 q 692 -21 786 -21 m 719 192 q 922 207 842 192 q 1042 251 1003 222 q 1082 321 1082 281 q 1044 389 1082 363 q 947 429 1006 415 q 823 449 888 443 q 706 454 758 454 q 479 425 564 454 q 394 325 394 396 q 481 219 394 247 q 719 192 568 192 z "},"%":{"ha":1801,"x_min":42,"x_max":1760,"o":"m 440 451 q 225 476 314 451 q 89 553 136 500 q 42 692 42 606 q 147 876 42 819 q 440 933 251 933 q 731 876 628 933 q 835 692 835 819 q 788 553 835 606 q 653 476 742 500 q 440 451 565 451 m 440 590 q 565 616 522 590 q 607 692 607 642 q 565 767 607 740 q 440 794 522 794 q 313 768 357 794 q 268 692 268 742 q 312 616 268 642 q 440 590 356 590 m 1365 -24 q 1072 32 1176 -24 q 967 217 967 88 q 1072 401 967 344 q 1365 458 1176 458 q 1657 401 1554 458 q 1760 217 1760 344 q 1657 32 1760 88 q 1365 -24 1554 -24 m 1365 115 q 1490 141 1447 115 q 1533 217 1533 167 q 1490 292 1533 265 q 1365 319 1447 319 q 1239 293 1283 319 q 1194 217 1194 267 q 1238 141 1194 167 q 1365 115 1281 115 m 1129 953 l 1204 911 l 674 -47 l 601 -3 l 1129 953 z "},"‰":{"ha":2047,"x_min":42,"x_max":2006,"o":"m 440 453 q 225 476 314 453 q 89 553 136 500 q 42 692 42 606 q 147 877 42 821 q 440 933 251 933 q 731 877 628 933 q 835 692 835 821 q 788 553 835 606 q 653 476 742 500 q 440 453 565 453 m 440 592 q 565 617 522 592 q 607 692 607 642 q 565 768 607 742 q 440 794 522 794 q 313 768 357 794 q 268 692 268 742 q 312 617 268 642 q 440 592 356 592 m 1611 424 q 1396 447 1485 424 q 1260 524 1307 471 q 1213 663 1213 576 q 1317 848 1213 792 q 1611 904 1422 904 q 1903 848 1800 904 q 2006 663 2006 792 q 1959 524 2006 576 q 1825 447 1913 471 q 1611 424 1738 424 m 1611 563 q 1736 588 1693 563 q 1779 663 1779 613 q 1737 739 1779 713 q 1611 765 1694 765 q 1485 739 1529 765 q 1440 663 1440 713 q 1483 588 1440 613 q 1611 563 1526 563 m 1308 -119 q 1093 -96 1182 -119 q 957 -19 1004 -72 q 910 119 910 33 q 1015 305 910 249 q 1308 361 1119 361 q 1600 305 1497 361 q 1703 119 1703 249 q 1656 -19 1703 33 q 1522 -96 1610 -72 q 1308 -119 1435 -119 m 1308 19 q 1433 44 1390 19 q 1476 119 1476 69 q 1433 196 1476 169 q 1308 222 1390 222 q 1182 196 1226 222 q 1138 119 1138 169 q 1181 44 1138 69 q 1308 19 1224 19 m 1136 953 l 1211 911 l 681 -47 l 608 -3 l 1136 953 z "},"↑":{"ha":1057,"x_min":129,"x_max":935,"o":"m 428 -112 l 428 565 l 435 689 l 268 528 l 129 679 l 532 1054 l 935 679 l 799 526 l 629 690 l 636 565 l 636 -112 l 428 -112 z "},"↗":{"ha":1196,"x_min":139,"x_max":1057,"o":"m 286 -24 l 139 124 l 618 604 l 711 686 l 479 690 l 488 896 l 1038 876 l 1057 325 l 853 314 l 849 550 l 765 457 l 286 -24 z "},"→":{"ha":1307,"x_min":56,"x_max":1224,"o":"m 847 -15 l 694 122 l 857 290 l 733 283 l 56 283 l 56 492 l 733 492 l 857 485 l 696 651 l 847 792 l 1224 388 l 847 -15 z "},"↘":{"ha":1197,"x_min":139,"x_max":1058,"o":"m 488 -21 l 476 185 l 711 189 l 618 271 l 139 750 l 286 897 l 765 418 l 849 325 l 853 558 l 1058 550 l 1039 -1 l 488 -21 z "},"↓":{"ha":1057,"x_min":125,"x_max":932,"o":"m 528 -185 l 125 192 l 263 344 l 431 182 l 424 306 l 424 983 l 632 983 l 632 306 l 625 181 l 793 343 l 932 192 l 528 -185 z "},"↙":{"ha":1197,"x_min":139,"x_max":1058,"o":"m 710 -21 l 158 -1 l 139 550 l 344 558 l 349 326 l 431 418 l 911 897 l 1058 750 l 578 271 l 486 189 l 721 185 l 710 -21 z "},"←":{"ha":1307,"x_min":83,"x_max":1251,"o":"m 458 -15 l 83 388 l 458 792 l 610 651 l 449 485 l 572 492 l 1251 492 l 1251 283 l 572 283 l 450 290 l 613 122 l 458 -15 z "},"↖":{"ha":1196,"x_min":139,"x_max":1057,"o":"m 910 -15 l 431 464 l 349 556 l 344 322 l 139 333 l 158 883 l 710 903 l 718 699 l 486 694 l 578 611 l 1057 132 l 910 -15 z "},"↔":{"ha":1678,"x_min":83,"x_max":1594,"o":"m 458 -15 l 83 388 l 458 792 l 610 651 l 450 488 l 506 492 l 1172 492 l 1226 488 l 1068 651 l 1219 792 l 1594 388 l 1219 -15 l 1067 122 l 1226 288 l 1172 283 l 506 283 l 451 288 l 613 122 l 458 -15 z "},"↕":{"ha":1057,"x_min":125,"x_max":932,"o":"m 528 -243 l 125 132 l 263 286 l 428 126 l 424 179 l 424 707 l 428 760 l 263 600 l 125 754 l 528 1129 l 932 754 l 793 603 l 628 763 l 632 707 l 632 179 l 628 124 l 793 283 l 932 132 l 528 -243 z "},"◊":{"ha":1390,"x_min":69,"x_max":1321,"o":"m 696 -8 l 69 468 l 694 944 l 1321 468 l 696 -8 m 696 242 l 996 468 l 694 694 l 394 468 l 696 242 z "},"΄":{"ha":961,"x_min":139,"x_max":864,"o":"m 139 833 l 419 1042 l 864 1042 l 474 833 l 139 833 z "},"΅":{"ha":1456,"x_min":0,"x_max":1456,"o":"m 353 958 l 353 749 l 0 749 l 0 958 l 353 958 m 1456 958 l 1456 749 l 1103 749 l 1103 958 l 1456 958 m 365 749 l 646 958 l 1090 958 l 700 749 l 365 749 z "},"̈":{"ha":0,"x_min":51,"x_max":826,"o":"m 404 1046 l 404 836 l 51 836 l 51 1046 l 404 1046 m 826 1046 l 826 836 l 474 836 l 474 1046 l 826 1046 z "},"̇":{"ha":0,"x_min":28,"x_max":381,"o":"m 381 1046 l 381 838 l 28 838 l 28 1046 l 381 1046 z "},"̀":{"ha":0,"x_min":139,"x_max":864,"o":"m 529 836 l 139 1044 l 583 1044 l 864 836 l 529 836 z "},"́":{"ha":0,"x_min":139,"x_max":864,"o":"m 139 836 l 419 1044 l 864 1044 l 474 836 l 139 836 z "},"̋":{"ha":0,"x_min":139,"x_max":1017,"o":"m 519 836 l 733 1044 l 1017 1044 l 757 836 l 519 836 m 139 836 l 326 1044 l 608 1044 l 376 836 l 139 836 z "},"̂":{"ha":0,"x_min":139,"x_max":1144,"o":"m 836 1044 l 1144 836 l 808 836 l 511 1007 l 772 1006 l 474 836 l 139 836 l 447 1044 l 836 1044 z "},"̌":{"ha":0,"x_min":139,"x_max":1144,"o":"m 772 875 l 511 874 l 808 1044 l 1144 1044 l 836 836 l 447 836 l 139 1044 l 474 1044 l 772 875 z "},"̆":{"ha":0,"x_min":181,"x_max":1222,"o":"m 1222 1014 q 1132 913 1194 958 q 964 841 1069 868 q 701 814 858 814 q 439 841 544 814 q 271 913 333 868 q 181 1014 208 958 l 389 1014 q 493 974 419 994 q 701 953 567 953 q 909 974 836 953 q 1014 1014 982 994 l 1222 1014 z "},"̊":{"ha":0,"x_min":139,"x_max":608,"o":"m 374 801 q 197 844 254 801 q 139 957 139 886 q 197 1069 139 1026 q 374 1111 254 1111 q 550 1069 492 1111 q 608 957 608 1026 q 550 844 608 886 q 374 801 492 801 m 374 892 q 452 906 429 892 q 475 957 475 919 q 452 1007 475 993 q 374 1021 429 1021 q 294 1007 317 1021 q 271 957 271 993 q 294 906 271 919 q 374 892 317 892 z "},"̃":{"ha":0,"x_min":139,"x_max":1163,"o":"m 836 826 q 737 838 782 826 q 651 865 692 850 q 571 891 611 879 q 486 903 531 903 q 429 894 453 903 q 387 871 406 886 q 347 833 368 856 l 139 833 q 209 933 165 886 q 317 1011 253 981 q 465 1042 381 1042 q 565 1030 521 1042 q 647 1003 608 1018 q 724 977 686 989 q 807 965 763 965 q 872 975 846 965 q 918 1001 899 985 q 954 1035 938 1017 l 1163 1035 q 1093 935 1138 983 q 985 857 1049 888 q 836 826 922 826 z "},"̄":{"ha":0,"x_min":139,"x_max":769,"o":"m 139 838 l 139 975 l 769 975 l 769 838 l 139 838 z "},"̒":{"ha":0,"x_min":449,"x_max":800,"o":"m 761 1101 l 779 1015 q 715 992 749 1008 q 678 954 682 975 l 800 939 l 800 776 l 449 776 l 449 883 q 523 1021 449 958 q 761 1101 597 1083 z "},"̦":{"ha":0,"x_min":39,"x_max":390,"o":"m 78 -393 l 58 -307 q 128 -281 99 -297 q 161 -246 157 -265 l 39 -231 l 39 -68 l 390 -68 l 390 -175 q 312 -316 390 -256 q 78 -393 233 -376 l 78 -393 z "},"̧":{"ha":0,"x_min":139,"x_max":867,"o":"m 663 26 l 663 -210 l 524 -39 q 651 -58 589 -49 q 761 -82 713 -67 q 838 -123 810 -97 q 867 -192 867 -149 q 772 -315 867 -268 q 500 -361 676 -361 q 308 -331 386 -361 q 188 -253 229 -301 q 139 -151 146 -204 l 381 -151 q 395 -166 385 -156 q 428 -185 406 -176 q 492 -194 451 -194 q 552 -184 532 -194 q 572 -156 572 -174 q 564 -133 572 -144 q 525 -110 556 -121 q 426 -90 494 -99 l 426 26 l 663 26 z "},"̨":{"ha":0,"x_min":139,"x_max":624,"o":"m 624 -333 q 268 -283 397 -333 q 139 -146 139 -233 q 194 -45 139 -81 q 347 7 250 -10 q 567 31 443 24 l 567 0 q 434 -27 479 -10 q 389 -90 389 -44 q 422 -151 389 -128 q 508 -186 454 -175 q 624 -197 561 -197 l 624 -333 z "},"̵":{"ha":0,"x_min":28,"x_max":708,"o":"m 28 582 l 708 582 l 708 492 l 28 492 l 28 582 z "},"̶":{"ha":0,"x_min":28,"x_max":583,"o":"m 28 589 l 583 589 l 583 506 l 28 506 l 28 589 z "},"̷":{"ha":0,"x_min":28,"x_max":646,"o":"m 594 783 l 646 710 l 76 321 l 28 394 l 594 783 z "},"̸":{"ha":0,"x_min":28,"x_max":704,"o":"m 629 1063 l 704 1021 l 100 -69 l 28 -25 l 629 1063 z "},"¨":{"ha":775,"x_min":24,"x_max":799,"o":"m 376 1046 l 376 836 l 24 836 l 24 1046 l 376 1046 m 799 1046 l 799 836 l 446 836 l 446 1046 l 799 1046 z "},"˙":{"ha":422,"x_min":28,"x_max":381,"o":"m 381 1046 l 381 838 l 28 838 l 28 1046 l 381 1046 z "},"`":{"ha":1003,"x_min":139,"x_max":864,"o":"m 529 836 l 139 1044 l 583 1044 l 864 836 l 529 836 z "},"´":{"ha":961,"x_min":139,"x_max":864,"o":"m 139 836 l 419 1044 l 864 1044 l 474 836 l 139 836 z "},"˝":{"ha":1156,"x_min":139,"x_max":1017,"o":"m 519 836 l 733 1044 l 1017 1044 l 757 836 l 519 836 m 139 836 l 326 1044 l 608 1044 l 376 836 l 139 836 z "},"ˆ":{"ha":1283,"x_min":139,"x_max":1144,"o":"m 836 1044 l 1144 836 l 808 836 l 511 1007 l 772 1006 l 474 836 l 139 836 l 447 1044 l 836 1044 z "},"ˇ":{"ha":1283,"x_min":139,"x_max":1144,"o":"m 772 875 l 511 874 l 808 1044 l 1144 1044 l 836 836 l 447 836 l 139 1044 l 474 1044 l 772 875 z "},"˘":{"ha":1403,"x_min":181,"x_max":1222,"o":"m 1222 1014 q 1132 913 1194 958 q 964 841 1069 868 q 701 814 858 814 q 439 841 544 814 q 271 913 333 868 q 181 1014 208 958 l 389 1014 q 493 974 419 994 q 701 953 567 953 q 909 974 836 953 q 1014 1014 982 994 l 1222 1014 z "},"˚":{"ha":747,"x_min":139,"x_max":608,"o":"m 374 801 q 197 844 254 801 q 139 957 139 886 q 197 1069 139 1026 q 374 1111 254 1111 q 550 1069 492 1111 q 608 957 608 1026 q 550 844 608 886 q 374 801 492 801 m 374 892 q 452 906 429 892 q 475 957 475 919 q 452 1007 475 993 q 374 1021 429 1021 q 294 1007 317 1021 q 271 957 271 993 q 294 906 271 919 q 374 892 317 892 z "},"˜":{"ha":1301,"x_min":139,"x_max":1163,"o":"m 836 826 q 737 838 782 826 q 651 865 692 850 q 571 891 611 879 q 486 903 531 903 q 429 894 453 903 q 387 871 406 886 q 347 833 368 856 l 139 833 q 209 933 165 886 q 317 1011 253 981 q 465 1042 381 1042 q 565 1030 521 1042 q 647 1003 608 1018 q 724 977 686 989 q 807 965 763 965 q 872 975 846 965 q 918 1001 899 985 q 954 1035 938 1017 l 1163 1035 q 1093 935 1138 983 q 985 857 1049 888 q 836 826 922 826 z "},"¯":{"ha":908,"x_min":139,"x_max":769,"o":"m 139 838 l 139 975 l 769 975 l 769 838 l 139 838 z "},"¸":{"ha":964,"x_min":139,"x_max":867,"o":"m 663 26 l 663 -210 l 524 -39 q 651 -58 589 -49 q 761 -82 713 -67 q 838 -123 810 -97 q 867 -192 867 -149 q 772 -315 867 -268 q 500 -361 676 -361 q 308 -331 386 -361 q 188 -253 229 -301 q 139 -151 146 -204 l 381 -151 q 395 -166 385 -156 q 428 -185 406 -176 q 492 -194 451 -194 q 552 -184 532 -194 q 572 -156 572 -174 q 564 -133 572 -144 q 525 -110 556 -121 q 426 -90 494 -99 l 426 26 l 663 26 z "},"˛":{"ha":763,"x_min":139,"x_max":624,"o":"m 624 -333 q 268 -283 397 -333 q 139 -146 139 -233 q 194 -45 139 -81 q 347 7 250 -10 q 567 31 443 24 l 567 0 q 434 -27 479 -10 q 389 -90 389 -44 q 422 -151 389 -128 q 508 -186 454 -175 q 624 -197 561 -197 l 624 -333 z "}}}
